<?xml version="1.0" encoding="UTF-8"?>
<svg width="751" height="683" viewBox="0 0 751 683" xmlns="http://www.w3.org/2000/svg" xmlns:xlink="http://www.w3.org/1999/xlink">
    <g id="g3023">
        <path id="path3025" fill="#2c2c2b" fill-rule="evenodd" stroke="none" d="M 169.396896 249.10791 C 199.712891 316.361328 190.452896 386.10791 148.716904 404.93457 C 106.979553 423.76123 48.570236 384.521332 18.256901 317.28125 C -12.059118 250.041321 -2.80043 180.287903 38.936893 161.463928 C 80.674217 142.645264 139.080902 181.886658 169.396896 249.10791 Z"/>
        <path id="path3027" fill="#2c2c2b" fill-rule="evenodd" stroke="none" d="M 581.959534 249.10791 C 551.642212 316.361328 560.902222 386.10791 602.642212 404.93457 C 644.379578 423.76123 702.783569 384.521332 733.103577 317.28125 C 763.415588 250.041321 754.155579 180.287903 712.419556 161.463928 C 670.684875 142.645264 612.275574 181.886658 581.959534 249.10791 Z"/>
        <path id="path3029" fill="#2c2c2b" fill-rule="evenodd" stroke="none" d="M 346.800354 114.317322 C 362.340088 186.409241 338.652618 252.667969 293.895416 262.321289 C 249.141541 271.961243 200.262238 221.334656 184.724884 149.249268 C 169.187561 77.15863 192.874237 10.897278 237.630493 1.253235 C 282.386353 -8.394714 331.263306 42.225281 346.800354 114.317322 Z"/>
        <path id="path3031" fill="#2c2c2b" fill-rule="evenodd" stroke="none" d="M 403.443024 114.378601 C 387.916901 186.469238 411.587555 252.734558 456.341431 262.374695 C 501.098206 272.028015 549.975586 221.401306 565.511536 149.311951 C 581.050232 77.219971 557.366211 10.958557 512.607544 1.314636 C 467.850494 -8.33075 418.974213 42.286621 403.443024 114.378601 Z"/>
        <path id="path3033" fill="#2c2c2b" fill-rule="evenodd" stroke="none" d="M 290.782898 355.307953 C 279.85968 374.174652 229.241165 436.62793 194.230225 457.93457 C 159.222229 479.241211 115.840881 510.441254 123.120895 582.081177 C 130.396896 653.734558 203.887558 684.401245 252.267151 681.681335 C 300.649414 678.974609 391.866211 670.067871 456.99115 679.094604 C 522.112915 688.121277 604.306213 681.28125 623.554199 612.681335 C 642.802246 544.081177 599.754211 500.374664 566.162231 475.574554 C 532.571533 450.787933 476.475555 376.641266 459.193024 342.601227 C 441.913025 308.574524 353.957306 246.254578 290.782898 355.307953 Z"/>
    </g>
</svg>
