<svg width="751" height="683" xmlns="http://www.w3.org/2000/svg"><g fill="#2c2c2b" fill-rule="evenodd"><path d="M169.397 249.108c30.316 67.253 21.056 137-20.68 155.827C106.98 423.76 48.57 384.52 18.257 317.28-12.06 250.041-2.8 180.288 38.937 161.464c41.737-18.819 100.144 20.423 130.46 87.644zM581.96 249.108c-30.318 67.253-21.058 137 20.682 155.827 41.738 18.826 100.142-20.414 130.462-87.654 30.312-67.24 21.052-136.993-20.684-155.817-41.735-18.819-100.144 20.423-130.46 87.644zM346.8 114.317c15.54 72.092-8.147 138.351-52.905 148.004-44.753 9.64-93.633-40.986-109.17-113.072-15.537-72.09 8.15-138.352 52.905-147.996 44.756-9.648 93.633 40.972 109.17 113.064zM403.443 114.379c-15.526 72.09 8.145 138.356 52.898 147.996 44.757 9.653 93.635-40.974 109.17-113.063 15.54-72.092-8.145-138.353-52.903-147.997-44.758-9.646-93.634 40.972-109.165 113.064zM290.783 355.308c-10.923 18.867-61.542 81.32-96.553 102.627-35.008 21.306-78.39 52.506-71.11 124.146 7.277 71.654 80.768 102.32 129.147 99.6 48.382-2.706 139.6-11.613 204.724-2.586 65.122 9.026 147.315 2.186 166.563-66.414 19.248-68.6-23.8-112.306-57.392-137.106-33.59-24.787-89.686-98.934-106.969-132.974-17.28-34.026-105.236-96.346-168.41 12.707z"/></g></svg>