<?xml version="1.0" encoding="UTF-8" standalone="no"?>
<svg
   width="100%"
   height="100%"
   viewBox="0 0 352 489"
   version="1.1"
   xml:space="preserve"
   style="fill-rule:evenodd;clip-rule:evenodd;stroke-linejoin:round;stroke-miterlimit:2;"
   id="svg13"
   sodipodi:docname="cowsay.svg"
   inkscape:export-filename="cowsay.svg"
   inkscape:export-xdpi="96"
   inkscape:export-ydpi="96"
   inkscape:version="1.4 (e7c3feb1, 2024-10-09)"
   xmlns:inkscape="http://www.inkscape.org/namespaces/inkscape"
   xmlns:sodipodi="http://sodipodi.sourceforge.net/DTD/sodipodi-0.dtd"
   xmlns="http://www.w3.org/2000/svg"
   xmlns:svg="http://www.w3.org/2000/svg"><defs
   id="defs13" /><sodipodi:namedview
   id="namedview13"
   pagecolor="#ffffff"
   bordercolor="#000000"
   borderopacity="0.25"
   inkscape:showpageshadow="2"
   inkscape:pageopacity="0.0"
   inkscape:pagecheckerboard="0"
   inkscape:deskcolor="#d1d1d1"
   inkscape:zoom="1.7014315"
   inkscape:cx="172.79567"
   inkscape:cy="244.5"
   inkscape:window-width="2056"
   inkscape:window-height="1257"
   inkscape:window-x="0"
   inkscape:window-y="44"
   inkscape:window-maximized="0"
   inkscape:current-layer="svg13" />
    <g
   transform="matrix(1,0,0,1,-6.70551,-5.99512)"
   id="g13"
   style="fill:#1a1a1a">
        <g
   transform="matrix(0.226902,0,0,0.417964,4.58765,-14.9174)"
   id="g12"
   style="fill:#1a1a1a">
            <g
   transform="matrix(1,0,0,1,0,39.6187)"
   id="g1"
   style="fill:#1a1a1a">
                <path
   d="M182.788,10.416L310.091,94.305L254.866,94.164L159.713,38.848L64.818,94.164L9.334,94.305L136.897,10.416L182.788,10.416Z"
   style="fill-rule:nonzero;fill:#1a1a1a"
   id="path1" />
            </g>
            <g
   transform="matrix(1,0,0,1,0,19.8093)"
   id="g2"
   style="fill:#1a1a1a">
                <rect
   x="319.684"
   y="246.599"
   width="299.106"
   height="23.928"
   style="fill-rule:nonzero;fill:#1a1a1a"
   id="rect1" />
            </g>
            <g
   transform="matrix(1,0,0,1,0,19.8093)"
   id="g3"
   style="fill:#1a1a1a">
                <rect
   x="657.614"
   y="246.599"
   width="299.106"
   height="23.928"
   style="fill-rule:nonzero;fill:#1a1a1a"
   id="rect2" />
            </g>
            <g
   transform="matrix(1,0,0,1,0,39.6187)"
   id="g4"
   style="fill:#1a1a1a">
                <path
   d="M1141.84,10.416L1269.14,94.305L1213.92,94.164L1118.77,38.848L1023.87,94.164L968.387,94.305L1095.95,10.416L1141.84,10.416Z"
   style="fill-rule:nonzero;fill:#1a1a1a"
   id="path3" />
            </g>
            <g
   transform="matrix(1,0,0,1,0,9.90466)"
   id="g5"
   style="fill:#1a1a1a">
                <path
   d="M221.679,323.357C198.69,344.751 181.535,366.075 170.213,387.329C158.892,408.583 153.231,430.001 153.231,451.583C153.231,473.071 158.892,494.466 170.213,515.766C181.535,537.067 198.69,558.508 221.679,580.09L180.195,580.09C154.095,557.758 134.649,536.011 121.859,514.851C109.068,493.691 102.672,472.602 102.672,451.583C102.672,430.657 109.068,409.591 121.859,388.385C134.649,367.178 154.095,345.502 180.195,323.357L221.679,323.357Z"
   style="fill-rule:nonzero;fill:#1a1a1a"
   id="path4" />
            </g>
            <g
   transform="matrix(1,0,0,1,0,9.90466)"
   id="g6"
   style="fill:#1a1a1a">
                <path
   d="M479.397,416.676C455.198,416.676 436.876,421.79 424.431,432.018C411.986,442.246 405.763,457.401 405.763,477.481C405.763,497.468 411.986,512.599 424.431,522.874C436.876,533.149 455.198,538.287 479.397,538.287C503.769,538.287 522.177,533.149 534.622,522.874C547.068,512.599 553.29,497.468 553.29,477.481C553.29,457.401 547.068,442.246 534.622,432.018C522.177,421.79 503.769,416.676 479.397,416.676ZM479.397,394.719C519.671,394.719 550.481,401.803 571.828,415.972C593.175,430.141 603.848,450.644 603.848,477.481C603.848,504.412 593.218,524.939 571.958,539.061C550.697,553.183 519.844,560.244 479.397,560.244C439.123,560.244 408.356,553.183 387.096,539.061C365.835,524.939 355.205,504.412 355.205,477.481C355.205,450.644 365.835,430.141 387.096,415.972C408.356,401.803 439.123,394.719 479.397,394.719Z"
   style="fill-rule:nonzero;fill:#1a1a1a"
   id="path5" />
            </g>
            <g
   transform="matrix(1,0,0,1,0,9.90466)"
   id="g7"
   style="fill:#1a1a1a">
                <path
   d="M874.012,451.301C874.012,420.429 868.178,398.378 856.511,385.147C844.843,371.917 825.7,365.301 799.082,365.301C772.636,365.301 753.579,371.917 741.912,385.147C730.244,398.378 724.411,420.429 724.411,451.301C724.411,482.079 730.244,504.084 741.912,517.314C753.579,530.545 772.636,537.161 799.082,537.161C825.7,537.161 844.843,530.569 856.511,517.385C868.178,504.201 874.012,482.173 874.012,451.301ZM928.718,451.301C928.718,487.897 918.045,515.203 896.698,533.22C875.351,551.236 842.812,560.244 799.082,560.244C755.351,560.244 722.855,551.283 701.595,533.36C680.334,515.438 669.704,488.085 669.704,451.301C669.704,414.612 680.377,387.259 701.724,369.242C723.071,351.226 755.524,342.218 799.082,342.218C842.812,342.218 875.351,351.226 896.698,369.242C918.045,387.259 928.718,414.612 928.718,451.301Z"
   style="fill-rule:nonzero;fill:#1a1a1a"
   id="path6" />
            </g>
            <g
   transform="matrix(1,0,0,1,0,9.90466)"
   id="g8"
   style="fill:#1a1a1a">
                <path
   d="M1049.28,323.357L1090.77,323.357C1116.87,345.502 1136.31,367.178 1149.1,388.385C1161.89,409.591 1168.29,430.657 1168.29,451.583C1168.29,472.696 1161.89,493.856 1149.1,515.062C1136.31,536.269 1116.87,557.945 1090.77,580.09L1049.28,580.09C1072.27,558.321 1089.42,536.785 1100.75,515.485C1112.07,494.184 1117.73,472.883 1117.73,451.583C1117.73,430.188 1112.07,408.841 1100.75,387.54C1089.42,366.239 1072.27,344.845 1049.28,323.357Z"
   style="fill-rule:nonzero;fill:#1a1a1a"
   id="path7" />
            </g>
            <g
   transform="matrix(1,0,0,1,0,9.90466)"
   id="g9"
   style="fill:#1a1a1a">
                <path
   d="M1354.7,346.018L1558.49,582.905L1509.23,582.905L1305.18,346.018L1354.7,346.018Z"
   style="fill-rule:nonzero;fill:#1a1a1a"
   id="path8" />
            </g>
            <path
   d="M221.679,659.663C198.69,681.057 181.535,702.381 170.213,723.635C158.892,744.889 153.231,766.307 153.231,787.889C153.231,809.377 158.892,830.772 170.213,852.072C181.535,873.373 198.69,894.814 221.679,916.396L180.195,916.396C154.095,894.064 134.649,872.317 121.859,851.157C109.068,829.997 102.672,808.908 102.672,787.889C102.672,766.963 109.068,745.897 121.859,724.691C134.649,703.484 154.095,681.808 180.195,659.663L221.679,659.663Z"
   style="fill-rule:nonzero;fill:#1a1a1a"
   id="path9" />
            <rect
   x="319.684"
   y="919.211"
   width="299.106"
   height="23.928"
   style="fill-rule:nonzero;fill:#1a1a1a"
   id="rect9" />
            <rect
   x="653.053"
   y="919.211"
   width="303.667"
   height="23.928"
   style="fill-rule:nonzero;fill:#1a1a1a"
   id="rect10" />
            <path
   d="M1049.28,659.663L1090.77,659.663C1116.87,681.808 1136.31,703.484 1149.1,724.691C1161.89,745.897 1168.29,766.963 1168.29,787.889C1168.29,809.002 1161.89,830.162 1149.1,851.368C1136.31,872.575 1116.87,894.251 1090.77,916.396L1049.28,916.396C1072.27,894.627 1089.42,873.091 1100.75,851.791C1112.07,830.49 1117.73,809.189 1117.73,787.889C1117.73,766.494 1112.07,745.147 1100.75,723.846C1089.42,702.546 1072.27,681.151 1049.28,659.663Z"
   style="fill-rule:nonzero;fill:#1a1a1a"
   id="path10" />
            <g
   transform="matrix(1,0,0,1,0,-14.857)"
   id="g11"
   style="fill:#1a1a1a">
                <path
   d="M357.798,1148.12L357.798,1018.63L410.43,1018.63L410.43,1161.07C410.43,1171.3 410.949,1178.6 411.986,1182.96C413.023,1187.32 414.838,1190.68 417.431,1193.02C422.962,1198.56 430.956,1202.74 441.414,1205.55C451.871,1208.37 464.532,1209.77 479.397,1209.77C494.435,1209.77 507.139,1208.37 517.51,1205.55C527.881,1202.74 535.919,1198.56 541.623,1193.02C544.216,1190.68 546.03,1187.35 547.068,1183.03C548.105,1178.71 548.623,1171.49 548.623,1161.35L548.623,1018.63L600.996,1018.63L600.996,1148.12C600.996,1169.61 598.533,1184.88 593.607,1193.94C588.681,1202.99 580.168,1210.48 568.069,1216.39C556.661,1221.92 543.611,1226.05 528.918,1228.77C514.226,1231.5 497.719,1232.86 479.397,1232.86C461.248,1232.86 444.827,1231.5 430.135,1228.77C415.443,1226.05 402.306,1221.92 390.725,1216.39C378.799,1210.57 370.329,1203.04 365.317,1193.8C360.304,1184.55 357.798,1169.33 357.798,1148.12Z"
   style="fill-rule:nonzero;fill:#1a1a1a"
   id="path11" />
            </g>
        </g>
    </g>
</svg>
