<svg viewBox="0 0 352 489" xmlns="http://www.w3.org/2000/svg" stroke-miterlimit="2">
  <style>
    .aa {
      fill: #1a1a1a;
    }
  </style>
  <g class="aa">
    <path d="M39.357 0l28.885 35.063-12.53-.06-21.59-23.12-21.533 23.12L0 35.064 28.944 0h10.413zM70.42 90.437h67.867v10H70.419zM147.096 90.437h67.868v10h-67.868zM256.968 0l28.885 35.063-12.53-.06-21.59-23.12-21.533 23.12-12.589.06L246.555 0h10.413zM48.182 118.379c-5.217 8.942-9.11 17.854-11.678 26.738-2.569 8.883-3.853 17.835-3.853 26.856 0 8.98 1.284 17.923 3.853 26.826 2.569 8.903 6.461 17.865 11.678 26.885h-9.413c-5.922-9.334-10.335-18.423-13.237-27.268-2.902-8.844-4.353-17.658-4.353-26.443 0-8.747 1.45-17.551 4.353-26.415 2.902-8.864 7.315-17.923 13.237-27.18h9.413zM106.658 157.383c-5.49 0-9.648 2.137-12.472 6.412-2.823 4.275-4.235 10.61-4.235 19.002 0 8.354 1.412 14.678 4.235 18.973 2.824 4.294 6.981 6.442 12.472 6.442 5.53 0 9.707-2.148 12.53-6.442 2.825-4.295 4.237-10.619 4.237-18.973 0-8.393-1.412-14.727-4.236-19.002-2.824-4.275-7-6.412-12.53-6.412zm0-9.177c9.139 0 16.13 2.96 20.973 8.883 4.844 5.922 7.265 14.491 7.265 25.708 0 11.256-2.412 19.836-7.235 25.738-4.825 5.903-11.825 8.854-21.003 8.854-9.138 0-16.12-2.951-20.943-8.854-4.824-5.902-7.236-14.482-7.236-25.738 0-11.217 2.412-19.786 7.236-25.708 4.824-5.923 11.805-8.883 20.943-8.883zM196.197 171.855c0-12.904-1.324-22.12-3.97-27.65-2.648-5.53-6.992-8.295-13.032-8.295-6 0-10.324 2.765-12.972 8.295-2.647 5.53-3.97 14.746-3.97 27.65 0 12.864 1.323 22.061 3.97 27.59 2.648 5.531 6.972 8.296 12.972 8.296 6.04 0 10.384-2.755 13.031-8.265 2.647-5.51 3.971-14.718 3.971-27.621zm12.413 0c0 15.296-2.422 26.709-7.265 34.239-4.844 7.53-12.227 11.295-22.15 11.295-9.922 0-17.296-3.745-22.12-11.236-4.824-7.491-7.236-18.924-7.236-34.298 0-15.335 2.422-26.767 7.266-34.298 4.843-7.53 12.207-11.295 22.09-11.295 9.923 0 17.306 3.765 22.15 11.295 4.843 7.53 7.265 18.963 7.265 34.298zM235.966 118.379h9.414c5.922 9.256 10.333 18.315 13.235 27.18 2.902 8.863 4.354 17.667 4.354 26.414 0 8.824-1.452 17.668-4.354 26.532-2.902 8.863-7.313 17.923-13.235 27.179h-9.414c5.216-9.099 9.108-18.1 11.679-27.003 2.568-8.903 3.852-17.806 3.852-26.708 0-8.943-1.284-17.865-3.852-26.768-2.571-8.903-6.463-17.845-11.68-26.826zM305.266 127.85l46.24 99.01H340.33l-46.299-99.01h11.236zM48.182 254.803c-5.217 8.942-9.11 17.854-11.678 26.738-2.569 8.883-3.853 17.835-3.853 26.856 0 8.98 1.284 17.923 3.853 26.826 2.569 8.903 6.461 17.865 11.678 26.885h-9.413c-5.922-9.334-10.335-18.423-13.237-27.268-2.902-8.844-4.353-17.658-4.353-26.443 0-8.747 1.45-17.551 4.353-26.415 2.902-8.864 7.315-17.923 13.237-27.18h9.413zM70.42 363.285h67.867v10H70.419zM146.061 363.285h68.903v10H146.06zM235.966 254.803h9.414c5.922 9.256 10.333 18.315 13.235 27.18 2.902 8.863 4.354 17.667 4.354 26.414 0 8.824-1.452 17.668-4.354 26.532-2.902 8.863-7.313 17.923-13.235 27.179h-9.414c5.216-9.099 9.108-18.1 11.679-27.003 2.568-8.903 3.852-17.806 3.852-26.708 0-8.943-1.284-17.865-3.852-26.768-2.571-8.903-6.463-17.845-11.68-26.826zM79.067 452.75v-54.122H91.01v59.535c0 4.276.117 7.327.353 9.15.235 1.822.647 3.226 1.235 4.204 1.255 2.316 3.069 4.063 5.442 5.237 2.373 1.179 5.245 1.764 8.618 1.764 3.412 0 6.295-.585 8.648-1.764 2.353-1.174 4.177-2.921 5.471-5.237.589-.978 1-2.37 1.236-4.175.235-1.806.353-4.824.353-9.062v-59.652h11.883v54.123c0 8.982-.559 15.364-1.676 19.15-1.118 3.783-3.05 6.914-5.795 9.384a25.605 25.605 0 01-8.883 5.174c-3.334 1.141-7.08 1.71-11.237 1.71-4.118 0-7.844-.569-11.177-1.71a26.225 26.225 0 01-8.943-5.174c-2.706-2.433-4.627-5.58-5.765-9.442-1.137-3.866-1.706-10.227-1.706-19.092z" fill-rule="nonzero"/>
  </g>
</svg>
