<?xml version="1.0" encoding="UTF-8" standalone="no"?>
<svg
   version="1.0"
   width="608.85413"
   height="624.26935"
   viewBox="0 0 456.64077 468.20192"
   xmlns="http://www.w3.org/2000/svg"
   xmlns:svg="http://www.w3.org/2000/svg">
  <path
     d="m 201.67767,0.73795563 c -1.6,0.39999997 -2.5,1.39999997 -2.5,2.59999997 0,1.4 -0.7,1.9 -2.2,1.8 -3.9,-0.4 -9.2,2.6 -12,6.8999994 -4.1,6 -6.2,10.1 -6.3,12 0,0.9 -1.3,2.6 -2.9,3.7 -2,1.5 -2.8,2.7 -2.4,4 0.3,1.3 -0.2,2.3 -1.7,3.1 -1.5,0.8 -2,1.8 -1.7,3.1 0.4,1.3 -0.2,2.5 -1.7,3.4 -1.3,0.9 -2.8,2.6 -3.4,4 -0.6,1.3 -3.1,4.8 -5.5,7.8 -5.7,7 -9.1,17.2 -9.1,27.6 0,9.3 1.2,16 3.2,18.3 1.1,1.300005 1.2,2.100005 0.4,3.100005 -0.7,0.8 -0.7,1.8 -0.2,2.7 0.6,0.8 1,2.7 1,4.1 0,3.2 2.7,9.9 3.9,9.9 1.2,0 3.4,5.7 6.1,15.7 2.2,8.3 5,12 8.3,10.7 3.2,-1.2 6.6,1.4 8,6.1 0.9,3.1 2.1,5 3.7,5.8 1.5,0.8 2.7,2.4 3,4.2 0.4,2.4 1,3 3,2.9 1.4,-0.1 3.2,-0.4 4.1,-0.8 2.2,-1 4.7,3.7 3,5.7 -0.6,0.8 -0.9,2.2 -0.5,3.1 0.4,1.2 0.2,1.5 -0.9,1.1 -2.1,-0.9 -3.7,4.3 -2.8,9.2 1,5.1 1.8,6.3 4.3,6.3 1.5,0 1.9,0.5 1.5,2 -0.4,1.5 0,2 1.4,2 1.1,0 3.4,0.7 5,1.6 2.8,1.4 3.3,1.4 7.4,-0.6 2.7,-1.3 5.9,-2 8,-1.9 2.7,0.3 3.9,-0.2 5.1,-1.9 0.8,-1.2 2,-2.2 2.5,-2.2 1.6,0 4.8,-4.2 4.9,-6.3 0,-1.1 1.2,-2.2 3,-2.8 3.5,-1.3 4.1,-4.4 0.9,-5.4 -1.6,-0.5 -2.7,0.1 -4.8,2.6 -2.2,2.5 -3.2,3.1 -5.2,2.6 -2,-0.5 -2.4,-1.3 -2.6,-4.8 -0.1,-2.6 0.5,-4.8 1.3,-5.7 0.8,-0.8 1.8,-2.7 2.1,-4.3 0.3,-1.6 1,-2.9 1.5,-2.9 0.6,0 0.7,1.1 0.4,2.5 -0.5,2 -0.3,2.5 1.3,2.5 2.3,0 9.4,-7.9 8.7,-9.7 -0.8,-1.9 0.4,-4.3 2,-4.3 0.7,0 1.9,-1 2.5,-2.3 0.6,-1.2 2.3,-3.4 3.6,-4.9 2.3,-2.4 2.4,-3 1.5,-5.8 -1.3,-3.7 -0.5,-9 1.4,-9 1.8,0 1.8,-1 -0.1,-2.4 -1.2,-0.9 -1.3,-2 -0.4,-6.6 1,-5.6 3.1,-25.700005 4.8,-47.400005 0.8,-9.6 0.7,-12.3 -0.4,-14 -0.8,-1.2 -1.9,-5.9 -2.5,-10.6 -0.6,-4.7 -2.1,-11 -3.2,-14 -1.1,-3 -2.6,-7.5 -3.4,-9.8 -1.9,-6.2 -7.3,-15.1999994 -9,-15.1999994 -0.8,0 -4.2,-1.3 -7.7,-2.9 -8.5,-3.9 -12.6,-5.1 -17.5,-5.1 -2.2,0 -4.4,-0.5 -4.7,-0.99999997 -0.7,-1.1 -1.8,-1.1 -5.5,-0.1 z m 17,171.60000437 c 0.9,0.5 -0.1,7.5 -1,7.5 -0.4,0 -1,-0.9 -1.3,-2 -0.4,-1.5 -1.4,-2 -3.6,-2 -1.7,0 -3.1,-0.5 -3.1,-1 0,-0.6 -0.7,-1 -1.5,-1 -1.6,0 -2,-1.2 -0.7,-2.4 0.6,-0.7 9.8,0 11.2,0.9 z m 5,8.3 c 0,0.5 -0.7,1.7 -1.6,2.8 -0.8,1 -1.4,1.4 -1.1,0.9 0.2,-0.6 0.7,-1.8 1,-2.8 0.7,-1.7 1.7,-2.3 1.7,-0.9 z m 91.7,-163.100005 c -0.4,0.3 -0.7,1.5 -0.7,2.5 0,1 -0.7,1.8 -1.7,1.8 -3.6,0.1 -6.3,2.7 -14.8,14 -4.8,6.3 -9.8,12.7 -11.1,14.1 -1.3,1.4 -2.2,2.8 -1.9,3 0.2,0.3 -0.7,3.6 -2.1,7.5 -1.5,3.8 -2.9,8.5 -3.3,10.4 -1,4.5 -5.9,18.6 -7.8,22.3 -4.7,9.100005 -7.4,34.900005 -5.2,48.600005 0.6,3.6 1.2,8.3 1.4,10.5 0.2,2.1 1,4.6 1.8,5.5 0.8,0.9 2,4 2.7,6.9 0.7,3.3 1.9,5.6 3.1,6.3 1.1,0.5 2.7,2.8 3.5,4.9 1.7,4.2 2.7,4.8 14,7.3 5.6,1.3 6.3,1.2 8.4,-0.5 1.2,-1 2.8,-1.8 3.6,-1.8 2.2,0 12.9,-5.8 15,-8.1 1,-1.1 3.2,-2.8 4.7,-3.6 4.9,-2.5 23.6,-17.6 24.3,-19.5 0.3,-1 1.2,-1.8 2,-1.8 0.8,0 1.4,-0.7 1.4,-1.5 0,-0.8 0.5,-1.5 1,-1.5 0.6,0 1,-0.7 1,-1.5 0,-0.8 0.9,-1.9 2,-2.5 1.5,-0.8 1.9,-1.7 1.5,-3.1 -0.5,-1.4 0,-2.2 1.7,-3 3.3,-1.4 6,-9.1 6,-16.7 0,-1.2 0.4,-2.2 0.9,-2.2 1.2,0 1.1,-3.7 -0.2,-6.1 -0.8,-1.5 -0.7,-2.6 0.4,-4.2 0.8,-1.3 1.4,-4.7 1.4,-8.000005 0,-4.6 -0.4,-6 -1.8,-6.8 -2.3,-1.2 -2.5,-5.7 -0.3,-6.6 1.2,-0.4 1.1,-0.8 -0.8,-1.7 -1.5,-0.8 -2.2,-1.9 -2,-3.3 0.2,-1.2 -0.4,-2.3 -1.5,-2.7 -1.5,-0.6 -1.5,-0.8 0.7,-1.9 3.5,-1.8 3.5,-3.3 0,-4.7 -2.8,-1.2 -3.3,-1.1 -5.5,1 -2.9,2.7 -3.2,1.5 -1,-3.7 0.8,-1.9 1.5,-4.4 1.5,-5.4 0,-1.1 0.5,-1.9 1,-1.9 0.6,0 1.9,-1.4 3,-3.2 1.7,-2.8 1.7,-3.4 0.5,-4.8 -2,-2.2 -5.5,-10.1 -5.5,-12.5 0,-2.4 -5.6,-9.5 -7.5,-9.5 -0.7,0 -2.7,-1.8 -4.4,-3.9 -2.3,-2.8 -3.7,-3.8 -5.1,-3.4 -1.3,0.3 -2.9,-0.5 -4.8,-2.7 -2.5,-2.7 -3.3,-3 -5,-2.1 -1.3,0.7 -3.8,0.7 -7.8,0.1 -3.3,-0.6 -5.9,-1 -6,-1 0,0 -0.4,0.3 -0.7,0.7 z m -15.2,33.3 c 0.3,0.5 0.1,1 -0.4,1 -0.6,0 -1.1,-0.5 -1.1,-1 0,-0.6 0.2,-1 0.4,-1 0.3,0 0.8,0.4 1.1,1 z m 5.3,6 c -0.7,1 -1.4,1.8 -1.5,1.6 -0.6,-0.6 0.9,-3.6 1.8,-3.6 0.5,0 0.4,0.9 -0.3,2 z m -37.6,25.8 c -2.4,1.9 -2.1,3.2 0.8,3.2 1.6,0 5,-2.9 5,-4.3 0,-1.3 -3.5,-0.6 -5.8,1.1 z m 1.3,6.2 c -0.3,0.5 -0.1,1 0.4,1 0.6,0 1.1,-0.5 1.1,-1 0,-0.6 -0.2,-1 -0.4,-1 -0.3,0 -0.8,0.4 -1.1,1 z m -161.5,26.900005 c 0,0.5 0.7,1.2 1.6,1.5 1.4,0.5 1.4,0.9 0.3,2.2 -1.1,1.4 -1,1.9 1.1,3.6 1.9,1.5 2.2,2.3 1.3,3.6 -1.4,2.4 -6.4,2.8 -7.9,0.7 -1.2,-1.5 -1.4,-1.5 -3.8,0 -1.4,1 -2.6,2.4 -2.6,3.1 0,0.8 -0.6,1.4 -1.3,1.4 -0.7,0 -2.9,1.7 -4.9,3.7 -3.7,3.9 -4.3,6.8 -2.2,11.7 0.6,1.5 -0.1,2.7 -3.1,5.3 -3.9,3.4 -3.9,3.4 -1.5,4.1 2.5,0.6 2.5,0.6 -0.5,1.3 -2.6,0.6 -2.3,0.7 1.8,0.8 5.6,0.1 6.1,1.7 1.7,4.9 -3.3,2.4 -3.9,4.2 -1.5,4.2 0.8,0 1.5,0.6 1.5,1.3 0,0.7 1.2,1.2 2.8,1.2 4.5,0 3.8,1.8 -2.3,5.4 -5.5,3.2 -5.7,3.4 -3.6,4.5 1.2,0.7 1.8,1.5 1.5,1.9 -0.4,0.4 -0.2,0.7 0.4,0.7 0.7,0 1.2,-0.5 1.2,-1 0,-0.6 0.5,-1 1,-1 0.6,0 1,0.7 1,1.5 0,0.8 0.6,1.5 1.3,1.5 0.8,0 0.7,0.3 -0.3,1 -0.9,0.6 -1.9,0.5 -2.9,-0.3 -0.9,-0.7 -0.7,0 0.5,1.8 1.8,2.8 1.8,2.9 0,2.2 -1.3,-0.5 -1.7,-0.3 -1.3,0.7 0.3,0.8 -0.2,1.6 -1.4,1.9 -2.3,0.6 -5.5,-3 -6.4,-7.3 -0.4,-1.7 -1.1,-3 -1.6,-3 -0.6,0 -0.7,0.4 -0.4,1 0.3,0.5 0.1,1 -0.4,1 -2,0 -1.1,3.1 1.9,6.3 1.6,1.8 3,3.5 3,3.9 0,1.5 -2.1,1.8 -4.1,0.7 -1.7,-0.9 -2.3,-0.8 -3,0.2 -0.8,1.2 -1,1.2 -1.8,0 -0.6,-0.9 -1.4,-1.1 -2.6,-0.4 -1.6,0.9 -1.4,1.2 1.4,2.9 1.8,1.1 3.1,2.7 3.1,3.8 0,1.6 0.3,1.7 1.2,0.8 0.7,-0.7 1.9,-1.2 2.7,-1.1 1.1,0 1.2,0.2 0.3,0.6 -0.6,0.2 -1,0.9 -0.6,1.4 0.3,0.5 -0.2,0.9 -1.2,0.9 -1.2,0 -1.5,0.6 -1.1,2.1 0.3,1.3 0.1,1.9 -0.6,1.6 -0.7,-0.2 -1.1,-1.2 -1.1,-2.1 0.1,-0.9 -0.4,-1.6 -1,-1.6 -0.8,0 -1.1,1.3 -0.8,3.6 0.3,2.6 0.7,3.2 1.3,2.3 0.8,-1.1 1.5,-0.7 3.4,1.6 1.4,1.6 2.3,3.5 2.1,4.2 -0.3,0.6 0.2,1.7 1,2.4 1.2,1 1.7,0.9 2.7,-0.1 0.8,-0.9 0.8,-1.1 0.1,-0.7 -1.6,0.9 -2.2,-1.2 -1.3,-4.8 l 0.7,-3 0.1,3.1 c 0,1.8 0.7,3.4 1.6,3.8 1.8,0.7 2,4.6 0.3,4.7 -0.7,0.1 -2.1,0.1 -3,0 -1.4,-0.2 -1.8,0.5 -1.8,2.9 0,2.1 -0.4,3 -1.2,2.7 -0.7,-0.2 -1.4,-0.9 -1.4,-1.5 -0.1,-0.7 -0.2,-1.7 -0.3,-2.2 -0.2,-1.6 -2.1,-1.2 -2.1,0.4 0,0.9 -0.7,1.3 -2,1.1 -3.7,-0.7 -3.1,1.6 1.9,6.5 2.8,2.9 5.2,4.6 5.6,4 1.4,-2.3 2.4,0.3 1.8,5.1 -0.5,4.2 -0.3,4.9 1,4.4 0.8,-0.4 1.8,-0.2 2.2,0.4 0.3,0.7 -0.2,1.1 -1.4,1.1 -1.1,0 -2.3,0.4 -2.6,1 -0.9,1.4 2.9,1.2 4.3,-0.2 2,-2 4.4,-1.8 6.4,0.8 2.3,2.9 7.2,3.3 8.4,0.6 0.4,-0.9 0.6,-2 0.6,-2.5 -0.1,-0.4 0.3,-0.7 0.8,-0.7 1.5,0 1.2,-1.9 -0.6,-3.8 -1.5,-1.5 -1.6,-1.4 -0.9,0.7 0.6,2 0.4,2.3 -1,1.8 -0.9,-0.4 -2.1,-0.7 -2.7,-0.7 -0.5,0 -0.8,-1 -0.6,-2.3 0.2,-1.4 0.9,-2.2 2,-2.1 1,0.1 1.7,-0.1 1.6,-0.5 -0.2,-2.2 0.3,-4.1 1.1,-3.6 0.5,0.3 1.3,0 1.6,-0.6 0.4,-0.5 1.4,-0.8 2.2,-0.5 0.9,0.4 1.3,0.1 1,-0.6 -0.2,-0.7 -1.2,-1.2 -2.1,-1.2 -1.3,0.2 -1.4,-0.1 -0.6,-1.1 0.8,-0.9 0.8,-1.5 0,-2 -0.5,-0.3 -1,-0.3 -1,0.1 0,0.3 -0.6,0.1 -1.4,-0.5 -1,-0.9 -1.6,-0.9 -2.1,-0.1 -0.5,0.8 -1.1,0.8 -2.1,-0.1 -0.7,-0.6 -2.1,-0.9 -2.9,-0.5 -1.3,0.5 -1.4,0.2 -0.4,-1.6 0.9,-1.7 0.9,-2.3 0,-2.6 -1.1,-0.4 -1.6,-4.2 -0.5,-4.2 0.4,0 2.2,1.3 4.1,3 3.5,3.1 6.8,3.9 7.6,1.7 0.3,-0.6 0.3,0.3 0,2 -0.3,2.1 -0.1,3.3 0.6,3.3 0.6,0 1,0.5 0.8,1.2 -0.1,0.6 0.5,1.3 1.4,1.5 1.3,0.3 1.6,-0.5 1.7,-3.9 0,-6.1 0,-6.2 1.7,-4.8 0.9,0.7 1.5,0.8 1.5,0.2 0,-0.5 1.8,-1.2 4.1,-1.4 3.7,-0.3 4.1,-0.1 5.6,3 1.2,2.5 1.8,3 2.5,2 0.6,-0.8 0.7,0 0.3,2.4 -0.7,4.3 0.9,6.8 3.8,6 1.6,-0.4 1.8,-0.1 1.3,1.6 -1,2.9 1.2,3.8 3.5,1.3 2,-2.2 2.6,-5.1 0.9,-5.1 -1.5,0 -1.2,-3.6 0.5,-5 0.8,-0.6 1.4,-1.9 1.3,-2.8 -0.3,-3.7 0.3,-5.2 1.9,-5.2 1.4,0 1.4,-0.3 0.5,-1.2 -1,-1 -1.5,-1 -2.2,0.2 -0.5,0.8 -1.2,1.1 -1.6,0.7 -1.1,-1 1.6,-3.7 3.7,-3.7 1.1,0 1.9,0.7 2,1.7 0,1.4 0.2,1.3 0.9,-0.5 0.6,-1.4 0.6,-3.2 -0.1,-4.9 -1.2,-3.3 0.2,-5.3 2.5,-3.4 1.8,1.5 3.7,0.6 3,-1.3 -0.3,-0.8 -0.1,-1.7 0.5,-2.1 0.6,-0.3 1.1,0.1 1.1,0.9 0,1.6 2.6,4.6 4.1,4.6 0.5,0 0.9,-2.5 0.9,-5.6 0,-4.1 -0.5,-6.3 -2,-8.1 -2.7,-3.4 -2.5,-4.5 0.5,-3.7 1.9,0.5 2.5,0.2 2.5,-1 0,-2 -3.2,-3.5 -3.8,-1.8 -0.2,0.7 -1,1.2 -1.8,1.2 -1,0 -1.3,0.7 -0.8,2.5 0.4,1.6 0.2,2.5 -0.6,2.5 -0.6,0 -0.9,0.3 -0.6,0.8 0.2,0.4 -0.7,1.2 -2,1.9 -1.9,0.9 -2.4,0.8 -2.4,-0.3 0,-0.8 0.4,-1.4 0.9,-1.4 0.5,0 1.1,-1.5 1.5,-3.3 0.6,-2.7 0.2,-3.6 -1.9,-5.5 -1.5,-1.2 -3,-2 -3.5,-1.7 -1,0.6 -1.4,-0.6 -3,-9 -0.7,-3.3 -1.5,-6.7 -1.8,-7.5 -0.3,-0.8 -0.7,-2.5 -0.8,-3.7 -0.2,-1.3 -1.7,-5.1 -3.4,-8.5 -1.7,-3.5 -3.7,-7.4 -4.4,-8.8 -0.9,-1.9 -1,-3.1 -0.2,-4.3 0.9,-1.5 0.7,-2.1 -0.9,-3.3 -1.1,-0.9 -1.9,-1.8 -1.9,-2.2 0.1,-0.4 0.4,-1.9 0.8,-3.5 0.7,-3 -0.9,-3.7 -2.8,-1.2 -1,1.4 -1.6,1.1 -4.5,-1.9 -2.8,-2.9 -3,-3.4 -1.2,-2.9 1.2,0.3 2.1,0.1 2.1,-0.6 0,-0.6 -0.5,-1.1 -1.1,-1.1 -0.6,0 -0.9,-0.9 -0.6,-2 0.3,-1.3 -0.3,-2.4 -1.9,-3.5 -2.7,-1.7 -3.2,-3.5 -0.9,-3.5 2.6,0 1.6,-1.8 -1.5,-2.9 -1.6,-0.5 -3,-0.6 -3,-0.2 z m 10,0 c 0,0.5 0.5,1.3 1,1.6 0.6,0.3 1,0.2 1,-0.4 0,-0.5 -0.4,-1.3 -1,-1.6 -0.5,-0.3 -1,-0.2 -1,0.4 z m 4,2 c 0,0.4 1.1,2.5 2.5,4.5 2.8,4.1 3.1,5.6 1.4,7.3 -0.8,0.8 -0.8,1.6 0,3 1,1.7 1,1.7 1.1,-0.3 0,-1.2 0.7,-2.7 1.5,-3.4 2.2,-1.8 1.9,-3.7 -1.2,-8.1 -2.6,-3.5 -5.3,-5.1 -5.3,-3 z"
     id="path1" />
  <path
     d="m 116.87767,121.93796 c 0.5,1.4 6.8,5.3 6.8,4.2 0,-0.7 -2.6,-2.8 -5.4,-4.4 -1.4,-0.8 -1.7,-0.8 -1.4,0.2 z m -0.2,4.3 c 0,0.2 0.7,0.9 1.5,1.6 1.2,1 1.5,1 1.5,-0.4 0,-0.9 -0.7,-1.6 -1.5,-1.6 -0.8,0 -1.5,0.2 -1.5,0.4 z m 12.1,6.3 c 0,2.5 0.1,2.6 0.9,0.8 1.2,-2.7 1.2,-3.5 0,-3.5 -0.5,0 -1,1.2 -0.9,2.7 z m 129.9,2.3 c 0,0.5 0.5,1 1,1 0.6,0 1,-0.5 1,-1 0,-0.6 -0.4,-1 -1,-1 -0.5,0 -1,0.4 -1,1 z m -127,2 c 0,0.5 0.5,1 1.1,1 0.5,0 0.7,-0.5 0.4,-1 -0.3,-0.6 -0.8,-1 -1.1,-1 -0.2,0 -0.4,0.4 -0.4,1 z m -48.2,2.7 c 0.7,0.3 1.6,0.2 1.9,-0.1 0.4,-0.3 -0.2,-0.6 -1.3,-0.5 -1.1,0 -1.4,0.3 -0.6,0.6 z m 46.2,2.3 c 0,0.5 0.5,1 1.1,1 0.5,0 0.7,-0.5 0.4,-1 -0.3,-0.6 -0.8,-1 -1.1,-1 -0.2,0 -0.4,0.4 -0.4,1 z m 3,0 c 0,0.5 0.5,1 1.1,1 0.5,0 0.7,-0.5 0.4,-1 -0.3,-0.6 -0.8,-1 -1.1,-1 -0.2,0 -0.4,0.4 -0.4,1 z m 120.7,1.7 c -1,0.9 -0.9,2.3 0.2,2.3 0.5,0 1.1,-0.7 1.5,-1.5 0.5,-1.5 -0.5,-2 -1.7,-0.8 z m -118.7,3.6 c 0,0.7 0.7,2.2 1.6,3.3 1.4,1.7 1.5,1.7 1,0.1 -0.3,-1 -0.6,-2.5 -0.6,-3.3 0,-0.8 -0.4,-1.4 -1,-1.4 -0.5,0 -1,0.6 -1,1.3 z m -91,2.3 c 0,0.8 0.5,1.2 1,0.9 0.6,-0.4 0.8,-1.1 0.5,-1.6 -0.9,-1.4 -1.5,-1.1 -1.5,0.7 z m 84,-0.7 c 0,0.6 0.5,1.3 1,1.6 0.6,0.3 1,-0.1 1,-0.9 0,-0.9 -0.4,-1.6 -1,-1.6 -0.5,0 -1,0.4 -1,0.9 z m -45,1.6 c -1,1.2 -1,1.5 0.4,1.5 0.9,0 1.6,-0.7 1.6,-1.5 0,-0.8 -0.2,-1.5 -0.4,-1.5 -0.2,0 -0.9,0.7 -1.6,1.5 z m 49,2 c -1.8,2.1 -0.3,3.2 1.6,1.3 1,-0.9 1.2,-1.8 0.6,-2.2 -0.5,-0.3 -1.5,0.1 -2.2,0.9 z m -75.9,4.1 c 0,1.1 0.3,1.4 0.6,0.6 0.3,-0.7 0.2,-1.6 -0.1,-1.9 -0.3,-0.4 -0.6,0.2 -0.5,1.3 z m 22.6,1.8 c -0.6,1.6 0.2,2.8 1.4,2 1.2,-0.7 1.1,-3.4 0,-3.4 -0.5,0 -1.1,0.6 -1.4,1.4 z m -39.7,0.6 c -1.3,0.8 -1.2,1 0.3,1 0.9,0 1.7,-0.5 1.7,-1 0,-1.2 -0.1,-1.2 -2,0 z m 95.6,-0.1 c -0.3,0.5 0.5,1.6 1.9,2.5 2.1,1.4 2.5,1.4 2.5,0.2 0,-1.8 -3.6,-4 -4.4,-2.7 z m 206.9,0.1 c -0.3,0.5 -0.1,1 0.4,1 0.6,0 1.1,-0.5 1.1,-1 0,-0.6 -0.2,-1 -0.4,-1 -0.3,0 -0.8,0.4 -1.1,1 z m -260.7,4.7 c -1,1.1 -1.8,2.4 -1.8,3 0,0.6 -0.7,1.3 -1.5,1.7 -1.6,0.6 -2.1,2.6 -0.6,2.6 2.1,0 6.2,-4.9 5.9,-7.1 -0.3,-2.1 -0.3,-2.1 -2,-0.2 z m 66.2,5.5 c 0,0.7 0.4,1.9 0.8,2.6 1.1,1.7 4.5,0.4 3.8,-1.5 -0.3,-0.8 -0.6,-1.7 -0.6,-1.9 0,-0.2 -0.9,-0.4 -2,-0.4 -1.1,0 -2,0.6 -2,1.2 z m -64.5,0.8 c 0.3,0.5 1,1 1.6,1 0.5,0 0.9,-0.5 0.9,-1 0,-0.6 -0.7,-1 -1.6,-1 -0.8,0 -1.2,0.4 -0.9,1 z m 59,2 c -0.3,0.5 0.1,1 0.9,1 0.9,0 1.6,-0.5 1.6,-1 0,-0.6 -0.4,-1 -0.9,-1 -0.6,0 -1.3,0.4 -1.6,1 z m -71.5,1 c 0,0.5 0.5,1 1,1 0.6,0 1,-0.5 1,-1 0,-0.6 -0.4,-1 -1,-1 -0.5,0 -1,0.4 -1,1 z m 7,0 c 0,0.5 0.5,1 1,1 0.6,0 1,-0.5 1,-1 0,-0.6 -0.4,-1 -1,-1 -0.5,0 -1,0.4 -1,1 z m 324,0.1 c -2.5,0.5 -5.2,0.6 -6.1,0.4 -0.9,-0.3 -2.8,0 -4.3,0.6 -1.9,0.9 -2.9,0.9 -4,0 -1.1,-0.9 -1.8,-0.6 -3.5,1.5 -1.2,1.5 -2.1,3 -2.1,3.4 0,0.4 -1.3,1 -2.8,1.3 -2,0.4 -4.7,2.8 -8.5,7.4 -3,3.7 -6.5,7.8 -7.6,9.1 -1.2,1.2 -2.1,3 -2.1,3.8 0,1.1 -0.6,1.3 -2.1,0.9 -1.4,-0.5 -1.9,-0.3 -1.5,0.3 0.5,0.8 -4.2,3.2 -6.3,3.2 -1.3,0 -3.2,-6.9 -2.5,-9.4 0.4,-1.9 0.2,-2.6 -0.9,-2.6 -0.8,0 -1.8,0.7 -2.1,1.6 -0.4,1 -1.2,1.4 -2.2,1 -1.2,-0.4 -1.4,-0.1 -0.9,1.4 0.5,1.5 0,2.3 -1.9,3.1 -1.4,0.7 -2.8,2 -3.1,3.1 -0.4,1.1 -1.6,1.8 -3.1,1.8 -1.5,0 -2.4,0.6 -2.4,1.5 0,0.8 -0.7,1.5 -1.5,1.5 -2,0 -1.9,-1 0.5,-4 2.5,-3.2 2.5,-4.4 0,-3.7 -2.3,0.6 -2.7,-1.2 -0.7,-3.2 1,-1.1 1,-1.4 0,-1.8 -1.8,-0.6 -1.6,-2.3 0.2,-2.3 0.8,0 1.5,-0.7 1.5,-1.5 0,-0.8 -0.5,-1.5 -1.1,-1.5 -1.5,0 -6.9,6.2 -6.3,7.2 0.3,0.4 0,0.8 -0.5,0.8 -0.6,0 -1.1,0.6 -1.1,1.3 0,2.3 -7.6,5.1 -13,4.8 -2.7,-0.1 -5.1,0.3 -5.5,0.9 -1.1,1.7 0.3,2.4 2,1 1.2,-1 1.6,-0.9 2.1,0.4 0.8,2 2.7,2 6.4,0.1 1.7,-0.9 3,-1.1 3,-0.6 0,1.6 -2.4,2.9 -6.5,3.6 -5.2,0.8 -9.5,2.5 -9.5,3.6 0,1.3 2.3,1.1 6.3,-0.6 4.9,-2 8,-1.9 10.2,0.5 1.6,1.7 1.6,2 0.2,2 -0.9,0 -1.9,-0.5 -2.3,-1.1 -0.5,-0.8 -0.9,-0.8 -1.4,0.1 -0.4,0.6 -3.1,1.3 -5.9,1.4 -3,0.1 -5.8,0.9 -6.7,1.7 -0.9,1 -2.6,1.4 -4.4,1.1 -3,-0.4 -3.8,-1.6 -2,-2.7 1.5,-0.9 0.2,-2.5 -2.1,-2.5 -1.4,0 -1.9,0.7 -1.9,2.5 0,1.3 -0.8,2.8 -1.7,3.4 -1.5,0.8 -1.6,1.2 -0.5,2.3 0.9,0.9 1.9,1 4,0.2 1.5,-0.6 3.7,-0.7 4.7,-0.4 1.2,0.5 2.6,0.2 3.6,-0.6 1.4,-1.2 2,-1.2 4.3,0 3,1.5 2.8,1.8 -2.6,3.5 -6,2 -4,4.6 2.5,3.5 3.2,-0.6 3.2,-0.6 1,1 -1.3,1 -2.3,2.1 -2.3,2.7 0,1.5 8.6,1.1 10,-0.6 0.7,-0.8 2.2,-1.5 3.4,-1.5 2,0.1 1.9,0.2 -0.7,2.6 -1.6,1.4 -3.6,2.2 -4.5,2 -2.7,-0.9 -3.8,0.6 -3.8,4.6 0,3 0.4,3.8 1.8,3.8 1,0 1.8,-0.7 1.8,-1.5 0,-0.8 0.6,-1.5 1.3,-1.5 0.8,0 1.2,1.7 1.2,5.5 -0.1,4.9 0.1,5.4 1.7,4.9 1.2,-0.3 1.8,0 1.8,1 0,0.9 0.7,1.6 1.6,1.6 1.3,0 1.1,0.6 -0.7,3.1 l -2.2,3.1 2.2,-0.7 c 1.8,-0.5 2.1,-0.2 2.1,2.2 0,1.6 -0.5,3.4 -1.1,4 -1,1 -2,9.3 -1.2,9.3 0.2,0 1.7,-0.7 3.3,-1.5 1.7,-0.9 3,-1.1 3,-0.6 0,1.1 -2.9,3.5 -4.4,3.6 -2.2,0.2 -4.6,1.7 -4,2.6 0.3,0.5 1,0.7 1.5,0.3 0.6,-0.3 1,0 0.8,0.7 -0.3,2.7 0.1,3.8 1.9,4.8 1.4,0.8 1.8,0.5 1.9,-1.1 0.3,-2.8 1,-3.3 2.7,-1.9 1.1,0.9 1.3,2.2 0.9,4.4 -0.6,3 -0.5,3.1 1.3,1.7 1,-0.8 2.2,-1.9 2.6,-2.5 0.4,-0.5 1,-0.6 1.4,-0.3 0.3,0.4 -0.1,1.4 -1,2.3 -0.9,0.9 -1.6,2.3 -1.6,3.1 0,2.3 2.6,1.6 4.4,-1.1 1.5,-2.2 4.5,-3.8 3.2,-1.6 -0.7,1 1.9,2.3 2.8,1.4 1.4,-1.4 0.4,-5.4 -1.9,-7.9 -1.4,-1.5 -2.5,-2.3 -2.5,-1.8 0,0.5 -0.4,1.5 -0.9,2.2 -0.6,1.1 -1.3,0.9 -3.2,-1 -2.6,-2.7 -3.9,-6.6 -1.8,-5.2 2.3,1.4 10.3,2.2 11.6,1.2 0.7,-0.5 1.4,-0.5 1.7,0.1 0.4,0.6 1.4,0.7 2.3,0.4 1.1,-0.5 1.4,-0.3 0.9,0.6 -0.5,0.8 -1.8,1 -3.3,0.6 -2.2,-0.5 -2.4,-0.3 -2.1,2.2 0.2,2.3 0.8,2.8 3.1,2.8 2.9,0 4.7,1.8 4.7,4.9 0,1.5 -0.3,1.6 -1.5,0.6 -1.2,-1 -1.7,-0.7 -2.6,1.4 -1,2 -1.5,2.3 -2.6,1.5 -0.9,-0.8 -1.3,-0.8 -1.3,-0.1 0,0.6 -0.6,0.9 -1.4,0.6 -0.9,-0.4 -1.8,0.6 -2.7,3 -0.7,2 -1.7,3.6 -2.1,3.6 -0.5,0 -0.4,0.9 0.2,2 0.6,1 0.9,2.5 0.8,3.2 -0.2,0.7 0.7,1.4 1.9,1.6 1.2,0.2 2.7,1 3.3,1.8 1.7,1.9 3,1.8 3,-0.4 0,-1.4 0.4,-1.2 2,0.8 1.9,2.5 1.9,2.5 -0.2,4.7 -2.1,2.2 -2.1,2.3 -0.3,4.3 1,1.1 2.6,2 3.4,1.9 0.9,-0.1 3.1,0.2 4.9,0.6 3.1,0.7 3.2,0.9 3.2,5.6 0,3.2 0.4,4.9 1.3,5 0.6,0.1 3,0.2 5.2,0.3 3.7,0.1 3.9,0.3 4.1,3.3 0.1,1.8 -0.2,3 -0.7,2.7 -0.5,-0.3 -0.9,0.2 -0.9,1 0,1.9 2,3.1 4.6,2.8 1.5,-0.2 2.3,0.4 2.7,1.7 0.4,1.6 1.3,2.1 4.1,2.1 2,0 3.6,-0.5 3.6,-1 0,-0.6 0.8,-1 1.8,-1.1 1.3,0 1.2,-0.2 -0.5,-0.9 -1.5,-0.6 -2.3,-1.8 -2.3,-3.4 0,-1.4 -0.9,-4.1 -2.1,-6 l -2.1,-3.6 h 2.1 c 2.4,0 2.7,-1 0.9,-2.9 -0.7,-0.6 -1.3,-1.5 -1.3,-1.9 0,-2.4 -5,-8.4 -8.4,-10.2 -2.3,-1.1 -4.1,-2.5 -4.1,-3 0,-0.6 -0.5,-1 -1.1,-1 -0.6,0 -0.8,0.8 -0.4,1.9 0.3,1.1 0,2.1 -0.9,2.4 -2.1,0.8 -5.6,-2.1 -5.6,-4.6 0,-1.2 -0.9,-3.6 -2,-5.2 -2.7,-4 -2.5,-5 0.9,-5.2 1.9,-0.1 3.6,0.6 5.1,2.3 1.3,1.3 2.9,2.4 3.7,2.4 0.7,0 1.3,0.6 1.3,1.4 0,2.1 5.6,4.1 7.5,2.6 1.5,-1.3 3.5,-0.6 3.5,1.3 0,0.7 1.6,1.7 3.5,2.3 3.7,1.2 4.8,0.1 1.6,-1.6 -1.1,-0.5 -2.1,-2.2 -2.3,-3.7 -0.2,-2 -0.8,-2.8 -2,-2.7 -1,0.1 -1.8,0 -1.8,-0.3 0,-1.2 3.2,-6.4 3.7,-5.9 0.4,0.3 1.1,0.2 1.7,-0.2 0.6,-0.5 2.2,-0.6 3.6,-0.2 2.3,0.6 2.2,0.7 -1.2,1.4 -2.4,0.4 -3.8,1.3 -3.8,2.2 0,1.9 2.8,3 4.3,1.5 1.8,-1.8 2.4,-1.3 3.1,2.4 0.7,3.4 2.6,4.9 2.6,2 0,-0.8 0.4,-1.5 0.9,-1.5 0.5,0 0.8,-2 0.7,-4.4 -0.1,-3 -0.5,-4.2 -1.4,-3.9 -0.8,0.4 -1,0 -0.6,-1.1 0.3,-0.9 1.2,-1.6 2,-1.6 1.7,0 1.8,-1.2 0.2,-2.8 -0.9,-0.9 -0.6,-1.2 1.4,-1.2 1.5,0 3,-0.5 3.3,-1 1,-1.6 2.8,-1.2 2.1,0.5 -0.6,1.6 1,2 3.8,0.9 1.2,-0.5 1.3,-1.1 0.5,-2.7 -0.9,-1.9 -0.8,-1.9 1.1,0.2 1.2,1.4 1.9,3.3 1.7,4.3 -0.3,1.1 0.2,2.2 1.4,2.8 1.1,0.6 1.6,1.7 1.3,2.8 -0.5,1.5 -0.4,1.5 0.6,-0.1 0.9,-1.5 0.8,-2.2 -0.6,-3.8 -1.7,-1.8 -1.6,-1.9 1.6,-1.9 3.4,0 3.5,-0.4 1.5,-5.3 -0.5,-1.3 -0.2,-1.7 1.3,-1.7 1.2,0 2.4,0.4 2.7,1 0.8,1.3 4.5,1.3 4.5,-0.1 0,-0.5 -0.4,-0.7 -1,-0.4 -0.5,0.3 -1.5,0.3 -2.1,-0.1 -0.7,-0.4 -0.1,-1.2 1.7,-2 2.6,-1.1 2.7,-1.2 0.7,-1.3 -1.8,-0.1 -2.2,-0.6 -2.1,-2.7 0.2,-2.5 0.5,-2.6 4.5,-2.1 4,0.4 4.2,0.3 3.7,-1.8 -0.4,-1.5 0,-2.4 1,-2.8 1.2,-0.5 1.6,0 1.6,2.2 0,3.6 3.7,7.3 5,5.1 0.6,-0.8 1,-2.5 1,-3.8 0,-1.2 0.5,-2.2 1.1,-2.2 0.5,0 0.7,-0.5 0.4,-1 -0.3,-0.6 0.5,-1.4 1.9,-2 3.1,-1.1 3.4,-3 0.6,-3.7 -1.1,-0.3 -2,-0.9 -2,-1.3 0,-1 4.7,-3 7.1,-3 3.8,0 7.6,-6.8 4.9,-8.5 -0.6,-0.4 -0.8,-1.1 -0.4,-1.6 0.3,-0.5 1,-0.7 1.5,-0.4 0.5,0.4 1.9,0.3 3,0 1.7,-0.6 2,-1.2 1.5,-3.8 -0.4,-1.7 -1.1,-3.4 -1.7,-3.8 -1.7,-1 0,-4.9 2.2,-4.9 1,0 1.9,-0.6 1.9,-1.4 0,-0.8 0.6,-1.7 1.3,-2 0.9,-0.5 0.9,-0.7 -0.1,-1.2 -0.7,-0.3 -1.9,-1.3 -2.8,-2.1 -0.8,-0.8 -1.8,-1.3 -2.1,-0.9 -0.3,0.3 -1.2,0.1 -2,-0.5 -0.7,-0.7 -2.6,-0.9 -4.3,-0.5 -1.7,0.3 -3,0.1 -3,-0.4 0,-1 1.6,-1.5 7.1,-2.4 2.1,-0.4 4.3,-1.4 5,-2.2 1.1,-1.3 1,-1.9 -0.8,-3.2 -1.1,-1 -2.3,-2.5 -2.6,-3.5 -0.4,-0.9 -1.3,-1.7 -2.2,-1.7 -0.8,0 -1.5,-0.4 -1.5,-0.9 0,-0.5 1.7,-0.7 3.9,-0.4 l 3.8,0.5 0.1,-6 c 0.1,-5.2 -0.2,-6.2 -1.8,-6.7 -1.1,-0.3 -2.9,-1.9 -4,-3.5 l -2,-2.9 2,-0.6 c 1.7,-0.6 1.8,-0.8 0.6,-2.1 -0.8,-0.8 -1.9,-1.4 -2.5,-1.4 -0.6,0 -1.1,-0.8 -1.1,-1.9 0,-2.6 -2.7,-4.8 -4.2,-3.3 -1.7,1.7 -2.8,1.5 -2.8,-0.6 0,-2.7 -5.6,-5.8 -16,-8.8 -5.2,-1.6 -9.6,-3.2 -9.8,-3.6 -0.5,-1 -6.3,-0.9 -12.2,0.3 z m -11.7,13.9 c -0.3,1.1 -1,2 -1.7,2 -0.6,0 0,0.9 1.3,1.9 3.6,2.8 2.3,4.3 -2.1,2.2 l -3.8,-1.7 3,-3.2 c 3.4,-3.7 4,-4 3.3,-1.2 z m 7.7,8.1 c 0,0.6 -0.4,0.7 -1,0.4 -0.5,-0.3 -1,-1.1 -1,-1.6 0,-0.6 0.5,-0.7 1,-0.4 0.6,0.3 1,1.1 1,1.6 z m -7,16.9 c 0,0.5 -0.4,1 -1,1 -0.5,0 -1,-0.5 -1,-1 0,-0.6 0.5,-1 1,-1 0.6,0 1,0.4 1,1 z m -67.8,6 c -0.3,2.4 -0.9,3 -2.9,3 -1.3,0 -3.1,-0.7 -4,-1.5 -1.4,-1.4 -1.3,-1.5 1.2,-0.9 2,0.5 2.6,0.4 2.1,-0.5 -0.4,-0.7 0.2,-1.5 1.6,-2 1.3,-0.6 2.3,-1 2.4,-1 0,-0.1 -0.1,1.2 -0.4,2.9 z m 62.8,37 c 0,0.5 -0.4,1 -1,1 -0.5,0 -1,-0.5 -1,-1 0,-0.6 0.5,-1 1,-1 0.6,0 1,0.4 1,1 z m -345,-81 c 0,0.5 0.5,1 1.1,1 0.5,0 0.7,-0.5 0.4,-1 -0.3,-0.6 -0.8,-1 -1.1,-1 -0.2,0 -0.4,0.4 -0.4,1 z m 42.3,0.5 c -1.3,0.5 -2.3,1.6 -2.3,2.3 0,0.9 0.7,1.1 2.3,0.6 2.8,-0.8 2.9,-1 2.5,-2.6 -0.2,-1 -0.9,-1 -2.5,-0.3 z m 62,3.2 c -2.6,0.5 -2.9,1.3 -1.1,3.1 0.9,0.9 1.4,0.7 2.5,-0.6 1.2,-1.6 1.4,-1.6 2.7,0 0.7,1 2,1.8 2.9,1.8 1.6,0 3,-2.6 2.1,-4.1 -0.5,-0.9 -5,-1 -9.1,-0.2 z m -4.3,2.7 c 0,0.9 0.5,1.6 1,1.6 0.6,0 1,-0.4 1,-0.9 0,-0.6 -0.4,-1.3 -1,-1.6 -0.5,-0.3 -1,0.1 -1,0.9 z m 32.2,2.5 c -1.7,1 -0.6,6 1.5,6.8 1.9,0.8 3.7,-1.2 2.7,-2.9 -0.9,-1.3 -1,-1.8 -1.3,-3.8 -0.1,-1.2 -1.1,-1.3 -2.9,-0.1 z m 103,8.5 c -2.4,4.2 -3.2,6.8 -3.2,10.6 0,3.4 0.4,4.9 1.1,4.5 0.6,-0.4 0.8,-1.3 0.5,-2 -0.5,-1.5 1.7,-3.8 2.7,-2.8 1.3,1.2 0.7,2.2 -0.9,1.6 -1.5,-0.5 -1.5,-0.3 0.1,2 1,1.6 2.2,2.4 2.9,1.9 0.6,-0.4 2.2,-0.7 3.6,-0.7 1.8,0 2.4,-0.5 2.2,-1.8 -0.2,-0.9 0.3,-1.7 0.9,-1.7 0.7,0 1,-0.3 0.6,-0.6 -1.2,-1.3 2,-3.2 4.5,-2.7 1.4,0.3 2.9,0 3.2,-0.6 0.4,-0.6 1.6,-1.1 2.6,-1.1 1.3,0 1.7,-0.5 1.4,-1.5 -0.4,-1 0,-1.5 1.2,-1.5 1.3,-0.1 0.9,-0.5 -1.2,-1.4 -1.7,-0.8 -3.4,-2.1 -3.7,-3 -0.4,-1.1 -1.6,-1.5 -3.5,-1.3 -4.6,0.5 -5.4,1.5 -4.7,5.6 0.5,3.3 0.3,4 -1.9,5.4 -3.6,2.4 -4.3,2.1 -3.8,-1.3 0.3,-2.3 0,-3 -1.2,-3 -0.9,0 -1.6,-0.6 -1.6,-1.4 0,-1.7 2.4,-3.8 3.3,-2.9 1.1,1.1 0.7,-1.1 -0.7,-3.6 -1.3,-2.3 -1.3,-2.2 -4.4,3.3 z m -241.4,-3.2 c -3.6,1.3 -3.5,2.3 0.2,2.4 2.3,0.1 3,-0.3 3,-1.7 0,-1.1 -0.1,-1.9 -0.2,-1.8 -0.2,0 -1.5,0.5 -3,1.1 z m 281.2,2.8 c 0,0.5 0.5,1 1.1,1 0.5,0 0.7,-0.5 0.4,-1 -0.3,-0.6 -0.8,-1 -1.1,-1 -0.2,0 -0.4,0.4 -0.4,1 z m -285,4.5 c 0,1.5 1.8,4 2.4,3.4 0.3,-0.3 -0.1,-1.4 -0.9,-2.5 -0.8,-1 -1.4,-1.5 -1.5,-0.9 z m 34,0.5 c 0,0.5 0.5,1 1,1 0.6,0 1,-0.5 1,-1 0,-0.6 -0.4,-1 -1,-1 -0.5,0 -1,0.4 -1,1 z m 236.5,2 c 0.3,0.5 1.1,1 1.6,1 0.6,0 0.7,-0.5 0.4,-1 -0.3,-0.6 -1.1,-1 -1.6,-1 -0.6,0 -0.7,0.4 -0.4,1 z m -265,5 c -1.6,1.8 -1.7,2.3 -0.5,3 1.1,0.7 1.7,0.3 2.3,-1.2 1.2,-3.3 0.3,-4.2 -1.8,-1.8 z m 32.5,1.5 c -1.4,1.6 -1,1.8 1.4,0.9 0.9,-0.3 1.6,-1 1.6,-1.5 0,-1.4 -1.6,-1.1 -3,0.6 z m -2.9,3.1 c 0,1.1 0.3,1.4 0.6,0.6 0.3,-0.7 0.2,-1.6 -0.1,-1.9 -0.3,-0.4 -0.6,0.2 -0.5,1.3 z m -25.3,1.1 c 0.7,0.3 1.6,0.2 1.9,-0.1 0.4,-0.3 -0.2,-0.6 -1.3,-0.5 -1.1,0 -1.4,0.3 -0.6,0.6 z m 31,0.8 c -1.1,1.1 1.4,5.6 2.8,5.1 0.8,-0.3 1.6,-0.1 1.9,0.4 0.4,0.6 -0.1,1 -1,1 -0.9,0 -1.3,0.5 -1,1.1 0.4,0.6 1.3,0.8 2.1,0.5 0.8,-0.3 1.4,-0.1 1.4,0.4 0,0.6 0.4,1 0.9,1 0.5,0 0.5,-1.4 -0.1,-3.3 -0.6,-1.7 -1.3,-3.9 -1.5,-4.7 -0.4,-1.3 -0.6,-1.2 -1.4,0.2 -1.3,2.4 -2.7,2.3 -3.1,-0.3 -0.2,-1.1 -0.6,-1.8 -1,-1.4 z m -20.3,2.5 c -0.3,0.5 0.1,1 0.9,1 0.9,0 1.6,-0.5 1.6,-1 0,-0.6 -0.4,-1 -0.9,-1 -0.6,0 -1.3,0.4 -1.6,1 z m -11.8,0.7 c -0.4,0.3 -0.7,1.1 -0.7,1.7 0,0.6 0.5,0.5 1.2,-0.2 0.6,-0.6 0.9,-1.4 0.7,-1.7 -0.3,-0.3 -0.9,-0.2 -1.2,0.2 z m 118.4,1.9 c 0,1.1 0.3,1.4 0.6,0.6 0.3,-0.7 0.2,-1.6 -0.1,-1.9 -0.3,-0.4 -0.6,0.2 -0.5,1.3 z m 2.9,0.8 c 0,0.9 0.5,1.6 1,1.6 0.6,0 1,-0.4 1,-0.9 0,-0.6 -0.4,-1.3 -1,-1.6 -0.5,-0.3 -1,0.1 -1,0.9 z m 105.7,-0.7 c -1,0.9 -0.9,4.3 0.1,4.3 1.2,0 3.2,-2.3 3.2,-3.7 0,-1.4 -2.2,-1.8 -3.3,-0.6 z m 9.4,3.3 c -1.3,1.1 -1.9,2 -1.3,2 1,0 4.2,-2.7 4.2,-3.6 0,-0.7 -0.4,-0.5 -2.9,1.6 z m -211.6,0.1 c -0.4,0.6 -0.4,1.3 -0.1,1.6 0.8,0.8 3.6,-0.5 3.6,-1.7 0,-1.3 -2.7,-1.3 -3.5,0.1 z m 31.5,4.5 c 0,1.1 2.9,3.4 3.4,2.6 0.2,-0.4 -0.4,-1.3 -1.5,-2 -1,-0.7 -1.9,-1 -1.9,-0.6 z m 16,2.9 c 0,0.8 0.4,1.5 0.9,1.5 0.5,0 1.4,-0.7 2.1,-1.5 1,-1.3 0.9,-1.5 -0.9,-1.5 -1.2,0 -2.1,0.6 -2.1,1.5 z m 9,2.1 c 0,0.8 0.5,1.2 1,0.9 0.6,-0.4 0.8,-1.1 0.5,-1.6 -0.9,-1.4 -1.5,-1.1 -1.5,0.7 z m -62,2 c 0,1.1 6.5,6.4 7.8,6.4 1.2,0 1.2,-0.3 0.2,-1.5 -0.7,-0.8 -1.8,-1.5 -2.4,-1.5 -0.6,0 -1.7,-0.9 -2.4,-2 -1.1,-1.8 -3.2,-2.8 -3.2,-1.4 z m 55.5,0.8 c -1.1,0.7 -1.6,2 -1.2,2.9 0.7,1.8 -2.6,3 -4.2,1.4 -0.8,-0.8 -1.1,-0.8 -1.1,0.1 0,0.7 0.5,1.2 1,1.2 0.6,0 0.8,1.1 0.4,2.7 -0.6,2.4 -0.5,2.6 1.7,2 1.3,-0.4 2.7,-0.7 3.2,-0.7 0.4,0 0.7,-1.4 0.7,-3.2 0,-1.7 0.7,-3.9 1.6,-4.9 1.9,-2.1 0.3,-3.3 -2.1,-1.5 z m -74.5,1.7 c 0,0.8 0.9,2 2,2.7 1.2,0.7 1.8,1.7 1.5,2.2 -0.3,0.6 -0.1,1 0.4,1 0.6,0 1.1,-1.2 1.1,-2.7 0,-1.4 -0.3,-2.3 -0.7,-2 -0.3,0.4 -1.5,0 -2.5,-1 -1.4,-1.3 -1.8,-1.3 -1.8,-0.2 z m 190.7,-0.5 c -0.3,0.4 -0.3,2 0,3.7 0.4,2.1 0.3,2.8 -0.5,2.3 -0.7,-0.4 -1.2,-1.4 -1.2,-2.2 0,-1.1 -0.8,-1.4 -2.7,-1.2 -2.2,0.2 -2.8,0.8 -2.8,2.8 -0.1,2.1 -0.5,2.5 -2.8,2.2 -2.2,-0.2 -2.7,0.1 -2.7,2 0,2 -0.1,2.1 -1.6,0.6 -1.5,-1.5 -1.8,-1.4 -3.5,0.3 -1,1 -1.9,2.7 -1.9,3.6 0,2.6 -1.6,4.8 -2.4,3.4 -1.4,-2.3 -2.8,-1.1 -2.2,1.9 0.5,2.9 -0.6,4.1 -1.9,2 -1.2,-1.9 -2.3,-1 -3.6,2.7 -0.9,2.5 -1.4,3.2 -1.7,2 -0.7,-3.5 -3.2,-1 -3.2,3.4 0,1.5 -0.5,1.8 -2.4,1.3 -2.8,-0.7 -3.6,1.3 -3.6,9.5 0,3.5 -0.6,6.1 -1.5,7.1 -1.3,1.4 -1.4,2.2 -0.4,4.3 0.9,2.1 0.9,3 -0.1,4.2 -1.8,2.2 -3.3,1.8 -2,-0.5 0.6,-1.1 0.8,-3.5 0.5,-5.4 -0.5,-2.5 -0.3,-3.5 0.9,-3.9 1.8,-0.7 2.2,-8.1 0.7,-10.6 -1,-1.5 -1.3,-0.7 -2.6,5.6 -0.7,3.6 -3.5,4.6 -3.5,1.3 0,-1.1 -0.4,-2 -1,-2 -1.6,0 -1.2,4.3 0.6,6.8 1.6,2.3 1.3,5.2 -0.6,5.2 -0.5,0 -1,-1.4 -1,-3 0,-2.1 -0.5,-3 -1.6,-3 -1.3,0 -1.5,0.7 -0.9,3.7 0.3,2.1 1.3,4.3 2.1,4.9 1.6,1.3 1.9,4.4 0.4,4.4 -0.5,0 -1,-0.5 -1,-1 0,-0.6 -0.4,-1 -1,-1 -0.5,0 -1,0.7 -1,1.5 0,1.8 -2.6,2 -3.3,0.2 -0.4,-0.9 -0.6,-0.9 -0.6,0.1 -0.2,2.4 2,5.4 3.5,4.8 1,-0.4 1.4,0.2 1.4,1.9 0,2.9 -0.7,3.1 -3.1,0.9 -2.4,-2.2 -3.9,-1 -3.9,3.2 0,2.1 0.4,3.3 1,2.9 0.6,-0.3 1,0.1 1,0.9 0,0.9 -0.7,1.6 -1.5,1.6 -0.8,0 -1.5,0.4 -1.5,1 0,0.5 -0.5,1 -1.1,1 -0.7,0 -0.8,-0.7 -0.4,-1.8 1,-2.2 1.3,-9.2 0.4,-9.2 -0.4,0 -0.9,0.6 -1.1,1.2 -0.3,0.8 -0.9,0.4 -1.7,-1 -0.6,-1.2 -1.8,-2.2 -2.6,-2.2 -1.9,0 -1.9,1.4 0,3 1.7,1.5 2,6.6 0.4,7.6 -1.1,0.7 -2.9,-1.3 -2.8,-3.1 0,-0.6 0.3,-0.4 0.6,0.2 0.7,1.9 2.3,1.6 2.3,-0.5 0,-1.9 -1.8,-4.2 -3.2,-4.2 -0.4,0 -0.8,0.7 -0.8,1.5 0,1 -0.7,1.5 -1.7,1.3 -1.3,-0.2 -1.7,0.3 -1.6,1.9 0.2,1.3 -0.2,2.3 -0.7,2.3 -0.6,0 -1,1.3 -1,3 0,1.6 -0.3,3 -0.6,3 -1,0 -3.3,-2.7 -2.8,-3.3 0.3,-0.3 -0.4,-0.8 -1.5,-1.2 -1.2,-0.3 -2.1,-1.1 -2.1,-1.6 0,-0.5 -0.7,-0.9 -1.5,-0.9 -1,0 -1.5,0.9 -1.4,2.7 0,2.4 0.2,2.5 0.8,0.9 0.5,-1.4 1,-1.6 1.5,-0.8 1.1,1.8 -0.4,3.4 -2.6,2.8 -2.9,-0.7 -5.1,1.9 -4.4,4.9 0.8,3.2 -1.5,3.4 -2.9,0.3 -1.6,-3.5 -4.2,-3.4 -5,0.1 -0.5,2.4 -1.2,3.1 -3,3.1 -1.7,0 -2.5,0.6 -2.7,2.2 -0.4,2.9 -2.4,3.4 -3.1,0.8 -0.3,-1.1 -1,-2 -1.7,-2 -1.3,0 -0.3,4.3 1.1,4.8 1.2,0.5 1.1,4.2 -0.1,4.2 -0.5,0 -1,0.9 -1,2 0,2.5 1.7,2.6 2.3,0.2 0.3,-1.4 0.6,-1.2 1.5,0.9 1,2.5 4.2,4.8 4.2,3 0,-0.5 -0.4,-1.1 -0.8,-1.3 -1.2,-0.4 -2.5,-5.8 -1.4,-5.8 1.1,0 3,5.6 3.7,11 0.5,3.9 0.4,4.2 -0.7,2.6 -0.7,-1 -2.1,-2.8 -3,-4 l -1.7,-2.1 v 2.5 c 0,2.6 3,7 4.8,7 0.6,0 1.1,0.7 1.1,1.6 0,1.4 -0.3,1.5 -1.7,0.3 -4.2,-3.1 -7.5,-7.5 -7.5,-9.6 0,-2.6 -1.3,-3.1 -2.2,-0.7 -1.1,2.7 -0.6,5.4 0.8,5.4 0.8,0 1.6,1 1.8,2.2 0.2,1.3 0.8,2.3 1.3,2.2 0.6,-0.1 1.8,1.2 2.8,2.8 1.3,2.2 2.1,2.7 3,1.9 1,-0.8 1.3,0.3 1.5,4.6 0.2,3.5 0.8,6 1.7,6.7 0.9,0.7 1.6,3 1.7,6.1 0.1,3.2 0.7,5.4 1.7,6.2 1.2,0.9 1.2,1.2 0.3,1.3 -1,0 -1.2,1.3 -0.6,5.7 0.6,5.3 1.6,7.2 3.7,7.3 0.4,0 0.7,-0.8 0.7,-1.7 0,-1.3 0.3,-1.4 1.2,-0.5 0.9,0.9 0.9,1.5 0,2.4 -1.5,1.5 -1.6,4.8 -0.2,4.8 0.6,0 1,1.1 1,2.5 0,1.8 0.5,2.5 2,2.5 2.5,0 2.6,-2.6 0.3,-5.2 -1.5,-1.7 -1.5,-1.8 0,-1.8 1,0 1.7,-0.8 1.7,-1.8 0,-1.4 0.4,-1.2 1.9,0.8 1.1,1.3 1.9,2.7 1.9,3 -0.2,2.5 0.4,4 1.7,4 0.8,0 1.5,0.7 1.5,1.5 0,1.2 -0.4,1.3 -1.9,0.5 -2.8,-1.4 -3.8,-1.3 -6,1.2 -1.8,1.8 -2.2,1.9 -3.7,0.7 -1.7,-1.3 -1.7,-1.2 -0.1,1.2 1,1.4 2.9,3.1 4.2,3.7 2.4,1.1 2.5,1 1.5,-0.7 -0.5,-1.1 -1,-2.5 -1,-3.1 0,-1.8 2,0 3,2.6 0.5,1.3 1.5,2.4 2.2,2.4 0.9,0 0.9,-0.3 0,-1.2 -1.6,-1.6 -1.5,-2.8 0.1,-2.8 1.1,0.1 4.2,5.8 6.1,11.5 0.7,1.9 0.8,1.9 2,-0.4 0.8,-1.4 1.6,-1.9 2,-1.3 0.3,0.6 0.2,1.3 -0.4,1.7 -1.5,0.9 -1.2,2.8 0.4,2.2 0.7,-0.3 1.9,0 2.5,0.6 0.7,0.7 1.7,1.2 2.4,1.2 0.7,0 1.1,1 0.9,2.4 -0.2,1.5 0,2.1 0.7,1.7 0.6,-0.4 1.1,-0.3 1.1,0.2 0,0.5 1.1,1.2 2.5,1.5 1.8,0.3 2.9,-0.1 3.6,-1.5 0.5,-1 1.4,-1.6 1.9,-1.3 0.4,0.3 1,0 1.2,-0.6 0.6,-1.7 5.9,0.8 6.5,3.1 0.3,1.1 1,1.7 1.5,1.4 0.5,-0.3 1.5,0.2 2.3,1.2 1.3,1.8 1.4,1.8 3.5,-0.1 l 2.3,-2 -0.7,2.2 c -0.8,2.6 1.1,3.3 2,0.8 0.4,-0.8 1.5,-1.5 2.5,-1.5 1,0 1.9,-0.5 1.9,-1 0,-0.6 0.7,-1 1.5,-1 1.9,0 1.9,-0.9 -0.2,-3.2 -1.5,-1.7 -1.5,-1.8 0.2,-1.8 1.3,0 1.6,-0.5 1.1,-2.4 -0.4,-1.6 -0.1,-2.6 0.8,-2.9 1.1,-0.4 1.3,0.3 0.9,3.4 -0.5,3.8 0.7,5.3 2.3,2.8 0.4,-0.8 0.9,-0.7 1.4,0.2 0.5,0.7 2.9,1.8 5.4,2.4 3.8,1 4.8,0.9 5.8,-0.2 0.9,-1.1 0.7,-1.5 -1,-2 -2.9,-0.7 -2.8,-2.1 0.3,-3.3 1.4,-0.5 2.5,-1.6 2.5,-2.5 0,-0.8 0.5,-1.5 1,-1.5 0.6,0 1,0.4 1,1 0,0.5 0.7,0.7 1.5,0.4 0.8,-0.4 1.5,-0.2 1.5,0.4 0,0.5 -0.8,1.3 -1.7,1.6 -1.2,0.5 -1.4,0.9 -0.5,1.8 1.4,1.4 1.6,5.2 0.3,4.4 -0.4,-0.3 -1.6,0.3 -2.5,1.3 -1.7,1.8 -1.6,2 0.3,2.6 2.4,0.7 5.1,-1.4 5.1,-3.9 0,-0.9 0.5,-1.6 1,-1.6 0.6,0 1,1 1,2.2 0,2 0.1,2 1.9,0.3 2,-1.7 2,-1.6 0.9,2.1 -0.6,2.2 -1.6,4.7 -2.4,5.8 -1.1,1.6 -1,2.1 0.1,3.2 0.7,0.8 2,1.4 2.8,1.4 0.9,0 1.7,0.5 1.9,1.2 0.6,1.6 11.7,-5.2 11.8,-7.2 0.1,-0.9 0.5,-0.6 1,0.7 0.5,1.3 1.2,2.3 1.4,2.3 1.7,0 5.6,-2.5 5.6,-3.7 0,-0.7 0.9,-1.3 2,-1.3 2.2,0 2.6,2 0.8,3.8 -2,2 0.2,1.3 2.4,-0.8 1.2,-1.1 1.9,-2.3 1.5,-2.7 -0.4,-0.3 0.5,-1.4 2.1,-2.3 3.1,-2 4.6,-0.7 2.9,2.3 -0.9,1.5 -0.9,2.1 0,2.4 1.6,0.6 -0.2,5.1 -3,7.5 -2.8,2.6 -0.2,3.3 6.8,1.8 5.6,-1.2 5.7,-1.2 5.1,-4.1 -0.4,-2.3 -0.2,-3.1 1.2,-3.5 0.9,-0.3 2.5,-1 3.4,-1.5 2.5,-1.3 2.8,-1.2 2.8,1.1 0,1.3 0.7,2 2,2 2.3,0 2.6,-1.3 0.6,-2.9 -0.8,-0.7 -1.2,-2.1 -0.9,-3.1 0.7,-2.5 -1.2,-2.6 -2.6,-0.3 -0.9,1.6 -1,1.6 -1.1,-0.5 0,-1.3 0.6,-2.2 1.5,-2.2 0.8,0 1.5,-0.6 1.5,-1.4 0,-2 2.2,-2.5 3.9,-0.8 1.3,1.2 1.6,1.2 2.8,-0.4 1.2,-1.6 1,-2.1 -1.4,-4.2 -2.5,-2.1 -2.8,-2.2 -4,-0.6 -1.1,1.6 -1.3,1.6 -1.9,0.1 -0.7,-2 -3.5,-2.2 -5.2,-0.5 -0.7,0.7 -1.2,0.8 -1.2,0.2 0,-1.8 4.8,-3.7 7.8,-3.1 2.6,0.5 3.1,0.3 3.6,-1.8 0.7,-2.9 1.5,-3.1 4.2,-1.1 1.8,1.4 1.8,1.5 0.2,2.1 -2.6,1 -2.2,2.5 0.7,2.5 1.4,0 2.5,-0.4 2.5,-0.9 0,-0.5 1.4,-1.2 3,-1.6 4.1,-0.9 3.8,-2.5 -0.5,-2.5 -2.7,0 -3.3,-0.3 -2.9,-1.5 0.4,-0.9 1.4,-1.3 2.3,-1.1 0.9,0.3 2.2,0.2 3,-0.3 2,-1.3 -0.5,-2.4 -3.6,-1.6 -2.3,0.5 -2.5,0.4 -1.4,-0.9 0.7,-0.8 1.1,-2.2 0.9,-3.2 -0.2,-0.9 0.3,-1.9 1,-2.1 0.6,-0.3 1.2,0 1.2,0.6 0,0.6 0.9,1.1 1.9,1.1 1.1,0 2.1,0.6 2.4,1.2 0.3,0.9 0.9,0.7 2,-0.7 1.4,-1.8 1.4,-2 -0.3,-2.3 -1.8,-0.3 -3.2,-4.3 -2.1,-6 0.3,-0.4 1.4,-1.2 2.5,-1.5 1.5,-0.6 1.7,-0.4 1.2,1.8 -0.6,2.3 -0.5,2.4 1.9,1.3 1.4,-0.6 2.5,-1.5 2.5,-2 0,-0.4 0.5,-0.8 1,-0.8 0.6,0 1,0.6 1,1.4 0,0.8 0.7,1.7 1.6,2 0.9,0.4 1.4,0.9 1.1,1.3 -0.4,0.3 -1.3,0.1 -2,-0.6 -2.5,-2 -4.4,-0.2 -5.1,4.9 -0.4,2.7 -1.1,5.2 -1.6,5.5 -1.8,1.1 -1,2.6 1.3,2.3 1.9,-0.3 2.2,-1 2.5,-5.1 0.2,-3.6 0.7,-4.7 2,-4.8 0.9,0 3.2,-0.1 5,-0.2 1.7,-0.1 3.2,0.1 3.2,0.5 0,1 -4.2,2.2 -6.4,1.9 -1.1,-0.2 -1.7,0.2 -1.4,1 0.2,0.7 2.6,1.3 5.7,1.5 2.9,0.1 5.5,0.5 5.8,0.8 1.1,1.1 -1,2.6 -3.8,2.6 -1.6,0 -2.9,0.4 -2.9,1 0,0.5 0.7,0.7 1.5,0.3 0.9,-0.3 2.4,0.2 3.4,1.1 1.5,1.4 2,1.4 3,0.3 0.6,-0.8 0.9,-2.1 0.6,-2.9 -0.4,-1 0.1,-1.7 1.4,-2.1 2.7,-0.7 2.7,-3.2 -0.1,-5.1 l -2.1,-1.5 2.6,-1 c 1.4,-0.6 3.1,-2 3.7,-3.2 1.1,-2 1.1,-2.1 -1.6,-1.5 -1.6,0.4 -3.6,1.3 -4.4,2 -2.2,2 -7.3,3 -6.8,1.4 0.3,-0.7 1.5,-1.5 2.9,-1.8 1.6,-0.4 2.3,-1.2 2.1,-2.4 -0.3,-1.5 0.1,-1.7 2.2,-1.2 1.9,0.5 2.6,0.2 2.6,-0.8 0,-2.5 2.8,-4 5.3,-2.8 2.1,1 2.1,1.1 -0.7,1.1 -4.1,0.1 -2.3,1.4 5.5,3.9 7,2.4 9.9,2.7 9.9,1.3 0,-1.1 -2.5,-2.1 -5.1,-2.1 -2.6,0 -4.7,-4.4 -3,-6.4 1,-1.2 0.5,-1.8 -3,-3.7 -5.5,-2.8 -3.5,-4.1 4.1,-2.7 3,0.5 6.3,1.1 7.3,1.2 0.9,0.1 2.3,0.8 2.9,1.4 0.7,0.7 1.7,1.2 2.3,1.2 0.6,0 2.8,1.6 4.9,3.5 2.5,2.2 3.3,3.5 2.3,3.5 -0.9,0 -1.9,-0.5 -2.2,-1 -0.8,-1.3 -6.5,-1.3 -6.5,0 0,1.2 3.5,3.1 4.4,2.3 0.3,-0.3 0.6,0.1 0.6,1 0,0.9 0.5,1.9 1,2.2 1.5,0.9 5,-0.4 5,-2 0,-2 1.9,-2.8 3.5,-1.5 0.8,0.6 1.6,0.7 1.9,0.2 0.7,-1.2 -0.6,-2.3 -6.4,-5 -3.9,-1.9 -4.1,-2.2 -1.9,-2.2 1.5,0 5.4,1.8 8.7,4 7.1,4.8 8.6,5.1 7,1.4 -0.8,-1.7 -1.8,-2.4 -3,-2.1 -1,0.3 -1.8,0 -1.8,-0.7 0,-2.3 -3.7,-4.8 -6,-4.1 -1.9,0.6 -2,0.5 -0.9,-1.3 0.7,-1.2 1.7,-1.8 2.3,-1.5 0.5,0.4 0.7,-0.1 0.3,-1 -0.3,-1 -0.2,-1.7 0.4,-1.7 0.6,0 0.8,-0.9 0.4,-2.3 -0.6,-1.8 -0.5,-2 0.6,-1 0.7,0.7 1.2,2.6 1.2,4.3 0,2.3 0.8,3.7 2.9,5.1 1.5,1.1 2.8,1.5 2.8,0.9 0,-1.6 -3.9,-9 -6.7,-12.8 -1.4,-1.8 -2.2,-3.9 -1.9,-4.7 0.3,-0.8 0.1,-1.7 -0.4,-2 -0.6,-0.4 -1,0.8 -1,2.7 0,2.5 -0.3,2.9 -1,1.8 -1.6,-2.5 -1.2,-8 0.5,-8 1.3,0 1.2,-0.7 -0.6,-4.3 -1.9,-3.7 -2.3,-4 -3,-2.2 -0.6,1.6 -0.8,1.7 -0.8,0.3 -0.2,-3.1 -2,-2.9 -3.7,0.3 -1.4,2.8 -1.8,3 -2.6,1.6 -1.1,-2.1 -2.8,-2.2 -2.8,-0.2 0,2.1 -0.9,1.9 -3.1,-0.8 -1.3,-1.5 -1.8,-3.8 -1.9,-7.5 0,-3.3 -0.4,-5.1 -1,-4.7 -1.6,1 -1.2,-4.3 0.6,-7 0.9,-1.4 1.4,-3.2 1,-4 -0.6,-1.7 -3.6,-2.1 -3.6,-0.4 0,0.5 -0.5,0.7 -1,0.4 -0.6,-0.4 -0.8,-1.5 -0.5,-2.6 0.8,-2.4 -1,-2.5 -5.4,-0.3 -1.8,0.9 -3.5,1.4 -3.8,1.1 -0.3,-0.4 0.6,-0.9 2.1,-1.3 2.1,-0.5 2.6,-1.2 2.6,-3.5 0,-1.9 -0.5,-2.9 -1.5,-2.9 -0.8,0 -1.5,-0.7 -1.5,-1.5 0,-0.8 -0.7,-1.5 -1.5,-1.5 -1,0 -1.5,1 -1.5,3.1 0,2.5 -0.3,2.9 -1.3,2 -0.8,-0.6 -1.7,-0.8 -2,-0.4 -0.4,0.3 -0.7,0.1 -0.7,-0.5 0,-0.5 0.5,-1.2 1.2,-1.4 0.7,-0.3 1.3,-1.5 1.4,-2.9 0.1,-1.3 0.7,-3.7 1.3,-5.3 1.3,-3.3 1,-4 -1.7,-3.2 -1.2,0.4 -1.8,1.4 -1.7,2.9 0.1,1.2 0,1.5 -0.2,0.6 -0.2,-1 -2.1,-2 -4.5,-2.5 -2.3,-0.5 -4.3,-1.5 -4.6,-2.3 -0.3,-0.9 0.2,-1.1 1.7,-0.6 2.3,0.7 5.5,-1.1 4.5,-2.6 -0.3,-0.5 -2.5,-0.9 -5,-0.9 -4.2,0 -4.4,0.1 -4.4,2.9 0,3.1 3,6.1 6.1,6.1 1.9,0 5.2,3.4 4.2,4.3 -1,1 -2.5,0.8 -1.9,-0.2 1.2,-1.9 -2.4,-3.4 -7,-2.8 -4.4,0.5 -6.7,2.1 -6.1,4.1 0.5,1.6 2.7,1.9 2.7,0.4 0,-1 1,-1.3 3.3,-1 3.1,0.3 3.3,0.6 2.9,3.4 -0.4,2.9 -0.4,2.9 3.2,2.3 l 3.6,-0.7 -1.7,3.1 c -1,1.7 -2.1,3.1 -2.5,3.1 -0.9,0 -4.8,-6.9 -4.8,-8.6 0,-0.9 -0.6,-1.4 -1.2,-1.1 -0.8,0.2 -1.2,1.7 -1,3.5 0.2,1.8 -0.3,4.1 -1.1,5.2 -1.4,2.1 -1.4,2.1 -2,-0.2 -0.4,-1.3 -0.2,-2.5 0.3,-2.6 0.6,-0.2 1,-1 1,-1.9 0,-1 -0.6,-1.2 -2,-0.8 -1.6,0.5 -1.9,0.3 -1.3,-1.2 0.6,-1.5 0.4,-1.6 -0.9,-0.6 -2.3,1.9 -2.8,0.5 -2.2,-5.2 0.6,-4.8 0.5,-5.3 -1.6,-5.8 -1.6,-0.4 -2,-1.1 -1.6,-2.5 0.5,-1.5 0.1,-2.1 -1.6,-2.6 l -2.3,-0.7 2.3,-0.9 c 2.8,-1.2 2.8,-1.9 -0.2,-4.8 -2.3,-2.1 -2.5,-2.2 -3.5,-0.5 -1,1.7 -1,1.6 -1.1,-0.3 0,-2.7 1.7,-4 5.4,-4.2 3.6,-0.2 4.3,-0.9 2.8,-2.4 -0.9,-0.9 -1.7,-1 -3,-0.1 -1.5,0.9 -2.1,0.7 -3,-0.7 -0.6,-1 -0.8,-2.7 -0.5,-3.8 0.4,-1.7 0,-2.1 -2.3,-2.4 -1.5,-0.2 -3,-1 -3.2,-1.8 -0.5,-1.3 -0.3,-1.3 1.2,0 1.6,1.2 2,1.1 3.7,-1 2.2,-3 1.9,-4.6 -0.9,-4.3 -1.5,0.2 -1.9,-0.2 -1.5,-1.6 0.6,-2.4 -1.5,-3.8 -2.3,-1.6 -0.9,2.3 -2.6,-0.3 -1.8,-2.8 0.3,-1 -0.1,-1.9 -1,-2.3 -0.9,-0.3 -1.6,-1.4 -1.6,-2.4 0,-2.2 -1.6,-3.5 -2.5,-2 -1.1,1.8 -2,1.1 -2.1,-1.8 -0.1,-2.5 0.2,-2.8 2.3,-2.4 1.8,0.3 2.3,0 2.3,-1.5 0,-2.8 -0.7,-3.2 -3.8,-2.4 -2.2,0.6 -3.5,0.1 -6.9,-2.7 -4.3,-3.5 -5.3,-5.6 -3,-6.5 0.7,-0.3 0.2,-0.9 -1.3,-1.5 -1.4,-0.6 -2.1,-1.1 -1.5,-1.1 0.5,-0.1 -1.4,-2.4 -4.4,-5.2 -3.5,-3.3 -6,-4.9 -7.2,-4.6 -1,0.3 -2,-0.1 -2.3,-0.9 -0.3,-0.8 -1.2,-1.4 -2.1,-1.4 -0.8,0 -1.5,-0.5 -1.5,-1 0,-1.4 -2.8,-1.2 -3.3,0.2 -0.3,1 -0.7,1 -1.9,0 -0.8,-0.6 -3.4,-1.3 -5.6,-1.5 -2.3,-0.1 -4.4,-0.6 -4.8,-1 -1.1,-1.1 -4.4,-0.8 -4.4,0.3 0,0.5 -0.7,1 -1.5,1 -0.8,0 -1.5,-0.5 -1.5,-1 0,-1.1 -1.3,-1.3 -2.3,-0.4 z m -28,32.9 c -0.4,0.8 -1.1,1.5 -1.7,1.5 -0.7,0 -0.7,-0.6 0,-2.1 1.3,-2.3 2.6,-1.9 1.7,0.6 z m -52.7,46.7 c 0,0.7 0.3,2.4 0.6,3.8 l 0.5,2.5 -1.5,-2.5 c -1.8,-2.9 -2,-5 -0.6,-5 0.6,0 1,0.6 1,1.2 z m -14,8.9 c 0,1.7 -2,2.9 -2,1.1 0,-0.4 -0.3,-1.8 -0.7,-3.2 -0.6,-2.2 -0.5,-2.4 1,-1.1 0.9,0.7 1.7,2.2 1.7,3.2 z m -4,6.9 c 1.1,0.6 1.7,1.7 1.4,2.5 -0.9,2.2 -4.4,-2.6 -4.3,-5.7 l 0.2,-2.3 0.4,2.3 c 0.2,1.2 1.3,2.7 2.3,3.2 z m 33,-4 c 0,0.5 -0.4,1 -1,1 -0.5,0 -1,-0.5 -1,-1 0,-0.6 0.5,-1 1,-1 0.6,0 1,0.4 1,1 z m -2.8,8.5 c 0,0.5 -0.5,1.1 -1,1.3 -0.5,0.1 -0.9,-0.4 -0.9,-1.3 0,-0.9 0.4,-1.4 0.9,-1.3 0.5,0.2 1,0.8 1,1.3 z m 34.3,1 c 0,1 -0.6,2 -1.2,2.2 -0.8,0.3 -1.3,-0.5 -1.3,-2.2 0,-1.7 0.5,-2.5 1.3,-2.3 0.6,0.3 1.2,1.3 1.2,2.3 z m 122.8,1.2 c -0.6,1.9 -3.2,4.3 -4.5,4.3 -0.4,0 -0.8,-0.9 -0.8,-2 0,-1.3 0.5,-1.8 1.5,-1.4 0.9,0.4 1.5,0 1.5,-1 0,-0.9 0.7,-1.6 1.5,-1.6 0.9,0 1.2,0.6 0.8,1.7 z m -112.9,0.9 c 0.9,2.4 -0.4,3.2 -1.6,1.1 -0.9,-1.8 -1,-1.8 -2.4,0 -1.1,1.3 -1.4,1.4 -1.2,0.3 0.6,-3.1 4.2,-4 5.2,-1.4 z m 6.6,0 c 0,0.8 -0.5,1.2 -1,0.9 -0.6,-0.4 -0.8,-1.1 -0.5,-1.6 0.9,-1.4 1.5,-1.1 1.5,0.7 z m -53,2.5 c 0,1.8 -0.4,2.8 -1,2.4 -0.6,-0.4 -0.8,-1.1 -0.5,-1.6 0.4,-0.5 0,-0.9 -0.9,-0.9 -0.8,0 -1.6,0.6 -1.9,1.2 -0.2,0.7 -0.8,1 -1.2,0.6 -0.8,-0.7 3.2,-4.7 4.8,-4.8 0.4,0 0.7,1.4 0.7,3.1 z m 3.5,-0.1 c 0.3,0.5 0.1,1 -0.4,1 -0.6,0 -1.1,-0.5 -1.1,-1 0,-0.6 0.2,-1 0.4,-1 0.3,0 0.8,0.4 1.1,1 z m 19.5,5 c 0,0.5 -0.5,1 -1.1,1 -0.5,0 -0.7,-0.5 -0.4,-1 0.3,-0.6 0.8,-1 1.1,-1 0.2,0 0.4,0.4 0.4,1 z m -30.3,4.6 c -0.3,0.3 -1.2,0.4 -1.9,0.1 -0.8,-0.3 -0.5,-0.6 0.6,-0.6 1.1,-0.1 1.7,0.2 1.3,0.5 z m 50.6,4.9 c 2.9,0.5 3.7,1 3.5,2.3 -0.2,0.9 -1.3,1.8 -2.5,2 -1.2,0.2 -2.6,0.9 -3.2,1.6 -1.1,1.3 -6.1,1 -6.1,-0.4 0,-0.4 1.2,-0.5 2.6,-0.2 2,0.4 2.5,0.1 2.2,-0.9 -0.3,-0.8 -1.4,-1.3 -2.4,-1.2 -1.4,0.1 -1.9,-0.5 -2,-2.2 -0.2,-2 0.2,-2.4 2,-2 1.1,0.2 3.8,0.7 5.9,1 z m -51.6,0.1 c -0.3,0.3 -1.2,0.4 -1.9,0.1 -0.8,-0.3 -0.5,-0.6 0.6,-0.6 1.1,-0.1 1.7,0.2 1.3,0.5 z m 5.3,1.4 c 0,0.5 -0.7,1 -1.6,1 -0.8,0 -1.2,-0.5 -0.9,-1 0.3,-0.6 1,-1 1.6,-1 0.5,0 0.9,0.4 0.9,1 z m 33.5,1 c 0.3,0.5 0.1,1 -0.4,1 -0.6,0 -1.1,-0.5 -1.1,-1 0,-0.6 0.2,-1 0.4,-1 0.3,0 0.8,0.4 1.1,1 z m 147.5,0 c 0,0.5 -0.2,1 -0.4,1 -0.3,0 -0.8,-0.5 -1.1,-1 -0.3,-0.6 -0.1,-1 0.4,-1 0.6,0 1.1,0.4 1.1,1 z m 3.5,0 c 0.3,0.5 0.1,1 -0.4,1 -0.6,0 -1.1,-0.5 -1.1,-1 0,-0.6 0.2,-1 0.4,-1 0.3,0 0.8,0.4 1.1,1 z m -159,1 c -0.3,0.5 -1.8,1 -3.3,0.9 l -2.7,-0.1 2.5,-0.8 c 3.5,-1.1 4.2,-1.1 3.5,0 z m 10.5,2 c 0,0.5 -0.7,1 -1.6,1 -0.8,0 -1.2,-0.5 -0.9,-1 0.3,-0.6 1,-1 1.6,-1 0.5,0 0.9,0.4 0.9,1 z m -26,1 c 0,0.5 -0.5,1 -1.1,1 -0.5,0 -0.7,-0.5 -0.4,-1 0.3,-0.6 0.8,-1 1.1,-1 0.2,0 0.4,0.4 0.4,1 z m 46,2.6 c 0,0.2 -0.9,0.4 -2,0.4 -1.1,0 -2,-0.4 -2,-0.9 0,-0.5 0.9,-0.7 2,-0.4 1.1,0.3 2,0.7 2,0.9 z m 7,1.5 c 1.1,1.9 1,2 -1,0.9 -1.1,-0.6 -1.8,-1.5 -1.5,-2.1 0.9,-1.3 1.3,-1.1 2.5,1.2 z m -19.5,0.5 c -0.9,0.9 -1.8,1.4 -2.1,1.1 -0.9,-0.9 0.6,-2.7 2.2,-2.7 1.3,0 1.3,0.2 -0.1,1.6 z m 15.1,6.4 c 0,1.1 -0.1,2 -0.2,2 -0.1,0 -1,-0.3 -1.8,-0.6 -1.3,-0.5 -1.4,-0.9 -0.5,-2 1.6,-2 2.5,-1.7 2.5,0.6 z m -8.6,0.4 c 0,0.3 -0.4,0.8 -1,1.1 -0.5,0.3 -1,0.1 -1,-0.4 0,-0.6 0.5,-1.1 1,-1.1 0.6,0 1,0.2 1,0.4 z m 19,3.8 c 0,0.6 -0.7,0.5 -1.5,-0.2 -0.8,-0.7 -1.5,-1.7 -1.5,-2.2 0,-0.6 0.7,-0.5 1.5,0.2 0.8,0.7 1.5,1.7 1.5,2.2 z m -6,-1.2 c 0,0.5 -0.2,1 -0.4,1 -0.3,0 -0.8,-0.5 -1.1,-1 -0.3,-0.6 -0.1,-1 0.4,-1 0.6,0 1.1,0.4 1.1,1 z m -7,1 c 1.1,0.7 0.3,1 -2.8,1 -5,0 -4.8,1.6 0.3,2.6 1.9,0.3 3.5,0.9 3.5,1.3 0,1.7 -1.4,1.9 -3.4,0.6 -1.1,-0.8 -3.7,-1.5 -5.7,-1.5 -3.2,0 -3.6,-0.3 -3.2,-1.9 0.7,-2.6 8.4,-4 11.3,-2.1 z m 9.4,2.6 c 0.9,0.3 1.6,1 1.6,1.4 0,1 -3.8,0.1 -4.6,-1.1 -0.6,-1 0.7,-1.2 3,-0.3 z m -32.5,1.3 c 2.3,1.5 -0.3,2 -2.9,0.5 -2.2,-1.2 -2.3,-1.3 -0.5,-1.3 1.1,-0.1 2.6,0.3 3.4,0.8 z m -48.5,2.3 c -0.1,1.3 -0.3,3.2 -0.4,4.3 l -0.1,2 -0.9,-2 c -1.3,-3.1 -1.1,-6.5 0.3,-6.5 0.8,0 1.3,0.9 1.1,2.2 z m 219.1,1.8 c 0.3,0.5 0.2,1 -0.4,1 -0.5,0 -1.3,-0.5 -1.6,-1 -0.3,-0.6 -0.2,-1 0.4,-1 0.5,0 1.3,0.4 1.6,1 z m -204.1,6.7 c -0.1,4.2 -1.8,6.3 -3.6,4.4 -1.1,-1 -1,-1.4 0.5,-2.2 2.1,-1.2 2.3,-3.3 0.1,-2.5 -2,0.8 -3.5,-0.1 -2.8,-1.7 0.2,-0.7 1.7,-1.2 3.2,-1.3 2.4,-0.1 2.7,0.2 2.6,3.3 z m 142.7,2.6 c 1,-0.3 1.9,0 1.9,0.6 0,1.2 -1.4,1.4 -4.7,0.5 -2.6,-0.7 -2.9,-2.3 -1,-4.3 1,-1 1.3,-0.7 1.5,1.2 0.2,1.9 0.8,2.4 2.3,2 z m -8.1,-1.4 c 0,0.6 -0.4,1.3 -1,1.6 -0.5,0.3 -1,-0.1 -1,-0.9 0,-0.9 0.5,-1.6 1,-1.6 0.6,0 1,0.4 1,0.9 z m -11.2,5.9 c 0.2,0.7 -0.3,1.2 -1.2,1.2 -0.9,0 -1.6,-0.7 -1.6,-1.6 0,-1.7 2.2,-1.4 2.8,0.4 z m 37.9,-0.2 c -0.3,0.3 -1.2,0.4 -1.9,0.1 -0.8,-0.3 -0.5,-0.6 0.6,-0.6 1.1,-0.1 1.7,0.2 1.3,0.5 z m -45.7,3.9 c -0.7,0.8 -1.7,1.5 -2.3,1.5 -0.5,0 -0.2,-0.9 0.8,-2 2.1,-2.3 3.5,-1.9 1.5,0.5 z m 11,1.5 c 0,0.5 -0.5,1 -1.1,1 -0.5,0 -0.7,-0.5 -0.4,-1 0.3,-0.6 0.8,-1 1.1,-1 0.2,0 0.4,0.4 0.4,1 z m -23.5,4 c 0.9,0 1.2,0.6 0.9,1.5 -0.4,0.8 -0.1,1.5 0.5,1.5 0.6,0 1.1,0.7 1.1,1.5 0,2.6 -2.7,1.6 -4,-1.5 -0.7,-1.7 -1.6,-3 -2.1,-3 -0.5,0 -0.9,-0.7 -0.9,-1.6 0,-1.4 0.1,-1.4 1.6,0 0.8,0.9 2.2,1.6 2.9,1.6 z m -85.1,-0.8 c -0.5,0.8 -0.2,0.9 0.9,0.5 0.9,-0.3 1.9,-0.2 2.2,0.3 0.4,0.6 0.2,1 -0.4,1 -0.5,0 -1.6,0.3 -2.5,0.6 -1.2,0.4 -1.6,0 -1.6,-1.5 0,-1.2 0.5,-2.1 1.1,-2.1 0.5,0 0.7,0.5 0.3,1.2 z m 93.6,-0.8 c 0,0.3 -0.4,0.8 -1,1.1 -0.5,0.3 -1,0.1 -1,-0.4 0,-0.6 0.5,-1.1 1,-1.1 0.6,0 1,0.2 1,0.4 z m 7.7,4.8 c -0.3,0.8 -0.6,0.5 -0.6,-0.6 -0.1,-1.1 0.2,-1.7 0.5,-1.3 0.3,0.3 0.4,1.2 0.1,1.9 z m 6.7,-1.4 c 0.6,1 -2.2,4.7 -3,4 -0.3,-0.4 -0.3,-1.6 0.1,-2.7 0.6,-2.1 2,-2.7 2.9,-1.3 z m 5.1,4.9 c -1.1,0.7 -2.2,1.3 -2.7,1.3 -1.4,0 -0.8,-1.9 0.9,-2.9 2.5,-1.3 4,-0.1 1.8,1.6 z m -68.1,1.5 c -0.6,3.1 -2.8,5.7 -4.8,5.8 -0.5,0 -0.2,-0.8 0.6,-1.8 0.8,-0.9 1.8,-2.9 2.2,-4.5 0.3,-1.5 1.1,-2.7 1.7,-2.7 0.7,0 0.8,1.2 0.3,3.2 z m -11.4,-1.3 c 0,0.5 1,0.7 2.3,0.4 1.7,-0.5 1.9,-0.3 1.1,0.7 -0.7,0.6 -2,1 -3,0.8 -1.9,-0.3 -3.2,-2.8 -1.5,-2.8 0.6,0 1.1,0.4 1.1,0.9 z m 42,2.1 c 0,0.5 -0.4,1 -1,1 -0.5,0 -1,-0.5 -1,-1 0,-0.6 0.5,-1 1,-1 0.6,0 1,0.4 1,1 z m -53,1 c 0,0.5 -0.4,1 -1,1 -0.5,0 -1,-0.5 -1,-1 0,-0.6 0.5,-1 1,-1 0.6,0 1,0.4 1,1 z m 34.2,1.2 c -0.7,0.7 -1.2,0.8 -1.2,0.2 0,-1.4 1.2,-2.6 1.9,-1.9 0.2,0.3 -0.1,1.1 -0.7,1.7 z m 41.8,0.4 c 0,0.8 -0.5,1.2 -1,0.9 -0.6,-0.4 -0.8,-1.1 -0.5,-1.6 0.9,-1.4 1.5,-1.1 1.5,0.7 z m -11,4.6 c 0,1 -0.4,1.8 -1,1.8 -0.5,0 -1,-0.9 -1,-2 0,-1.1 -0.7,-2 -1.6,-2 -0.8,0 -1.2,-0.4 -0.9,-1 0.9,-1.4 4.5,1.1 4.5,3.2 z m -8.7,-2.1 c -0.8,0.8 -1.6,0.8 -3,0 -1.6,-0.9 -1.4,-1 1.2,-1.1 2.1,0 2.6,0.3 1.8,1.1 z m 14.7,-0.1 c 0,0.5 -0.7,1 -1.5,1 -0.8,0 -1.5,-0.5 -1.5,-1 0,-0.6 0.7,-1 1.5,-1 0.8,0 1.5,0.4 1.5,1 z m 5.3,2.5 c -1.2,0.9 -1.9,1 -2.2,0.3 -0.4,-1.2 2,-2.9 3.2,-2.1 0.4,0.3 0,1.1 -1,1.8 z m 9.7,1.5 c 0,0.5 -1.4,1 -3.1,1 -1.7,0 -2.8,-0.4 -2.4,-1 0.3,-0.6 1.7,-1 3.1,-1 1.3,0 2.4,0.4 2.4,1 z m -31,2 c 0,1.1 -0.2,2 -0.4,2 -0.2,0 -0.6,-0.9 -0.9,-2 -0.3,-1.1 -0.1,-2 0.4,-2 0.5,0 0.9,0.9 0.9,2 z m 13,-0.6 c 0,0.3 -0.4,0.8 -1,1.1 -0.5,0.3 -1,0.1 -1,-0.4 0,-0.6 0.5,-1.1 1,-1.1 0.6,0 1,0.2 1,0.4 z m -4.6,2.1 c 0.4,1.1 -0.2,1.5 -2.4,1.5 -4.6,0 -3.8,-2 1.1,-2.9 0.4,0 0.9,0.6 1.3,1.4 z m 15.6,0.1 c 0,0.8 -0.5,1.2 -1,0.9 -0.6,-0.4 -0.8,-1.1 -0.5,-1.6 0.9,-1.4 1.5,-1.1 1.5,0.7 z m -36.6,5.6 c -0.4,0.6 -0.2,0.8 0.4,0.4 0.6,-0.3 1.3,-0.2 1.7,0.3 0.7,1.3 -3.2,3.4 -5.1,2.7 -1.9,-0.7 -1.8,-3.6 0.1,-3.6 0.8,0 1.5,-0.5 1.5,-1.1 0,-0.5 0.5,-0.7 1,-0.4 0.6,0.4 0.7,1.1 0.4,1.7 z m -165.3,-195.6 c -1.6,1.9 -1.5,1.9 3.3,3.3 5.1,1.3 5.7,0.7 2.3,-2.4 -3,-2.9 -3.7,-3 -5.6,-0.9 z m 45.9,-0.6 c 0,0.5 0.5,1 1.1,1 0.5,0 0.7,-0.5 0.4,-1 -0.3,-0.6 -0.8,-1 -1.1,-1 -0.2,0 -0.4,0.4 -0.4,1 z m -57,3 c 0,0.5 0.5,1 1,1 0.6,0 1,-0.5 1,-1 0,-0.6 -0.4,-1 -1,-1 -0.5,0 -1,0.4 -1,1 z m 61,0.5 c 0,0.8 0.7,1.5 1.6,1.5 1.4,0 1.4,-0.3 0.4,-1.5 -0.7,-0.8 -1.4,-1.5 -1.6,-1.5 -0.2,0 -0.4,0.7 -0.4,1.5 z m -8.2,1.2 c -0.6,2.2 0.7,5.2 1.7,4.1 0.4,-0.4 0.3,-1.9 -0.2,-3.5 -0.9,-2.5 -1,-2.6 -1.5,-0.6 z m -43.6,0.5 c 0.5,1.5 2.8,2.3 2.8,1 0,-0.5 -0.7,-1.3 -1.6,-1.6 -1,-0.4 -1.4,-0.1 -1.2,0.6 z m -7.7,3.8 c -0.3,0.5 -0.1,1 0.4,1 0.6,0 1.1,-0.5 1.1,-1 0,-0.6 -0.2,-1 -0.4,-1 -0.3,0 -0.8,0.4 -1.1,1 z m 78,2 c -0.3,0.5 0.1,1 1,1 0.9,0 1.3,-0.5 1,-1 -0.3,-0.6 -0.8,-1 -1,-1 -0.2,0 -0.7,0.4 -1,1 z m 28.2,0.7 c -0.4,0.3 -0.7,1.3 -0.7,2.2 0.1,1.3 0.3,1.3 1.1,-0.2 1.1,-1.9 0.8,-3.3 -0.4,-2 z m -81.2,1.3 c 0.3,0.5 1,1 1.6,1 0.5,0 0.9,-0.5 0.9,-1 0,-0.6 -0.7,-1 -1.6,-1 -0.8,0 -1.2,0.4 -0.9,1 z m 48.5,4 c 0,0.5 0.5,1 1,1 0.6,0 1,-0.5 1,-1 0,-0.6 -0.4,-1 -1,-1 -0.5,0 -1,0.4 -1,1 z"
     id="path2" />
  <path
     d="m 312.17767,251.83796 c -0.3,0.5 -0.1,1 0.4,1 0.6,0 1.1,-0.5 1.1,-1 0,-0.6 -0.2,-1 -0.4,-1 -0.3,0 -0.8,0.4 -1.1,1 z m -185.5,3.1 c 0,0.5 0.5,0.7 1,0.4 0.6,-0.3 1,-0.8 1,-1.1 0,-0.2 -0.4,-0.4 -1,-0.4 -0.5,0 -1,0.5 -1,1.1 z m 176,0 c 0,1.1 3,1.2 4.8,0 0.9,-0.5 0.3,-0.8 -1.7,-0.9 -1.7,0 -3.1,0.4 -3.1,0.9 z m -160.5,2.8 c -0.3,0.5 -0.1,1.2 0.5,1.6 0.5,0.3 1,-0.1 1,-0.9 0,-1.8 -0.6,-2.1 -1.5,-0.7 z m 157.8,-0.1 c -1.2,0.2 -2.7,1 -3.3,1.8 -1.4,1.6 0,1.7 5.4,0.5 2.3,-0.5 2.6,-0.8 1.5,-1.6 -0.8,-0.6 -2.4,-0.9 -3.6,-0.7 z m 10.1,1.5 c -2.6,1.5 -8.8,8.6 -8.2,9.3 0.3,0.2 2.5,0.2 4.9,-0.2 3.2,-0.5 5.3,-1.7 7.7,-4.2 l 3.4,-3.5 -2.4,-1.3 c -2.8,-1.6 -2.8,-1.6 -5.4,-0.1 z m 2.6,4.6 c 0,0.5 -0.7,1.4 -1.5,2.1 -1.6,1.4 -1.8,1 -0.9,-1.4 0.6,-1.7 2.4,-2.2 2.4,-0.7 z m -171.5,3.1 c 0.3,0.5 0.8,1 1.1,1 0.2,0 0.4,-0.5 0.4,-1 0,-0.6 -0.5,-1 -1.1,-1 -0.5,0 -0.7,0.4 -0.4,1 z m 171,5 c 0.3,0.5 0.8,1 1.1,1 0.2,0 0.4,-0.5 0.4,-1 0,-0.6 -0.5,-1 -1.1,-1 -0.5,0 -0.7,0.4 -0.4,1 z m -218,6 c 0.3,0.5 0.8,1 1.1,1 0.2,0 0.4,-0.5 0.4,-1 0,-0.6 -0.5,-1 -1.1,-1 -0.5,0 -0.7,0.4 -0.4,1 z m 208.2,2.5 c -0.7,2.3 -0.3,6.1 0.6,5.7 0.4,-0.1 1.2,-0.2 1.8,-0.2 0.8,0 0.8,-0.4 0.1,-1.3 -0.5,-0.6 -1.2,-2.3 -1.4,-3.7 -0.3,-2.3 -0.4,-2.3 -1.1,-0.5 z m -146.7,1.6 c 0,1.1 0.4,1.8 1,1.4 0.5,-0.3 0.7,-1.2 0.3,-2 -0.7,-2.1 -1.3,-1.9 -1.3,0.6 z m 11.5,0.9 c -0.3,0.5 -0.1,1 0.4,1 0.6,0 1.1,-0.5 1.1,-1 0,-0.6 -0.2,-1 -0.4,-1 -0.3,0 -0.8,0.4 -1.1,1 z m -91.9,0.9 c -0.4,0.7 -0.5,1.5 -0.2,1.8 0.9,0.9 1.9,-0.4 1.4,-1.8 -0.4,-1.1 -0.6,-1.1 -1.2,0 z m 97.6,-0.1 c -0.7,0.5 -1,1.6 -0.6,2.5 0.9,2.5 2.4,2 2.4,-0.8 0,-2.8 0,-2.8 -1.8,-1.7 z m -14.2,6.2 c 0,0.5 0.5,1 1,1 0.6,0 1,-0.5 1,-1 0,-0.6 -0.4,-1 -1,-1 -0.5,0 -1,0.4 -1,1 z m 242,0 c 0,0.5 0.5,1 1.1,1 0.5,0 0.7,-0.5 0.4,-1 -0.3,-0.6 -0.8,-1 -1.1,-1 -0.2,0 -0.4,0.4 -0.4,1 z m -353,2.5 c 0,0.8 0.5,1.5 1,1.5 0.6,0 1,-0.7 1,-1.5 0,-0.8 -0.4,-1.5 -1,-1.5 -0.5,0 -1,0.7 -1,1.5 z m 114.5,-0.5 c -0.3,0.5 -0.1,1 0.4,1 0.6,0 1.1,-0.5 1.1,-1 0,-0.6 -0.2,-1 -0.4,-1 -0.3,0 -0.8,0.4 -1.1,1 z m 168.1,2.5 c -0.3,0.8 -0.1,1.5 0.4,1.5 0.6,0 1,-0.7 1,-1.5 0,-0.8 -0.2,-1.5 -0.4,-1.5 -0.2,0 -0.6,0.7 -1,1.5 z m 63.5,1.1 c -1,2.3 -0.9,3 0.4,4.3 1.4,1.4 1.7,1.4 2.5,0.1 1.3,-1.9 0.9,-6.2 -0.6,-6.7 -0.6,-0.2 -1.6,0.9 -2.3,2.3 z m -86.5,-0.1 c -1,2.7 -0.7,3.5 1.5,3.5 1.5,0 2,-0.5 1.7,-2.2 -0.4,-2.7 -2.3,-3.5 -3.2,-1.3 z m -214.9,0.2 c -0.4,0.3 -0.7,1.1 -0.7,1.7 0,0.6 0.5,0.5 1.2,-0.2 0.6,-0.6 0.9,-1.4 0.7,-1.7 -0.3,-0.3 -0.9,-0.2 -1.2,0.2 z m 57.3,0.3 c 0,0.5 0.5,1 1,1 0.6,0 1,-0.5 1,-1 0,-0.6 -0.4,-1 -1,-1 -0.5,0 -1,0.4 -1,1 z m -38,1.5 c -0.7,0.9 -0.8,1.5 -0.2,1.5 0.5,0 1.2,-0.7 1.6,-1.5 0.3,-0.8 0.4,-1.5 0.2,-1.5 -0.2,0 -0.9,0.7 -1.6,1.5 z m 43,1.6 c 0,0.5 0.5,0.7 1,0.4 0.6,-0.3 1,-0.8 1,-1.1 0,-0.2 -0.4,-0.4 -1,-0.4 -0.5,0 -1,0.5 -1,1.1 z m -67.5,0.9 c 0.4,0.6 1.1,0.8 1.6,0.5 1.4,-0.9 1.1,-1.5 -0.7,-1.5 -0.8,0 -1.2,0.5 -0.9,1 z m 20.5,0.5 c 0,0.5 0.5,1.7 1,2.5 0.5,0.8 1,1 1,0.5 0,-0.6 -0.5,-1.7 -1,-2.5 -0.5,-0.8 -1,-1.1 -1,-0.5 z m 35.5,1.5 c -0.3,0.5 0.1,1 0.9,1 0.9,0 1.6,-0.5 1.6,-1 0,-0.6 -0.4,-1 -0.9,-1 -0.6,0 -1.3,0.4 -1.6,1 z m 171,1.1 c -1,1.5 0.1,2.3 2,1.5 0.9,-0.3 1.3,-1 1,-1.6 -0.8,-1.3 -2.2,-1.3 -3,0.1 z m 65.5,0.1 c 0,1.8 1.8,3.4 2.8,2.4 0.3,-0.4 -0.2,-1.4 -1.1,-2.3 -1.6,-1.6 -1.7,-1.6 -1.7,-0.1 z m -259.5,0.8 c 0.3,0.5 0.8,1 1.1,1 0.2,0 0.4,-0.5 0.4,-1 0,-0.6 -0.5,-1 -1.1,-1 -0.5,0 -0.7,0.4 -0.4,1 z m -96.8,2.1 c -0.3,1.2 0,2.2 0.9,2.6 0.9,0.3 1.2,1.3 0.9,2.4 -0.4,1.1 -0.2,1.9 0.4,1.9 1.4,0 1.4,-3.7 0.1,-4.5 -0.7,-0.4 -0.7,-1.3 0,-2.6 0.8,-1.5 0.7,-1.9 -0.3,-1.9 -0.8,0 -1.7,0.9 -2,2.1 z m 283.1,1.6 c -2.4,0.6 -2.3,2.3 0.2,2.3 h 2.8 c 1.1,0 0.9,-2.3 -0.3,-2.5 -0.5,-0.2 -1.8,-0.1 -2.7,0.2 z m -271.8,1.3 c 0,0.5 0.5,1 1,1 0.6,0 1,-0.5 1,-1 0,-0.6 -0.4,-1 -1,-1 -0.5,0 -1,0.4 -1,1 z m 104,0.1 c 0,0.5 0.5,0.7 1,0.4 0.6,-0.3 1,-0.8 1,-1.1 0,-0.2 -0.4,-0.4 -1,-0.4 -0.5,0 -1,0.5 -1,1.1 z m -128.8999999,3.5 c 0,1.1 0.2999999,1.4 0.5999999,0.6 0.3,-0.7 0.2,-1.6 -0.1,-1.9 -0.2999999,-0.4 -0.5999999,0.2 -0.4999999,1.3 z m 299.4999999,1.9 c 0.4,0.8 1.7,1.5 3,1.5 1.5,0 2.4,-0.6 2.4,-1.5 0,-1 -1,-1.5 -3,-1.5 -2.2,0 -2.8,0.4 -2.4,1.5 z m -184.1,2.5 c 0.3,0.5 1,1 1.6,1 0.5,0 0.9,-0.5 0.9,-1 0,-0.6 -0.7,-1 -1.6,-1 -0.8,0 -1.2,0.4 -0.9,1 z m 207,0 c -0.3,0.5 -0.4,1.4 0,2 0.8,1.3 3.5,0.1 3.5,-1.6 0,-1.6 -2.6,-1.9 -3.5,-0.4 z m -24,1 c 0.3,0.5 0.8,1 1.1,1 0.2,0 0.4,-0.5 0.4,-1 0,-0.6 -0.5,-1 -1.1,-1 -0.5,0 -0.7,0.4 -0.4,1 z m -288.8,4 c 0.3,1.1 0.7,2 0.9,2 0.2,0 0.4,-0.9 0.4,-2 0,-1.1 -0.4,-2 -0.9,-2 -0.5,0 -0.7,0.9 -0.4,2 z m -5.5,1.2 c 0.6,1.8 2.8,2.1 2.8,0.4 0,-0.9 -0.7,-1.6 -1.6,-1.6 -0.9,0 -1.4,0.5 -1.2,1.2 z m 104.5,3.1 c -0.3,0.7 -0.1,2 0.3,2.8 0.7,1.1 1,1 1.6,-0.4 0.4,-1 0.2,-2.3 -0.3,-2.8 -0.7,-0.7 -1.2,-0.6 -1.6,0.4 z m -9.5,1.8 c 0.2,0.7 1,1.5 1.7,1.7 0.8,0.3 1.2,-0.1 0.9,-0.9 -0.2,-0.7 -1,-1.5 -1.7,-1.7 -0.8,-0.3 -1.2,0.1 -0.9,0.9 z m 274.3,-0.1 c 0.3,0.5 1,1 1.6,1 0.5,0 0.9,-0.5 0.9,-1 0,-0.6 -0.7,-1 -1.6,-1 -0.8,0 -1.2,0.4 -0.9,1 z m -370,1.9 c -0.3,0.5 -0.1,1.2 0.5,1.6 0.5,0.3 1,-0.1 1,-0.9 0,-1.8 -0.6,-2.1 -1.5,-0.7 z m 101.5,0.7 c 0,0.8 0.5,1.2 1,0.9 0.6,-0.4 0.8,-1.1 0.5,-1.6 -0.9,-1.4 -1.5,-1.1 -1.5,0.7 z m -8.2,1.1 c 0.7,0.3 1.6,0.2 1.9,-0.1 0.4,-0.3 -0.2,-0.6 -1.3,-0.5 -1.1,0 -1.4,0.3 -0.6,0.6 z m -96.7999999,2.4 c 0.6999999,1.1 1.3999999,1.8 1.6999999,1.5 0.8,-0.8 -0.5,-3.6 -1.6999999,-3.6 -0.7,0 -0.7,0.6 0,2.1 z m 100.9999999,-0.1 c 0,0.5 0.5,1 1,1 0.6,0 1,-0.5 1,-1 0,-0.6 -0.4,-1 -1,-1 -0.5,0 -1,0.4 -1,1 z m 4,1 c 0,0.5 0.5,1 1,1 0.6,0 1,-0.5 1,-1 0,-0.6 -0.4,-1 -1,-1 -0.5,0 -1,0.4 -1,1 z m -113.4999999,3.6 c 0.1,2.2 -0.20000002,4.2 -0.70000002,4.5 -0.7,0.4 -0.6,1.4 0.1,2.8 0.70000002,1.2 1.60000002,1.9 2.00000002,1.7 1,-0.7 0.2,-10.8 -0.9,-12 -0.5,-0.5 -0.70000002,0.9 -0.5,3 z m 107.1999999,-1.9 c -0.3,0.5 -0.2,1.5 0.2,2.2 0.7,1 1,1 1.6,0.1 0.4,-0.6 0.3,-1.6 -0.3,-2.2 -0.5,-0.5 -1.2,-0.6 -1.5,-0.1 z m 6.3,3.7 c 0,1.9 0.5,3.8 1,4.1 0.6,0.3 1,1.5 1,2.6 0,1 0.7,1.9 1.5,1.9 0.8,0 1.5,0.4 1.5,1 0,0.5 0.5,1 1,1 1.6,0 1.2,-1.4 -1.5,-5.4 -1.4,-2 -2.5,-4.8 -2.5,-6.1 0,-1.4 -0.4,-2.5 -1,-2.5 -0.5,0 -1,1.5 -1,3.4 z m 233,-1.9 c -1.1,1.3 -1.1,2 0,3.9 0.9,1.8 0.9,2.8 0,4.6 -0.9,1.8 -0.9,2.5 0.6,4.1 1.1,1.2 1.3,1.9 0.5,1.9 -0.7,0 -0.9,0.4 -0.6,1 0.3,0.5 1.5,1 2.7,1 1.6,0 1.9,-0.5 1.6,-2.5 -0.3,-1.4 -0.1,-2.8 0.3,-3.1 0.5,-0.3 0.9,-2.3 0.9,-4.5 0,-3.6 -0.2,-4 -2,-3.4 -1.8,0.6 -2,0.3 -1.4,-1.9 0.7,-2.9 -0.7,-3.4 -2.6,-1.1 z m -237,3 c 0,0.9 0.5,1.5 1.1,1.3 0.6,-0.2 1.1,-0.8 1.1,-1.3 0,-0.5 -0.5,-1.1 -1.1,-1.3 -0.6,-0.2 -1.1,0.4 -1.1,1.3 z m 244,1.4 c 0,1.6 0.5,4.2 1.1,5.8 l 1.2,2.8 0.9,-3.5 c 0.7,-2.4 0.6,-3.6 -0.1,-3.8 -0.6,-0.2 -1.1,-1.2 -1.1,-2.3 0,-1 -0.4,-1.9 -1,-1.9 -0.5,0 -1,1.3 -1,2.9 z m -247,-0.9 c 0,0.8 0.4,3.1 1,5 0.6,2.1 0.6,3.8 0.1,4.3 -0.6,0.6 -1.2,-0.5 -1.6,-2.7 -0.4,-2.1 -1.3,-3.6 -2.1,-3.6 -0.8,0 -1.4,-0.5 -1.4,-1.2 0,-0.6 -0.3,-0.9 -0.6,-0.6 -1.1,1.2 2.3,10.3 3.9,10.2 0.8,-0.1 2,1 2.6,2.4 1.1,2.4 1.1,2.4 -2,1.8 -1.7,-0.3 -4.2,-1.7 -5.5,-3.1 -2.5,-2.7 -6.4,-3.4 -6.4,-1.1 0,0.8 0.5,1.8 1,2.1 0.6,0.3 1,1.7 1,3.1 0,1.6 0.6,2.4 1.7,2.4 1.3,0 1.4,-0.3 0.5,-1.2 -1.9,-1.9 -1.4,-3.3 0.6,-1.5 2.1,1.9 4.2,2.2 4.2,0.7 0,-2.2 6.8,5.9 7.5,8.9 0.4,1.7 1.3,3.1 2.1,3.1 0.8,0 2.8,1.5 4.4,3.2 4.4,4.9 4,0.8 -0.5,-4.5 -1.9,-2.2 -3.5,-4.7 -3.5,-5.4 0,-0.8 -0.7,-2.5 -1.6,-3.8 -2.1,-3.3 -0.8,-3.2 1.8,0 1.1,1.4 2.5,2.5 3.3,2.5 0.7,0 1.5,0.7 1.9,1.5 0.3,0.8 1,1.5 1.6,1.5 0.7,0 0.8,-0.6 0,-1.9 -2.2,-4.1 -0.8,-4.4 3,-0.6 2.7,2.7 3.9,4.9 4,6.8 0,2.5 -0.2,2.7 -2.1,1.7 -1.6,-0.9 -1.8,-1.4 -0.9,-2.5 1.2,-1.5 0.6,-3.5 -1.2,-3.5 -0.5,0 -0.8,0.7 -0.4,1.5 0.3,0.8 0.1,1.5 -0.4,1.5 -1.9,0 -1,4.2 1,4.7 1.3,0.3 2,1.4 2,2.9 0,1.3 0.5,2.4 1,2.4 0.6,0 1,-1.4 1,-3.1 0,-2.2 0.5,-3.2 2,-3.6 2.2,-0.6 2.5,-1.9 1,-5.7 -0.6,-1.7 -1.4,-2.4 -2.4,-2 -1.1,0.4 -2.1,-0.5 -3.3,-3 -0.9,-2 -2,-3.6 -2.4,-3.6 -0.4,0 -1.2,-1.4 -1.8,-3 -0.5,-1.7 -1.7,-3 -2.6,-3 -1.3,0 -1.5,0.7 -0.9,3.5 0.9,4.9 -1.4,4.6 -4.9,-0.7 -2.4,-3.7 -2.5,-4.3 -1.2,-5.8 2.1,-2.3 2.1,-4.7 0,-3 -1.2,1 -1.5,1 -1.5,-0.2 0,-2 -2.9,-5.8 -3,-3.8 z m -9.5,2 c 0.3,0.5 1.1,1 1.6,1 0.6,0 0.7,-0.5 0.4,-1 -0.3,-0.6 -1.1,-1 -1.6,-1 -0.6,0 -0.7,0.4 -0.4,1 z m 293.5,0 c 0,0.5 0.5,1 1,1 0.6,0 1,-0.5 1,-1 0,-0.6 -0.4,-1 -1,-1 -0.5,0 -1,0.4 -1,1 z m -386.8999999,1.6 c 0,1.1 0.3,1.4 0.6,0.6 0.3,-0.7 0.2,-1.6 -0.1,-1.9 -0.3,-0.4 -0.6,0.2 -0.5,1.3 z m 17.3999999,0.4 c -0.3,0.5 -0.1,1 0.4,1 0.6,0 1.1,-0.5 1.1,-1 0,-0.6 -0.2,-1 -0.4,-1 -0.3,0 -0.8,0.4 -1.1,1 z m 71.5,2.5 c 0,0.8 0.5,1.5 1,1.5 0.6,0 1,-0.7 1,-1.5 0,-0.8 -0.4,-1.5 -1,-1.5 -0.5,0 -1,0.7 -1,1.5 z"
     id="path3" />
  <path
     d="m 98.07767,348.03796 c -0.4,0.6 0.1,1.7 1.1,2.5 3.4,2.4 4.6,1.3 2.1,-2 -1.5,-2 -2.2,-2.1 -3.2,-0.5 z m -8.4,0.8 c 0,0.5 0.5,1 1.1,1 0.5,0 0.7,-0.5 0.4,-1 -0.3,-0.6 -0.8,-1 -1.1,-1 -0.2,0 -0.4,0.4 -0.4,1 z m -78.5,2 c 0.3,0.5 0.8,1 1.1,1 0.2,0 0.4,-0.5 0.4,-1 0,-0.6 -0.5,-1 -1.1,-1 -0.5,0 -0.7,0.4 -0.4,1 z m 111.5,1 c 0,1.1 0.7,2 1.5,2 1.7,0 1.8,-0.2 0.9,-2.4 -0.9,-2.3 -2.4,-2 -2.4,0.4 z m -8,0.4 c 0,0.9 0.5,1.6 1,1.6 0.6,0 1,-0.4 1,-0.9 0,-0.6 -0.4,-1.3 -1,-1.6 -0.5,-0.3 -1,0.1 -1,0.9 z m 253,-0.2 c 0,0.9 0.5,2 1,2.3 1.3,0.8 1.3,-0.5 0,-2.5 -0.8,-1.3 -1,-1.3 -1,0.2 z m 17,0.8 c 0,0.5 0.5,1 1,1 0.6,0 1,-0.5 1,-1 0,-0.6 -0.4,-1 -1,-1 -0.5,0 -1,0.4 -1,1 z m -375.8999999,3.6 c 0,1.1 0.3,1.4 0.6,0.6 0.3,-0.7 0.2,-1.6 -0.1,-1.9 -0.3,-0.4 -0.6,0.2 -0.5,1.3 z m 117.8999999,0.3 c 0,2.2 1.6,3.6 2.4,2.2 0.8,-1.2 -0.3,-4.1 -1.5,-4.1 -0.5,0 -0.9,0.9 -0.9,1.9 z m 239.4,1.4 c 0.3,1 0.6,2.3 0.6,2.8 0,0.5 0.5,0.9 1,0.9 1.4,0 1.2,-1.3 -0.6,-3.6 -1.4,-1.7 -1.5,-1.7 -1,-0.1 z m -351.3,3.8 c 1.1,2.2 2.9,2.5 2.9,0.5 0,-0.7 -0.9,-1.6 -2,-1.9 -1.7,-0.4 -1.8,-0.2 -0.9,1.4 z m 357.3,0.5 c 0.3,0.9 0.6,1.8 0.6,2 0,0.2 0.5,0.4 1,0.4 0.6,0 1,-0.9 1,-2 0,-1.2 -0.7,-2 -1.6,-2 -1.1,0 -1.4,0.5 -1,1.6 z m -368.2999999,0.5 c -0.1,0.8 0.6,2.4 1.5,3.5 1.5,1.9 1.5,1.9 0.6,-0.1 -0.5,-1.1 -1.2,-2.7 -1.5,-3.5 -0.5,-1.3 -0.6,-1.3 -0.6,0.1 z m 89.0999999,0 c 0.2,0.7 1,1.5 1.7,1.7 0.8,0.3 1.2,-0.1 0.9,-0.9 -0.2,-0.7 -1,-1.5 -1.7,-1.7 -0.8,-0.3 -1.2,0.1 -0.9,0.9 z m 13.8,0.8 c 0,1.2 0.5,2.1 1,2.1 0.6,0 1,-0.6 1,-1.4 0,-0.8 -0.4,-1.8 -1,-2.1 -0.5,-0.3 -1,0.3 -1,1.4 z m -10,1 c 0,0.6 0.5,1.3 1,1.6 0.6,0.3 1,-0.1 1,-0.9 0,-0.9 -0.4,-1.6 -1,-1.6 -0.5,0 -1,0.4 -1,0.9 z m 273.5,0.1 c 0.3,0.5 0.8,1 1.1,1 0.2,0 0.4,-0.5 0.4,-1 0,-0.6 -0.5,-1 -1.1,-1 -0.5,0 -0.7,0.4 -0.4,1 z m -267.5,2.4 c 0,1.6 2.6,4.6 4,4.6 0.5,0 0.7,-0.8 0.3,-1.8 -1.4,-3.8 -4.3,-5.7 -4.3,-2.8 z m 274.3,0 c 0.4,1 0.7,2.2 0.7,2.7 0,0.5 0.4,0.9 0.9,0.9 1.2,0 0.2,-3.8 -1.2,-4.7 -0.7,-0.4 -0.8,0 -0.4,1.1 z m -268.3,2 c 0,0.8 0.5,1.8 1,2.1 0.6,0.3 1,-0.3 1,-1.4 0,-1.2 -0.4,-2.1 -1,-2.1 -0.5,0 -1,0.6 -1,1.4 z m 259,-0.5 c 0,0.6 0.5,1.3 1,1.6 0.6,0.3 1,-0.1 1,-0.9 0,-0.9 -0.4,-1.6 -1,-1.6 -0.5,0 -1,0.4 -1,0.9 z m -360.9999999,3.3 c 0,1.8 0.5,2.8 1.5,2.8 1.8,0 1.9999999,3.1 0.3,4.8 -0.9,0.9 -0.9,1.2 0,1.2 0.7,0 1.4,-0.6 1.5999999,-1.3 0.2,-0.6 0.8,-2.7 1.4,-4.5 1,-3 0.9,-3.2 -0.8,-2.7 -1.1999999,0.4 -2.1999999,-0.1 -2.8999999,-1.2 -0.9,-1.6 -1,-1.4 -1.1,0.9 z m 93.9999999,0.7 c 0,0.6 0.8,1.5 1.9,2 1,0.6 2.2,2.2 2.5,3.6 0.4,1.4 1.3,2.5 2.1,2.5 1.8,0 1.9,-1.2 0.3,-2.8 -0.7,-0.7 -1.3,-2.2 -1.3,-3.5 0,-1.7 -0.7,-2.3 -2.7,-2.5 -1.6,-0.2 -2.8,0.1 -2.8,0.7 z m 274,1.6 c 0,1.4 0.4,2.5 0.9,2.5 0.4,0 0.6,-1.1 0.3,-2.5 -0.2,-1.4 -0.6,-2.5 -0.8,-2.5 -0.2,0 -0.4,1.1 -0.4,2.5 z m 6,-1.5 c 0,0.5 0.5,1 1.1,1 0.5,0 0.7,-0.5 0.4,-1 -0.3,-0.6 -0.8,-1 -1.1,-1 -0.2,0 -0.4,0.4 -0.4,1 z m -272,1.1 c 0,1.7 2,4.9 3.1,4.9 0.5,0 0.3,-1.4 -0.6,-3 -1.6,-3.1 -2.5,-3.8 -2.5,-1.9 z m 3,0 c 0,0.6 1.4,2.4 3.1,4 1.8,1.6 2.8,3.3 2.4,3.7 -0.4,0.4 -1,0.1 -1.2,-0.6 -0.3,-0.6 -0.9,-1.2 -1.4,-1.2 -0.5,0 -0.2,1.1 0.7,2.5 0.9,1.4 2,2.5 2.5,2.5 1.8,0 0.8,-5.4 -1.7,-8.7 -2.5,-3.3 -4.4,-4.3 -4.4,-2.2 z m 19.7,-0.4 c -0.4,0.3 -0.7,1.1 -0.7,1.7 0,0.6 0.5,0.5 1.2,-0.2 0.6,-0.6 0.9,-1.4 0.7,-1.7 -0.3,-0.3 -0.9,-0.2 -1.2,0.2 z m 253.3,2.3 c 0,0.5 0.4,1 0.9,1 0.6,0 1.3,-0.5 1.6,-1 0.3,-0.6 -0.1,-1 -0.9,-1 -0.9,0 -1.6,0.4 -1.6,1 z m -262,1.5 c 0,0.8 0.5,1.5 1,1.5 0.6,0 1,-0.7 1,-1.5 0,-0.8 -0.4,-1.5 -1,-1.5 -0.5,0 -1,0.7 -1,1.5 z m 269.1,0.1 c 0,1.1 0.3,1.4 0.6,0.6 0.3,-0.7 0.2,-1.6 -0.1,-1.9 -0.3,-0.4 -0.6,0.2 -0.5,1.3 z m -291.9,1 c 0.1,0.9 0.9,1.9 1.6,2.2 0.9,0.3 1.3,-0.2 1,-1.4 -0.1,-0.9 -0.9,-1.9 -1.6,-2.2 -0.9,-0.3 -1.3,0.2 -1,1.4 z m 274.9,1.8 c 1,2.1 4.7,4.2 5.7,3.1 0.8,-0.7 -1,-4.5 -1.9,-4 -0.5,0.3 -1.8,0.1 -2.9,-0.5 -1.8,-1 -1.9,-0.9 -0.9,1.4 z m -248.1,1.4 c 0,1.9 1.8,4.2 3.2,4.2 1.2,0 0.9,-3.5 -0.4,-4.8 -1.7,-1.7 -2.8,-1.5 -2.8,0.6 z m 257,-0.8 c -1.3,0.8 -1.3,1.1 0.2,2.6 1.6,1.7 1.8,1.7 2.4,0 0.9,-2.3 -0.7,-3.8 -2.6,-2.6 z m -274,1.9 c 0,2 2.7,4.8 3.7,3.7 0.9,-0.8 -1.4,-5.6 -2.7,-5.6 -0.5,0 -1,0.8 -1,1.9 z m 12,0 c 0,1 0.7,2.1 1.5,2.5 1.1,0.4 1.5,-0.1 1.5,-1.9 0,-1.6 -0.6,-2.5 -1.5,-2.5 -0.8,0 -1.5,0.9 -1.5,1.9 z m 218,-0.5 c 0,0.5 9.8,6.6 10.6,6.6 0.3,0 0.4,-0.7 0,-1.5 -0.6,-1.7 0.9,-2.1 1.9,-0.5 0.3,0.5 1.4,1 2.3,1 1.3,0 1.2,-0.5 -0.8,-2 -1.7,-1.4 -3.4,-1.8 -5.3,-1.4 -1.9,0.4 -2.9,0.1 -3.3,-1 -0.5,-1.4 -5.4,-2.4 -5.4,-1.2 z m 36,3.5 c 0,1.2 0.5,2.1 1,2.1 0.6,0 1,-0.6 1,-1.4 0,-0.8 -0.4,-1.8 -1,-2.1 -0.5,-0.3 -1,0.3 -1,1.4 z m 5,-0.8 c 0,0.5 -0.5,0.7 -1.1,0.3 -0.8,-0.5 -1,0.1 -0.5,1.9 0.4,1.6 0.1,2.7 -0.7,3.1 -0.9,0.5 -0.9,0.7 0,1.2 0.7,0.3 1,1.1 0.7,1.9 -0.3,0.7 1,2.4 2.9,3.9 4.1,3.1 4.7,3.2 4,0.5 -0.4,-1.2 -1.1,-1.8 -2,-1.5 -1.1,0.5 -1.4,-0.4 -1.3,-4.2 0.3,-7 0.1,-8.2 -1,-8.2 -0.5,0 -1,0.5 -1,1.1 z m -261,1.9 c 0,0.5 0.5,1 1,1 0.6,0 1,-0.5 1,-1 0,-0.6 -0.4,-1 -1,-1 -0.5,0 -1,0.4 -1,1 z m -4.4,1.6 c -0.3,0.9 -0.6,1.6 -0.6,1.7 0,0.1 1.1,0.3 2.5,0.3 2.7,0.2 3.1,-0.6 1.3,-2.4 -1.6,-1.6 -2.5,-1.5 -3.2,0.4 z m 226.1,-0.9 c -1.3,1.2 -0.7,2.3 1.3,2.3 1.1,0 2,-0.7 2,-1.5 0,-1.5 -2.1,-2.1 -3.3,-0.8 z m -218.1,1.2 c -0.3,0.5 0.1,1.1 0.9,1.5 0.8,0.3 1.5,0.1 1.5,-0.4 0,-1.3 -1.8,-2.2 -2.4,-1.1 z"
     id="path4" />
  <path
     d="m 383.67767,390.53796 c 0,1.3 0.5,2.3 1,2.3 1.3,0 1.3,-1.1 0,-3 -0.8,-1.2 -1,-1.1 -1,0.7 z m -37.5,0.3 c -0.3,0.5 0.1,1 1,1 0.8,0 1.8,0.6 2.1,1.4 0.3,0.8 1.4,1.4 2.5,1.3 2.4,-0.2 2.4,-0.5 -0.3,-2.8 -2.6,-2.1 -4.4,-2.4 -5.3,-0.9 z m -222.5,3 c 0,0.8 0.5,2.2 1,3 0.9,1.3 1,1.3 1,0 0,-0.8 -0.5,-2.2 -1,-3 -0.9,-1.3 -1,-1.3 -1,0 z m 23.1,0.6 c 0,1.1 0.3,1.4 0.6,0.6 0.3,-0.7 0.2,-1.6 -0.1,-1.9 -0.3,-0.4 -0.6,0.2 -0.5,1.3 z m 223.9,0.2 c 0,2.9 -1,3.2 -4.3,1.5 -2.2,-1.1 -3.2,-1.2 -3.5,-0.4 -0.2,0.6 -1.1,1.1 -1.9,1.1 -1.3,0 -1.3,0.3 -0.3,1.5 0.7,0.8 2,1.5 3,1.5 1,0 2.3,0.7 3,1.5 1.4,1.6 5.5,2.1 4.5,0.5 -0.3,-0.6 0.4,-1 1.5,-1 1.7,0 2,-0.4 1.5,-1.8 -0.4,-0.9 -1,-2.7 -1.2,-4 -0.6,-2.6 -2.3,-3 -2.3,-0.4 z"
     id="path5" />
  <path
     d="m 367.17767,394.83796 c 0.3,0.5 1.1,1 1.6,1 0.6,0 0.7,-0.5 0.4,-1 -0.3,-0.6 -1.1,-1 -1.6,-1 -0.6,0 -0.7,0.4 -0.4,1 z m -238.5,1.4 c 0,0.9 0.5,1.6 1,1.6 0.6,0 1,-0.4 1,-0.9 0,-0.6 -0.4,-1.3 -1,-1.6 -0.5,-0.3 -1,0.1 -1,0.9 z m 246,-0.5 c 0,0.5 0.7,1.4 1.5,2.1 1.9,1.6 1.9,3 0.1,3 -2.2,0 -2.7,1.6 -1.5,4.4 1.5,3.1 4.4,3.6 3.6,0.6 -0.3,-1.1 -0.2,-2 0.3,-2 1.3,0 0.5,-6.5 -1,-7.7 -1.8,-1.5 -3,-1.6 -3,-0.4 z m -237,1.6 c 0,0.8 0.5,1.5 1,1.5 0.6,0 1,-0.7 1,-1.5 0,-0.8 -0.4,-1.5 -1,-1.5 -0.5,0 -1,0.7 -1,1.5 z m 199,-0.5 c 0,0.5 0.9,1 2.1,1 1.1,0 1.7,-0.5 1.4,-1 -0.3,-0.6 -1.3,-1 -2.1,-1 -0.8,0 -1.4,0.4 -1.4,1 z m -204.3,1.7 c -1.4,1.3 -0.6,3.3 1.3,3.3 1.1,0 2,-0.4 2,-0.9 0,-1.3 -2.6,-3.2 -3.3,-2.4 z"
     id="path6" />
  <path
     d="m 329.27767,399.33796 c -0.6,1.6 -0.4,1.7 7.4,1.9 4.8,0.1 9.1,-1.6 7.6,-3.1 -0.4,-0.4 -1.1,-0.2 -1.5,0.6 -0.6,1 -1.7,1 -4.7,0.2 -5.4,-1.5 -8.1,-1.4 -8.8,0.4 z m 19.4,-0.5 c 0,0.5 0.4,1 0.9,1 0.6,0 1.3,-0.5 1.6,-1 0.3,-0.6 -0.1,-1 -0.9,-1 -0.9,0 -1.6,0.4 -1.6,1 z m 7.5,2 c 2.2,1.1 4.7,2 5.6,2 0.9,0 2.2,0.7 2.9,1.5 1,1.2 1,1.5 -0.3,1.5 -1.3,0 -1.1,0.6 0.8,2.6 1.9,2 3.1,2.5 6.2,2.2 l 3.8,-0.3 -3,-1.7 c -2.1,-1.2 -2.5,-1.7 -1.2,-1.8 2.3,0 2.2,-2 -0.2,-2 -1.1,0 -4.1,-1.1 -6.8,-2.5 -2.6,-1.4 -6.4,-2.7 -8.3,-3 l -3.5,-0.5 z m -228.5,0 c 0,0.5 0.5,1 1,1 0.6,0 1,-0.5 1,-1 0,-0.6 -0.4,-1 -1,-1 -0.5,0 -1,0.4 -1,1 z m 8.7,1.9 c -0.5,2.2 0.1,3.3 1.4,2.5 1.2,-0.7 1.2,-4.4 0,-4.4 -0.5,0 -1.1,0.9 -1.4,1.9 z m 199.1,-0.1 c -1,0.2 -1.8,0.8 -1.8,1.3 0,0.5 -0.7,0.9 -1.5,0.9 -0.8,0 -1.5,0.4 -1.5,1 0,1.6 2.6,1.2 5.1,-0.9 2.6,-2.1 2.4,-3 -0.3,-2.3 z m 5.7,0.2 c -1.8,0.7 -1.8,0.9 -0.3,1.5 2.5,1 12.1,0.2 12.5,-1.1 0.4,-1.3 -9.2,-1.6 -12.2,-0.4 z m -217.5,1 c 0,0.5 0.5,1 1,1 0.6,0 1,-0.5 1,-1 0,-0.6 -0.4,-1 -1,-1 -0.5,0 -1,0.4 -1,1 z m 5,0.9 c 0,0.6 0.5,1.3 1,1.6 0.6,0.3 1,-0.1 1,-0.9 0,-0.9 -0.4,-1.6 -1,-1.6 -0.5,0 -1,0.4 -1,0.9 z m 4.1,0.7 c 0,1.1 0.3,1.4 0.6,0.6 0.3,-0.7 0.2,-1.6 -0.1,-1.9 -0.3,-0.4 -0.6,0.2 -0.5,1.3 z"
     id="path7" />
  <path
     d="m 359.27767,405.43796 c -0.9,2.4 -0.7,2.8 0.9,1.4 1.7,-1.4 2,-3 0.6,-3 -0.5,0 -1.2,0.7 -1.5,1.6 z m -22.4,1 c -1.4,1 -0.5,1.3 5.3,1.9 3.9,0.4 8.4,1.3 10.2,2.1 3.9,1.8 7.6,1.8 7.1,0.1 -0.9,-2.7 -19.8,-6.2 -22.6,-4.1 z m 44.8,-0.5 c 0,0.5 0.5,0.7 1,0.4 0.6,-0.3 1,-0.8 1,-1.1 0,-0.2 -0.4,-0.4 -1,-0.4 -0.5,0 -1,0.5 -1,1.1 z m -242.5,0.9 c -0.3,0.6 0.1,1.3 1,1.6 1.9,0.8 3,0 2,-1.5 -0.8,-1.4 -2.2,-1.4 -3,-0.1 z m -4.5,1 c 0,0.5 0.5,1 1,1 0.6,0 1,-0.5 1,-1 0,-0.6 -0.4,-1 -1,-1 -0.5,0 -1,0.4 -1,1 z m -20,1 c 0,0.5 0.5,1 1,1 0.6,0 1,-0.5 1,-1 0,-0.6 -0.4,-1 -1,-1 -0.5,0 -1,0.4 -1,1 z m 6.5,0 c -0.3,0.5 -0.1,1 0.4,1 0.6,0 1.1,-0.5 1.1,-1 0,-0.6 -0.2,-1 -0.4,-1 -0.3,0 -0.8,0.4 -1.1,1 z m 191.5,0 c 0,0.5 0.7,1 1.6,1 0.8,0 1.2,-0.5 0.9,-1 -0.3,-0.6 -1,-1 -1.6,-1 -0.5,0 -0.9,0.4 -0.9,1 z m -184.5,1 c 0.3,0.5 1.1,1 1.6,1 0.6,0 0.7,-0.5 0.4,-1 -0.3,-0.6 -1.1,-1 -1.6,-1 -0.6,0 -0.7,0.4 -0.4,1 z m 205,0 c 0.3,0.5 0.8,1 1.1,1 0.2,0 0.4,-0.5 0.4,-1 0,-0.6 -0.5,-1 -1.1,-1 -0.5,0 -0.7,0.4 -0.4,1 z m -200.4,1.6 c 0,1.1 0.3,1.4 0.6,0.6 0.3,-0.7 0.2,-1.6 -0.1,-1.9 -0.3,-0.4 -0.6,0.2 -0.5,1.3 z m 6.9,0.9 c 0,0.8 0.7,1.5 1.5,1.5 0.8,0 1.5,-0.7 1.5,-1.5 0,-0.8 -0.7,-1.5 -1.5,-1.5 -0.8,0 -1.5,0.7 -1.5,1.5 z m 5,0 c 0,0.8 0.5,1.5 1,1.5 0.6,0 1,-0.7 1,-1.5 0,-0.8 -0.4,-1.5 -1,-1.5 -0.5,0 -1,0.7 -1,1.5 z m 165,-0.4 c 0,2.2 3.3,3.8 5.4,2.7 1.9,-1 1.9,-1.1 0.1,-2.4 -2.3,-1.7 -5.5,-1.8 -5.5,-0.3 z m 29.3,1.1 c -3.2,1.9 -4.3,3.8 -2.3,3.8 0.6,0 1,-0.5 1,-1 0,-0.6 1,-1 2.3,-1 1.2,0 2.8,-0.9 3.5,-2 1.6,-2.6 -0.1,-2.6 -4.5,0.2 z m 8.7,-1.6 c 0,2.5 6.5,5.7 10.1,4.9 2.1,-0.5 3.6,-0.1 5.5,1.4 2.9,2.3 4.4,2.7 4.4,1.1 0,-0.5 -1.2,-1.3 -2.6,-1.6 -1.6,-0.4 -2.3,-1.2 -2,-2 0.4,-1 -0.4,-1.4 -3,-1.4 -1.9,0 -5.1,-0.7 -7.1,-1.5 -3.8,-1.6 -5.3,-1.9 -5.3,-0.9 z m 17,0.4 c 0,0.5 0.5,1 1.1,1 0.5,0 0.7,-0.5 0.4,-1 -0.3,-0.6 -0.8,-1 -1.1,-1 -0.2,0 -0.4,0.4 -0.4,1 z m -33.3,0.7 c -1.3,1.3 -0.7,3.2 0.8,2.7 0.8,-0.4 1.5,-1.2 1.5,-2 0,-1.5 -1.2,-1.9 -2.3,-0.7 z m 42.8,2.3 c 0.3,0.5 0.8,1 1.1,1 0.2,0 0.4,-0.5 0.4,-1 0,-0.6 -0.5,-1 -1.1,-1 -0.5,0 -0.7,0.4 -0.4,1 z m -224,1 c 0.3,0.5 0.8,1 1.1,1 0.2,0 0.4,-0.5 0.4,-1 0,-0.6 -0.5,-1 -1.1,-1 -0.5,0 -0.7,0.4 -0.4,1 z m 216.3,-0.3 c 0.7,0.3 1.6,0.2 1.9,-0.1 0.4,-0.3 -0.2,-0.6 -1.3,-0.5 -1.1,0 -1.4,0.3 -0.6,0.6 z m 10.2,0.4 c 0,0.5 0.5,0.7 1,0.4 0.6,-0.3 1,-0.8 1,-1.1 0,-0.2 -0.4,-0.4 -1,-0.4 -0.5,0 -1,0.5 -1,1.1 z m -231,0.9 c 0,0.5 0.5,1 1.1,1 0.5,0 0.7,-0.5 0.4,-1 -0.3,-0.6 -0.8,-1 -1.1,-1 -0.2,0 -0.4,0.4 -0.4,1 z m 162.4,0.1 c -0.3,0.6 -1.7,0.8 -3,0.5 -2.4,-0.6 -3.5,0.9 -1.1,1.7 0.9,0.3 0.9,0.7 -0.1,2 -0.8,0.9 -1,2.2 -0.6,2.8 0.5,0.9 1.1,0.7 2,-0.6 0.7,-0.9 2.7,-2 4.5,-2.4 3.4,-0.7 5.3,-3.1 2.5,-3.1 -0.9,0 -1.6,-0.5 -1.6,-1 0,-1.3 -1.7,-1.3 -2.6,0.1 z m -14.1,1.4 c -0.8,2.2 -0.1,2.6 3.5,1.9 1.8,-0.4 3.2,-1.3 3.2,-2 0,-2 -5.9,-1.8 -6.7,0.1 z m 35.7,0.5 c 0,0.5 0.7,1 1.5,1 0.8,0 1.5,-0.5 1.5,-1 0,-0.6 -0.7,-1 -1.5,-1 -0.8,0 -1.5,0.4 -1.5,1 z m 27,-0.2 c 0,0.4 0.4,1.3 0.9,2 0.9,1.5 4.2,1.3 4.1,-0.3 0,-1.1 -5,-2.7 -5,-1.7 z m 13.9,0.9 c 0.9,1.6 7.1,2.9 7.1,1.4 0,-0.8 -5,-3.1 -6.7,-3.1 -1,0 -1.1,0.5 -0.4,1.7 z m -230.9,1.3 c 0,0.5 0.5,1 1,1 0.6,0 1,-0.5 1,-1 0,-0.6 -0.4,-1 -1,-1 -0.5,0 -1,0.4 -1,1 z m 12.8,1.5 c -0.3,1.4 -0.2,2.5 0.2,2.5 1.1,0 2,-3.9 1,-4.5 -0.4,-0.3 -1,0.6 -1.2,2 z m 145.9,-0.9 c -0.8,0.8 0.1,2.4 1.3,2.4 0.4,0 1,-0.7 1.4,-1.5 0.5,-1.5 -1.4,-2.1 -2.7,-0.9 z m 66.5,0.1 c -2.6,0.5 -2,2.3 0.9,2.3 1,0 1.9,-0.7 1.9,-1.5 0,-0.8 -0.1,-1.4 -0.2,-1.4 -0.2,0.1 -1.3,0.4 -2.6,0.6 z m -52.8,1.4 c -0.3,0.6 -0.1,1.6 0.5,2.2 0.8,0.8 1.1,0.5 1.1,-1.1 0,-2.4 -0.5,-2.8 -1.6,-1.1 z m 41.2,-0.2 c -0.3,0.5 0.1,1.1 0.9,1.5 0.9,0.3 1.5,0 1.5,-0.9 0,-1.6 -1.6,-2 -2.4,-0.6 z m -18,1.7 c -0.5,1.4 -0.4,1.5 0.9,0.4 1.7,-1.4 1.9,-2 0.6,-2 -0.5,0 -1.2,0.7 -1.5,1.6 z m 13.9,-0.6 c -0.3,0.5 0.1,1 0.9,1 0.9,0 1.6,-0.5 1.6,-1 0,-0.6 -0.4,-1 -0.9,-1 -0.6,0 -1.3,0.4 -1.6,1 z m -203.1,1.6 c 0.3,0.9 0.6,1.8 0.6,2 0,0.3 0.5,0.2 1,-0.1 1.6,-1 1.2,-3.5 -0.6,-3.5 -1.1,0 -1.4,0.5 -1,1.6 z m 162.3,-0.9 c -0.4,0.3 -0.7,1.1 -0.7,1.7 0,0.6 0.5,0.5 1.2,-0.2 0.6,-0.6 0.9,-1.4 0.7,-1.7 -0.3,-0.3 -0.9,-0.2 -1.2,0.2 z m 31.3,0.3 c 0,0.5 0.7,1 1.5,1 0.8,0 1.5,-0.5 1.5,-1 0,-0.6 -0.7,-1 -1.5,-1 -0.8,0 -1.5,0.4 -1.5,1 z m 17.5,0 c -0.3,0.6 0.1,1.3 1,1.6 1.9,0.8 3,0 2,-1.5 -0.8,-1.4 -2.2,-1.4 -3,-0.1 z m 15.8,-0.3 c -2,0.7 -1.5,2.3 0.7,2.3 1.1,0 2,-0.4 2,-0.9 0,-1.3 -1.2,-1.9 -2.7,-1.4 z m -84.3,1.5 c 0,0.7 0.4,1.9 0.9,2.7 1.1,1.7 2.5,-0.3 1.7,-2.4 -0.7,-1.8 -2.6,-2 -2.6,-0.3 z m -176,0.7 c 0,0.5 0.7,1.4 1.5,2.1 1.8,1.5 4.2,-0.1 3.1,-1.9 -0.8,-1.3 -4.6,-1.5 -4.6,-0.2 z m 112.3,2 c -2.5,2.1 -2.9,3.6 -1.3,4.6 1.5,0.9 6,-2.5 6,-4.6 0,-2.4 -1.9,-2.4 -4.7,0 z m 119.2,-0.9 c 0.3,0.5 1.5,1 2.5,1 1,0 2.2,-0.5 2.5,-1 0.4,-0.6 -0.7,-1 -2.5,-1 -1.8,0 -2.9,0.4 -2.5,1 z m 10.3,1.2 c 0.9,0.9 1.5,0.9 2.4,0 0.9,-0.9 0.7,-1.2 -1.2,-1.2 -1.9,0 -2.1,0.3 -1.2,1.2 z"
     id="path8" />
  <path
     d="m 362.07767,429.23796 c -0.3,0.8 -1.6,1.6 -2.7,1.6 -1.2,0 -3.1,0.1 -4.2,0.2 -1.1,0 -2.8,-0.3 -3.8,-0.7 -1.3,-0.6 -1.6,-0.4 -1.1,0.9 0.8,2.1 -1.7,5 -5.7,6.6 -3.3,1.4 -3.8,3 -1,3 1.3,0 1.8,0.5 1.5,1.7 -0.3,1.1 0.3,2.3 1.4,3 1.6,1 2.7,0.8 5.8,-0.9 2.2,-1.2 4.9,-2.1 6.2,-2 1.8,0.1 2.4,-0.5 2.9,-2.8 0.3,-1.7 0.9,-3 1.4,-3 0.7,0 7.9,-6.6 7.9,-7.3 0,-0.2 -0.8,-0.3 -1.7,-0.4 -1,-0.1 -2.8,-0.4 -4,-0.8 -1.6,-0.5 -2.5,-0.3 -2.9,0.9 z m -210.7,1.7 c -1,3.5 -0.9,3.8 1.3,3.2 2.4,-0.6 2.5,-1.3 0.7,-3.8 -1.3,-1.7 -1.4,-1.7 -2,0.6 z m 22.3,-0.6 c 0,0.8 0.6,1.5 1.4,1.5 0.8,0 1.6,-0.7 2,-1.5 0.4,-1 -0.1,-1.5 -1.4,-1.5 -1.1,0 -2,0.7 -2,1.5 z m 32.5,-0.5 c -0.3,0.5 -1.5,1 -2.6,1 -1.1,0 -1.7,0.4 -1.4,1 0.3,0.5 1,1 1.4,1 1.4,0 5.7,-3.9 4.4,-4 -0.6,0 -1.5,0.4 -1.8,1 z m 130.5,0 c 0,0.5 0.5,1 1,1 0.6,0 1,-0.5 1,-1 0,-0.6 -0.4,-1 -1,-1 -0.5,0 -1,0.4 -1,1 z m 4,0.5 c -0.9,1.1 -1,1.9 -0.3,2.6 0.7,0.7 1.4,0.5 2.3,-0.6 0.9,-1.1 1,-1.9 0.3,-2.6 -0.7,-0.7 -1.4,-0.5 -2.3,0.6 z m -87.4,3.7 c -0.4,1 -1.6,2 -2.7,2.3 -2.6,0.9 -4.4,4.2 -2.2,4.2 2.2,0 6.5,-4.6 6,-6.5 -0.4,-1.6 -0.5,-1.6 -1.1,0 z m 119.4,0.3 c 0,0.8 0.5,1.5 1,1.5 0.6,0 1,-0.7 1,-1.5 0,-0.8 -0.4,-1.5 -1,-1.5 -0.5,0 -1,0.7 -1,1.5 z m -273,0.4 c 0,0.6 0.5,1.3 1,1.6 0.6,0.3 1,-0.1 1,-0.9 0,-0.9 -0.4,-1.6 -1,-1.6 -0.5,0 -1,0.4 -1,0.9 z m -12,1.6 c 0,0.8 0.5,1.5 1,1.5 0.6,0 1,-0.7 1,-1.5 0,-0.8 -0.4,-1.5 -1,-1.5 -0.5,0 -1,0.7 -1,1.5 z m 17.6,0.3 c -0.8,1.3 0.5,5.3 1.5,4.6 1.2,-0.7 1.2,-4.1 0,-4.9 -0.5,-0.3 -1.2,-0.2 -1.5,0.3 z m 6,2.8 c -1.8,2.3 -2.6,4.3 -2.3,5.6 0.6,2.2 -1.3,5.9 -4.7,9.3 -1.9,1.9 -1.9,1.9 1.2,3.2 4.2,1.7 4.1,3.5 -0.1,3.2 -2.4,-0.2 -4.3,0.4 -6.6,2.2 -3,2.4 -3.1,2.6 -1.4,4.1 1.5,1.4 2.5,1.5 6.1,0.5 4.1,-1.1 5.7,-2.7 2.7,-2.7 -0.8,0 -1.5,-0.4 -1.5,-0.9 0,-0.5 0.7,-1.1 1.5,-1.5 0.9,-0.3 1.5,0 1.5,0.8 0,1.9 3.3,4.6 5.8,4.6 1.2,0 2.3,-0.8 2.7,-2 0.3,-1.1 1.3,-2 2.1,-2 0.8,0 1.7,-1.3 2,-2.9 0.6,-2.9 0.7,-3 3,-1.4 1.8,1.1 2.3,2.1 1.9,3.7 -0.5,1.7 -0.4,1.8 0.4,0.6 0.7,-1 1.1,-1.1 1.1,-0.3 0,0.7 0.8,1.3 1.8,1.3 2.9,0 1.6,-5.5 -1.9,-8.4 -1.6,-1.4 -2.9,-3 -2.9,-3.7 0,-1 0.3,-1 1.2,-0.1 1.8,1.8 3.8,1.4 3.8,-0.7 0,-1.9 -6.2,-8.1 -8,-8.1 -0.6,0 -1,-0.7 -1,-1.6 0,-1.4 0.2,-1.4 1.6,-0.3 1.4,1.2 1.6,1.1 1.2,-0.6 -0.4,-2 -1.9,-2.3 -5,-1 -1.4,0.5 -1.8,0.2 -1.8,-1.3 0,-3.4 -1.4,-3.3 -4.4,0.4 z m 144.1,-2.9 c -1.4,1.3 -0.6,2.3 1.7,2.3 1.3,0 2.9,-0.7 3.6,-1.5 1.1,-1.3 0.8,-1.5 -1.7,-1.5 -1.6,0 -3.3,0.3 -3.6,0.7 z m 23.8,0.3 c -0.3,0.5 -0.1,1 0.4,1 0.6,0 1.1,-0.5 1.1,-1 0,-0.6 -0.2,-1 -0.4,-1 -0.3,0 -0.8,0.4 -1.1,1 z"
     id="path9" />
</svg>
