<svg version="1.0" xmlns="http://www.w3.org/2000/svg" width="853.333" height="1706.667" viewBox="0 0 640 1280"><path d="M296 144.9c-1.6.4-2.5 1.4-2.5 2.6 0 1.4-.7 1.9-2.2 1.8-3.9-.4-9.2 2.6-12 6.9-4.1 6-6.2 10.1-6.3 12 0 .9-1.3 2.6-2.9 3.7-2 1.5-2.8 2.7-2.4 4 .3 1.3-.2 2.3-1.7 3.1-1.5.8-2 1.8-1.7 3.1.4 1.3-.2 2.5-1.7 3.4-1.3.9-2.8 2.6-3.4 4-.6 1.3-3.1 4.8-5.5 7.8-5.7 7-9.1 17.2-9.1 27.6 0 9.3 1.2 16 3.2 18.3 1.1 1.3 1.2 2.1.4 3.1-.7.8-.7 1.8-.2 2.7.6.8 1 2.7 1 4.1 0 3.2 2.7 9.9 3.9 9.9 1.2 0 3.4 5.7 6.1 15.7 2.2 8.3 5 12 8.3 10.7 3.2-1.2 6.6 1.4 8 6.1.9 3.1 2.1 5 3.7 5.8 1.5.8 2.7 2.4 3 4.2.4 2.4 1 3 3 2.9 1.4-.1 3.2-.4 4.1-.8 2.2-1 4.7 3.7 3 5.7-.6.8-.9 2.2-.5 3.1.4 1.2.2 1.5-.9 1.1-2.1-.9-3.7 4.3-2.8 9.2 1 5.1 1.8 6.3 4.3 6.3 1.5 0 1.9.5 1.5 2-.4 1.5 0 2 1.4 2 1.1 0 3.4.7 5 1.6 2.8 1.4 3.3 1.4 7.4-.6 2.7-1.3 5.9-2 8-1.9 2.7.3 3.9-.2 5.1-1.9.8-1.2 2-2.2 2.5-2.2 1.6 0 4.8-4.2 4.9-6.3 0-1.1 1.2-2.2 3-2.8 3.5-1.3 4.1-4.4.9-5.4-1.6-.5-2.7.1-4.8 2.6-2.2 2.5-3.2 3.1-5.2 2.6s-2.4-1.3-2.6-4.8c-.1-2.6.5-4.8 1.3-5.7.8-.8 1.8-2.7 2.1-4.3.3-1.6 1-2.9 1.5-2.9.6 0 .7 1.1.4 2.5-.5 2-.3 2.5 1.3 2.5 2.3 0 9.4-7.9 8.7-9.7-.8-1.9.4-4.3 2-4.3.7 0 1.9-1 2.5-2.3.6-1.2 2.3-3.4 3.6-4.9 2.3-2.4 2.4-3 1.5-5.8-1.3-3.7-.5-9 1.4-9 1.8 0 1.8-1-.1-2.4-1.2-.9-1.3-2-.4-6.6 1-5.6 3.1-25.7 4.8-47.4.8-9.6.7-12.3-.4-14-.8-1.2-1.9-5.9-2.5-10.6-.6-4.7-2.1-11-3.2-14s-2.6-7.5-3.4-9.8c-1.9-6.2-7.3-15.2-9-15.2-.8 0-4.2-1.3-7.7-2.9-8.5-3.9-12.6-5.1-17.5-5.1-2.2 0-4.4-.5-4.7-1-.7-1.1-1.8-1.1-5.5-.1zm17 171.6c.9.5-.1 7.5-1 7.5-.4 0-1-.9-1.3-2-.4-1.5-1.4-2-3.6-2-1.7 0-3.1-.5-3.1-1 0-.6-.7-1-1.5-1-1.6 0-2-1.2-.7-2.4.6-.7 9.8 0 11.2.9zm5 8.3c0 .5-.7 1.7-1.6 2.8-.8 1-1.4 1.4-1.1.9.2-.6.7-1.8 1-2.8.7-1.7 1.7-2.3 1.7-.9zM409.7 161.7c-.4.3-.7 1.5-.7 2.5s-.7 1.8-1.7 1.8c-3.6.1-6.3 2.7-14.8 14-4.8 6.3-9.8 12.7-11.1 14.1-1.3 1.4-2.2 2.8-1.9 3 .2.3-.7 3.6-2.1 7.5-1.5 3.8-2.9 8.5-3.3 10.4-1 4.5-5.9 18.6-7.8 22.3-4.7 9.1-7.4 34.9-5.2 48.6.6 3.6 1.2 8.3 1.4 10.5.2 2.1 1 4.6 1.8 5.5.8.9 2 4 2.7 6.9.7 3.3 1.9 5.6 3.1 6.3 1.1.5 2.7 2.8 3.5 4.9 1.7 4.2 2.7 4.8 14 7.3 5.6 1.3 6.3 1.2 8.4-.5 1.2-1 2.8-1.8 3.6-1.8 2.2 0 12.9-5.8 15-8.1 1-1.1 3.2-2.8 4.7-3.6 4.9-2.5 23.6-17.6 24.3-19.5.3-1 1.2-1.8 2-1.8s1.4-.7 1.4-1.5.5-1.5 1-1.5c.6 0 1-.7 1-1.5s.9-1.9 2-2.5c1.5-.8 1.9-1.7 1.5-3.1-.5-1.4 0-2.2 1.7-3 3.3-1.4 6-9.1 6-16.7 0-1.2.4-2.2.9-2.2 1.2 0 1.1-3.7-.2-6.1-.8-1.5-.7-2.6.4-4.2.8-1.3 1.4-4.7 1.4-8 0-4.6-.4-6-1.8-6.8-2.3-1.2-2.5-5.7-.3-6.6 1.2-.4 1.1-.8-.8-1.7-1.5-.8-2.2-1.9-2-3.3.2-1.2-.4-2.3-1.5-2.7-1.5-.6-1.5-.8.7-1.9 3.5-1.8 3.5-3.3 0-4.7-2.8-1.2-3.3-1.1-5.5 1-2.9 2.7-3.2 1.5-1-3.7.8-1.9 1.5-4.4 1.5-5.4 0-1.1.5-1.9 1-1.9.6 0 1.9-1.4 3-3.2 1.7-2.8 1.7-3.4.5-4.8-2-2.2-5.5-10.1-5.5-12.5 0-2.4-5.6-9.5-7.5-9.5-.7 0-2.7-1.8-4.4-3.9-2.3-2.8-3.7-3.8-5.1-3.4-1.3.3-2.9-.5-4.8-2.7-2.5-2.7-3.3-3-5-2.1-1.3.7-3.8.7-7.8.1-3.3-.6-5.9-1-6-1 0 0-.4.3-.7.7zM394.5 195c.3.5.1 1-.4 1-.6 0-1.1-.5-1.1-1 0-.6.2-1 .4-1 .3 0 .8.4 1.1 1zm5.3 6c-.7 1-1.4 1.8-1.5 1.6-.6-.6.9-3.6 1.8-3.6.5 0 .4.9-.3 2zM362.2 226.8c-2.4 1.9-2.1 3.2.8 3.2 1.6 0 5-2.9 5-4.3 0-1.3-3.5-.6-5.8 1.1zM363.5 233c-.3.5-.1 1 .4 1 .6 0 1.1-.5 1.1-1 0-.6-.2-1-.4-1-.3 0-.8.4-1.1 1zM202 259.9c0 .5.7 1.2 1.6 1.5 1.4.5 1.4.9.3 2.2-1.1 1.4-1 1.9 1.1 3.6 1.9 1.5 2.2 2.3 1.3 3.6-1.4 2.4-6.4 2.8-7.9.7-1.2-1.5-1.4-1.5-3.8 0-1.4 1-2.6 2.4-2.6 3.1 0 .8-.6 1.4-1.3 1.4-.7 0-2.9 1.7-4.9 3.7-3.7 3.9-4.3 6.8-2.2 11.7.6 1.5-.1 2.7-3.1 5.3-3.9 3.4-3.9 3.4-1.5 4.1 2.5.6 2.5.6-.5 1.3-2.6.6-2.3.7 1.8.8 5.6.1 6.1 1.7 1.7 4.9-3.3 2.4-3.9 4.2-1.5 4.2.8 0 1.5.6 1.5 1.3 0 .7 1.2 1.2 2.8 1.2 4.5 0 3.8 1.8-2.3 5.4-5.5 3.2-5.7 3.4-3.6 4.5 1.2.7 1.8 1.5 1.5 1.9-.4.4-.2.7.4.7.7 0 1.2-.5 1.2-1 0-.6.5-1 1-1 .6 0 1 .7 1 1.5s.6 1.5 1.3 1.5c.8 0 .7.3-.3 1-.9.6-1.9.5-2.9-.3-.9-.7-.7 0 .5 1.8 1.8 2.8 1.8 2.9 0 2.2-1.3-.5-1.7-.3-1.3.7.3.8-.2 1.6-1.4 1.9-2.3.6-5.5-3-6.4-7.3-.4-1.7-1.1-3-1.6-3-.6 0-.7.4-.4 1 .3.5.1 1-.4 1-2 0-1.1 3.1 1.9 6.3 1.6 1.8 3 3.5 3 3.9 0 1.5-2.1 1.8-4.1.7-1.7-.9-2.3-.8-3 .2-.8 1.2-1 1.2-1.8 0-.6-.9-1.4-1.1-2.6-.4-1.6.9-1.4 1.2 1.4 2.9 1.8 1.1 3.1 2.7 3.1 3.8 0 1.6.3 1.7 1.2.8.7-.7 1.9-1.2 2.7-1.1 1.1 0 1.2.2.3.6-.6.2-1 .9-.6 1.4.3.5-.2.9-1.2.9-1.2 0-1.5.6-1.1 2.1.3 1.3.1 1.9-.6 1.6-.7-.2-1.1-1.2-1.1-2.1.1-.9-.4-1.6-1-1.6-.8 0-1.1 1.3-.8 3.6.3 2.6.7 3.2 1.3 2.3.8-1.1 1.5-.7 3.4 1.6 1.4 1.6 2.3 3.5 2.1 4.2-.3.6.2 1.7 1 2.4 1.2 1 1.7.9 2.7-.1.8-.9.8-1.1.1-.7-1.6.9-2.2-1.2-1.3-4.8l.7-3 .1 3.1c0 1.8.7 3.4 1.6 3.8 1.8.7 2 4.6.3 4.7-.7.1-2.1.1-3 0-1.4-.2-1.8.5-1.8 2.9 0 2.1-.4 3-1.2 2.7-.7-.2-1.4-.9-1.4-1.5-.1-.7-.2-1.7-.3-2.2-.2-1.6-2.1-1.2-2.1.4 0 .9-.7 1.3-2 1.1-3.7-.7-3.1 1.6 1.9 6.5 2.8 2.9 5.2 4.6 5.6 4 1.4-2.3 2.4.3 1.8 5.1-.5 4.2-.3 4.9 1 4.4.8-.4 1.8-.2 2.2.4.3.7-.2 1.1-1.4 1.1-1.1 0-2.3.4-2.6 1-.9 1.4 2.9 1.2 4.3-.2 2-2 4.4-1.8 6.4.8 2.3 2.9 7.2 3.3 8.4.6.4-.9.6-2 .6-2.5-.1-.4.3-.7.8-.7 1.5 0 1.2-1.9-.6-3.8-1.5-1.5-1.6-1.4-.9.7.6 2 .4 2.3-1 1.8-.9-.4-2.1-.7-2.7-.7-.5 0-.8-1-.6-2.3.2-1.4.9-2.2 2-2.1 1 .1 1.7-.1 1.6-.5-.2-2.2.3-4.1 1.1-3.6.5.3 1.3 0 1.6-.6.4-.5 1.4-.8 2.2-.5.9.4 1.3.1 1-.6-.2-.7-1.2-1.2-2.1-1.2-1.3.2-1.4-.1-.6-1.1.8-.9.8-1.5 0-2-.5-.3-1-.3-1 .1 0 .3-.6.1-1.4-.5-1-.9-1.6-.9-2.1-.1s-1.1.8-2.1-.1c-.7-.6-2.1-.9-2.9-.5-1.3.5-1.4.2-.4-1.6.9-1.7.9-2.3 0-2.6-1.1-.4-1.6-4.2-.5-4.2.4 0 2.2 1.3 4.1 3 3.5 3.1 6.8 3.9 7.6 1.7.3-.6.3.3 0 2-.3 2.1-.1 3.3.6 3.3.6 0 1 .5.8 1.2-.1.6.5 1.3 1.4 1.5 1.3.3 1.6-.5 1.7-3.9 0-6.1 0-6.2 1.7-4.8.9.7 1.5.8 1.5.2 0-.5 1.8-1.2 4.1-1.4 3.7-.3 4.1-.1 5.6 3 1.2 2.5 1.8 3 2.5 2 .6-.8.7 0 .3 2.4-.7 4.3.9 6.8 3.8 6 1.6-.4 1.8-.1 1.3 1.6-1 2.9 1.2 3.8 3.5 1.3 2-2.2 2.6-5.1.9-5.1-1.5 0-1.2-3.6.5-5 .8-.6 1.4-1.9 1.3-2.8-.3-3.7.3-5.2 1.9-5.2 1.4 0 1.4-.3.5-1.2-1-1-1.5-1-2.2.2-.5.8-1.2 1.1-1.6.7-1.1-1 1.6-3.7 3.7-3.7 1.1 0 1.9.7 2 1.7 0 1.4.2 1.3.9-.5.6-1.4.6-3.2-.1-4.9-1.2-3.3.2-5.3 2.5-3.4 1.8 1.5 3.7.6 3-1.3-.3-.8-.1-1.7.5-2.1.6-.3 1.1.1 1.1.9 0 1.6 2.6 4.6 4.1 4.6.5 0 .9-2.5.9-5.6 0-4.1-.5-6.3-2-8.1-2.7-3.4-2.5-4.5.5-3.7 1.9.5 2.5.2 2.5-1 0-2-3.2-3.5-3.8-1.8-.2.7-1 1.2-1.8 1.2-1 0-1.3.7-.8 2.5.4 1.6.2 2.5-.6 2.5-.6 0-.9.3-.6.8.2.4-.7 1.2-2 1.9-1.9.9-2.4.8-2.4-.3 0-.8.4-1.4.9-1.4s1.1-1.5 1.5-3.3c.6-2.7.2-3.6-1.9-5.5-1.5-1.2-3-2-3.5-1.7-1 .6-1.4-.6-3-9-.7-3.3-1.5-6.7-1.8-7.5-.3-.8-.7-2.5-.8-3.7-.2-1.3-1.7-5.1-3.4-8.5-1.7-3.5-3.7-7.4-4.4-8.8-.9-1.9-1-3.1-.2-4.3.9-1.5.7-2.1-.9-3.3-1.1-.9-1.9-1.8-1.9-2.2.1-.4.4-1.9.8-3.5.7-3-.9-3.7-2.8-1.2-1 1.4-1.6 1.1-4.5-1.9-2.8-2.9-3-3.4-1.2-2.9 1.2.3 2.1.1 2.1-.6 0-.6-.5-1.1-1.1-1.1-.6 0-.9-.9-.6-2 .3-1.3-.3-2.4-1.9-3.5-2.7-1.7-3.2-3.5-.9-3.5 2.6 0 1.6-1.8-1.5-2.9-1.6-.5-3-.6-3-.2zM212 259.9c0 .5.5 1.3 1 1.6.6.3 1 .2 1-.4 0-.5-.4-1.3-1-1.6-.5-.3-1-.2-1 .4zM216 261.9c0 .4 1.1 2.5 2.5 4.5 2.8 4.1 3.1 5.6 1.4 7.3-.8.8-.8 1.6 0 3 1 1.7 1 1.7 1.1-.3 0-1.2.7-2.7 1.5-3.4 2.2-1.8 1.9-3.7-1.2-8.1-2.6-3.5-5.3-5.1-5.3-3z"/><path d="M211.2 266.1c.5 1.4 6.8 5.3 6.8 4.2 0-.7-2.6-2.8-5.4-4.4-1.4-.8-1.7-.8-1.4.2zM211 270.4c0 .2.7.9 1.5 1.6 1.2 1 1.5 1 1.5-.4 0-.9-.7-1.6-1.5-1.6s-1.5.2-1.5.4zM223.1 276.7c0 2.5.1 2.6.9.8 1.2-2.7 1.2-3.5 0-3.5-.5 0-1 1.2-.9 2.7zM353 279c0 .5.5 1 1 1 .6 0 1-.5 1-1 0-.6-.4-1-1-1-.5 0-1 .4-1 1zM226 281c0 .5.5 1 1.1 1 .5 0 .7-.5.4-1-.3-.6-.8-1-1.1-1-.2 0-.4.4-.4 1zM177.8 283.7c.7.3 1.6.2 1.9-.1.4-.3-.2-.6-1.3-.5-1.1 0-1.4.3-.6.6zM224 286c0 .5.5 1 1.1 1 .5 0 .7-.5.4-1-.3-.6-.8-1-1.1-1-.2 0-.4.4-.4 1zM227 286c0 .5.5 1 1.1 1 .5 0 .7-.5.4-1-.3-.6-.8-1-1.1-1-.2 0-.4.4-.4 1zM347.7 287.7c-1 .9-.9 2.3.2 2.3.5 0 1.1-.7 1.5-1.5.5-1.5-.5-2-1.7-.8zM229 291.3c0 .7.7 2.2 1.6 3.3 1.4 1.7 1.5 1.7 1 .1-.3-1-.6-2.5-.6-3.3 0-.8-.4-1.4-1-1.4-.5 0-1 .6-1 1.3zM138 293.6c0 .8.5 1.2 1 .9.6-.4.8-1.1.5-1.6-.9-1.4-1.5-1.1-1.5.7zM222 292.9c0 .6.5 1.3 1 1.6.6.3 1-.1 1-.9 0-.9-.4-1.6-1-1.6-.5 0-1 .4-1 .9zM177 294.5c-1 1.2-1 1.5.4 1.5.9 0 1.6-.7 1.6-1.5s-.2-1.5-.4-1.5-.9.7-1.6 1.5zM226 296.5c-1.8 2.1-.3 3.2 1.6 1.3 1-.9 1.2-1.8.6-2.2-.5-.3-1.5.1-2.2.9zM150.1 300.6c0 1.1.3 1.4.6.6.3-.7.2-1.6-.1-1.9-.3-.4-.6.2-.5 1.3zM172.7 302.4c-.6 1.6.2 2.8 1.4 2 1.2-.7 1.1-3.4 0-3.4-.5 0-1.1.6-1.4 1.4zM133 303c-1.3.8-1.2 1 .3 1 .9 0 1.7-.5 1.7-1 0-1.2-.1-1.2-2 0zM228.6 302.9c-.3.5.5 1.6 1.9 2.5 2.1 1.4 2.5 1.4 2.5.2 0-1.8-3.6-4-4.4-2.7zM435.5 303c-.3.5-.1 1 .4 1 .6 0 1.1-.5 1.1-1 0-.6-.2-1-.4-1-.3 0-.8.4-1.1 1zM174.8 307.7c-1 1.1-1.8 2.4-1.8 3 0 .6-.7 1.3-1.5 1.7-1.6.6-2.1 2.6-.6 2.6 2.1 0 6.2-4.9 5.9-7.1-.3-2.1-.3-2.1-2-.2zM241 313.2c0 .7.4 1.9.8 2.6 1.1 1.7 4.5.4 3.8-1.5-.3-.8-.6-1.7-.6-1.9 0-.2-.9-.4-2-.4s-2 .6-2 1.2zM176.5 314c.3.5 1 1 1.6 1 .5 0 .9-.5.9-1 0-.6-.7-1-1.6-1-.8 0-1.2.4-.9 1zM235.5 316c-.3.5.1 1 .9 1 .9 0 1.6-.5 1.6-1 0-.6-.4-1-.9-1-.6 0-1.3.4-1.6 1zM164 317c0 .5.5 1 1 1 .6 0 1-.5 1-1 0-.6-.4-1-1-1-.5 0-1 .4-1 1zM171 317c0 .5.5 1 1 1 .6 0 1-.5 1-1 0-.6-.4-1-1-1-.5 0-1 .4-1 1zM495 317.1c-2.5.5-5.2.6-6.1.4-.9-.3-2.8 0-4.3.6-1.9.9-2.9.9-4 0s-1.8-.6-3.5 1.5c-1.2 1.5-2.1 3-2.1 3.4 0 .4-1.3 1-2.8 1.3-2 .4-4.7 2.8-8.5 7.4-3 3.7-6.5 7.8-7.6 9.1-1.2 1.2-2.1 3-2.1 3.8 0 1.1-.6 1.3-2.1.9-1.4-.5-1.9-.3-1.5.3.5.8-4.2 3.2-6.3 3.2-1.3 0-3.2-6.9-2.5-9.4.4-1.9.2-2.6-.9-2.6-.8 0-1.8.7-2.1 1.6-.4 1-1.2 1.4-2.2 1-1.2-.4-1.4-.1-.9 1.4.5 1.5 0 2.3-1.9 3.1-1.4.7-2.8 2-3.1 3.1-.4 1.1-1.6 1.8-3.1 1.8s-2.4.6-2.4 1.5c0 .8-.7 1.5-1.5 1.5-2 0-1.9-1 .5-4 2.5-3.2 2.5-4.4 0-3.7-2.3.6-2.7-1.2-.7-3.2 1-1.1 1-1.4 0-1.8-1.8-.6-1.6-2.3.2-2.3.8 0 1.5-.7 1.5-1.5s-.5-1.5-1.1-1.5c-1.5 0-6.9 6.2-6.3 7.2.3.4 0 .8-.5.8-.6 0-1.1.6-1.1 1.3 0 2.3-7.6 5.1-13 4.8-2.7-.1-5.1.3-5.5.9-1.1 1.7.3 2.4 2 1 1.2-1 1.6-.9 2.1.4.8 2 2.7 2 6.4.1 1.7-.9 3-1.1 3-.6 0 1.6-2.4 2.9-6.5 3.6-5.2.8-9.5 2.5-9.5 3.6 0 1.3 2.3 1.1 6.3-.6 4.9-2 8-1.9 10.2.5 1.6 1.7 1.6 2 .2 2-.9 0-1.9-.5-2.3-1.1-.5-.8-.9-.8-1.4.1-.4.6-3.1 1.3-5.9 1.4-3 .1-5.8.9-6.7 1.7-.9 1-2.6 1.4-4.4 1.1-3-.4-3.8-1.6-2-2.7 1.5-.9.2-2.5-2.1-2.5-1.4 0-1.9.7-1.9 2.5 0 1.3-.8 2.8-1.7 3.4-1.5.8-1.6 1.2-.5 2.3.9.9 1.9 1 4 .2 1.5-.6 3.7-.7 4.7-.4 1.2.5 2.6.2 3.6-.6 1.4-1.2 2-1.2 4.3 0 3 1.5 2.8 1.8-2.6 3.5-6 2-4 4.6 2.5 3.5 3.2-.6 3.2-.6 1 1-1.3 1-2.3 2.1-2.3 2.7 0 1.5 8.6 1.1 10-.6.7-.8 2.2-1.5 3.4-1.5 2 .1 1.9.2-.7 2.6-1.6 1.4-3.6 2.2-4.5 2-2.7-.9-3.8.6-3.8 4.6 0 3 .4 3.8 1.8 3.8 1 0 1.8-.7 1.8-1.5s.6-1.5 1.3-1.5c.8 0 1.2 1.7 1.2 5.5-.1 4.9.1 5.4 1.7 4.9 1.2-.3 1.8 0 1.8 1 0 .9.7 1.6 1.6 1.6 1.3 0 1.1.6-.7 3.1l-2.2 3.1 2.2-.7c1.8-.5 2.1-.2 2.1 2.2 0 1.6-.5 3.4-1.1 4-1 1-2 9.3-1.2 9.3.2 0 1.7-.7 3.3-1.5 1.7-.9 3-1.1 3-.6 0 1.1-2.9 3.5-4.4 3.6-2.2.2-4.6 1.7-4 2.6.3.5 1 .7 1.5.3.6-.3 1 0 .8.7-.3 2.7.1 3.8 1.9 4.8 1.4.8 1.8.5 1.9-1.1.3-2.8 1-3.3 2.7-1.9 1.1.9 1.3 2.2.9 4.4-.6 3-.5 3.1 1.3 1.7 1-.8 2.2-1.9 2.6-2.5.4-.5 1-.6 1.4-.3.3.4-.1 1.4-1 2.3-.9.9-1.6 2.3-1.6 3.1 0 2.3 2.6 1.6 4.4-1.1 1.5-2.2 4.5-3.8 3.2-1.6-.7 1 1.9 2.3 2.8 1.4 1.4-1.4.4-5.4-1.9-7.9-1.4-1.5-2.5-2.3-2.5-1.8 0 .5-.4 1.5-.9 2.2-.6 1.1-1.3.9-3.2-1-2.6-2.7-3.9-6.6-1.8-5.2 2.3 1.4 10.3 2.2 11.6 1.2.7-.5 1.4-.5 1.7.1.4.6 1.4.7 2.3.4 1.1-.5 1.4-.3.9.6-.5.8-1.8 1-3.3.6-2.2-.5-2.4-.3-2.1 2.2.2 2.3.8 2.8 3.1 2.8 2.9 0 4.7 1.8 4.7 4.9 0 1.5-.3 1.6-1.5.6s-1.7-.7-2.6 1.4c-1 2-1.5 2.3-2.6 1.5-.9-.8-1.3-.8-1.3-.1 0 .6-.6.9-1.4.6-.9-.4-1.8.6-2.7 3-.7 2-1.7 3.6-2.1 3.6-.5 0-.4.9.2 2 .6 1 .9 2.5.8 3.2-.2.7.7 1.4 1.9 1.6 1.2.2 2.7 1 3.3 1.8 1.7 1.9 3 1.8 3-.4 0-1.4.4-1.2 2 .8 1.9 2.5 1.9 2.5-.2 4.7s-2.1 2.3-.3 4.3c1 1.1 2.6 2 3.4 1.9.9-.1 3.1.2 4.9.6 3.1.7 3.2.9 3.2 5.6 0 3.2.4 4.9 1.3 5 .6.1 3 .2 5.2.3 3.7.1 3.9.3 4.1 3.3.1 1.8-.2 3-.7 2.7-.5-.3-.9.2-.9 1 0 1.9 2 3.1 4.6 2.8 1.5-.2 2.3.4 2.7 1.7.4 1.6 1.3 2.1 4.1 2.1 2 0 3.6-.5 3.6-1 0-.6.8-1 1.8-1.1 1.3 0 1.2-.2-.5-.9-1.5-.6-2.3-1.8-2.3-3.4 0-1.4-.9-4.1-2.1-6l-2.1-3.6h2.1c2.4 0 2.7-1 .9-2.9-.7-.6-1.3-1.5-1.3-1.9 0-2.4-5-8.4-8.4-10.2-2.3-1.1-4.1-2.5-4.1-3 0-.6-.5-1-1.1-1-.6 0-.8.8-.4 1.9.3 1.1 0 2.1-.9 2.4-2.1.8-5.6-2.1-5.6-4.6 0-1.2-.9-3.6-2-5.2-2.7-4-2.5-5 .9-5.2 1.9-.1 3.6.6 5.1 2.3 1.3 1.3 2.9 2.4 3.7 2.4.7 0 1.3.6 1.3 1.4 0 2.1 5.6 4.1 7.5 2.6 1.5-1.3 3.5-.6 3.5 1.3 0 .7 1.6 1.7 3.5 2.3 3.7 1.2 4.8.1 1.6-1.6-1.1-.5-2.1-2.2-2.3-3.7-.2-2-.8-2.8-2-2.7-1 .1-1.8 0-1.8-.3 0-1.2 3.2-6.4 3.7-5.9.4.3 1.1.2 1.7-.2.6-.5 2.2-.6 3.6-.2 2.3.6 2.2.7-1.2 1.4-2.4.4-3.8 1.3-3.8 2.2 0 1.9 2.8 3 4.3 1.5 1.8-1.8 2.4-1.3 3.1 2.4.7 3.4 2.6 4.9 2.6 2 0-.8.4-1.5.9-1.5s.8-2 .7-4.4c-.1-3-.5-4.2-1.4-3.9-.8.4-1 0-.6-1.1.3-.9 1.2-1.6 2-1.6 1.7 0 1.8-1.2.2-2.8-.9-.9-.6-1.2 1.4-1.2 1.5 0 3-.5 3.3-1 1-1.6 2.8-1.2 2.1.5-.6 1.6 1 2 3.8.9 1.2-.5 1.3-1.1.5-2.7-.9-1.9-.8-1.9 1.1.2 1.2 1.4 1.9 3.3 1.7 4.3-.3 1.1.2 2.2 1.4 2.8 1.1.6 1.6 1.7 1.3 2.8-.5 1.5-.4 1.5.6-.1.9-1.5.8-2.2-.6-3.8-1.7-1.8-1.6-1.9 1.6-1.9 3.4 0 3.5-.4 1.5-5.3-.5-1.3-.2-1.7 1.3-1.7 1.2 0 2.4.4 2.7 1 .8 1.3 4.5 1.3 4.5-.1 0-.5-.4-.7-1-.4-.5.3-1.5.3-2.1-.1-.7-.4-.1-1.2 1.7-2 2.6-1.1 2.7-1.2.7-1.3-1.8-.1-2.2-.6-2.1-2.7.2-2.5.5-2.6 4.5-2.1 4 .4 4.2.3 3.7-1.8-.4-1.5 0-2.4 1-2.8 1.2-.5 1.6 0 1.6 2.2 0 3.6 3.7 7.3 5 5.1.6-.8 1-2.5 1-3.8 0-1.2.5-2.2 1.1-2.2.5 0 .7-.5.4-1-.3-.6.5-1.4 1.9-2 3.1-1.1 3.4-3 .6-3.7-1.1-.3-2-.9-2-1.3 0-1 4.7-3 7.1-3 3.8 0 7.6-6.8 4.9-8.5-.6-.4-.8-1.1-.4-1.6.3-.5 1-.7 1.5-.4.5.4 1.9.3 3 0 1.7-.6 2-1.2 1.5-3.8-.4-1.7-1.1-3.4-1.7-3.8-1.7-1 0-4.9 2.2-4.9 1 0 1.9-.6 1.9-1.4 0-.8.6-1.7 1.3-2 .9-.5.9-.7-.1-1.2-.7-.3-1.9-1.3-2.8-2.1-.8-.8-1.8-1.3-2.1-.9-.3.3-1.2.1-2-.5-.7-.7-2.6-.9-4.3-.5-1.7.3-3 .1-3-.4 0-1 1.6-1.5 7.1-2.4 2.1-.4 4.3-1.4 5-2.2 1.1-1.3 1-1.9-.8-3.2-1.1-1-2.3-2.5-2.6-3.5-.4-.9-1.3-1.7-2.2-1.7-.8 0-1.5-.4-1.5-.9s1.7-.7 3.9-.4l3.8.5.1-6c.1-5.2-.2-6.2-1.8-6.7-1.1-.3-2.9-1.9-4-3.5l-2-2.9 2-.6c1.7-.6 1.8-.8.6-2.1-.8-.8-1.9-1.4-2.5-1.4-.6 0-1.1-.8-1.1-1.9 0-2.6-2.7-4.8-4.2-3.3-1.7 1.7-2.8 1.5-2.8-.6 0-2.7-5.6-5.8-16-8.8-5.2-1.6-9.6-3.2-9.8-3.6-.5-1-6.3-.9-12.2.3zM483.3 331c-.3 1.1-1 2-1.7 2-.6 0 0 .9 1.3 1.9 3.6 2.8 2.3 4.3-2.1 2.2l-3.8-1.7 3-3.2c3.4-3.7 4-4 3.3-1.2zm7.7 8.1c0 .6-.4.7-1 .4-.5-.3-1-1.1-1-1.6 0-.6.5-.7 1-.4.6.3 1 1.1 1 1.6zm-7 16.9c0 .5-.4 1-1 1-.5 0-1-.5-1-1 0-.6.5-1 1-1 .6 0 1 .4 1 1zm-67.8 6c-.3 2.4-.9 3-2.9 3-1.3 0-3.1-.7-4-1.5-1.4-1.4-1.3-1.5 1.2-.9 2 .5 2.6.4 2.1-.5-.4-.7.2-1.5 1.6-2 1.3-.6 2.3-1 2.4-1 0-.1-.1 1.2-.4 2.9zm62.8 37c0 .5-.4 1-1 1-.5 0-1-.5-1-1 0-.6.5-1 1-1 .6 0 1 .4 1 1zM134 318c0 .5.5 1 1.1 1 .5 0 .7-.5.4-1-.3-.6-.8-1-1.1-1-.2 0-.4.4-.4 1zM176.3 318.5c-1.3.5-2.3 1.6-2.3 2.3 0 .9.7 1.1 2.3.6 2.8-.8 2.9-1 2.5-2.6-.2-1-.9-1-2.5-.3zM238.3 321.7c-2.6.5-2.9 1.3-1.1 3.1.9.9 1.4.7 2.5-.6 1.2-1.6 1.4-1.6 2.7 0 .7 1 2 1.8 2.9 1.8 1.6 0 3-2.6 2.1-4.1-.5-.9-5-1-9.1-.2zM234 324.4c0 .9.5 1.6 1 1.6.6 0 1-.4 1-.9 0-.6-.4-1.3-1-1.6-.5-.3-1 .1-1 .9zM266.2 326.9c-1.7 1-.6 6 1.5 6.8 1.9.8 3.7-1.2 2.7-2.9-.9-1.3-1-1.8-1.3-3.8-.1-1.2-1.1-1.3-2.9-.1zM369.2 335.4c-2.4 4.2-3.2 6.8-3.2 10.6 0 3.4.4 4.9 1.1 4.5.6-.4.8-1.3.5-2-.5-1.5 1.7-3.8 2.7-2.8 1.3 1.2.7 2.2-.9 1.6-1.5-.5-1.5-.3.1 2 1 1.6 2.2 2.4 2.9 1.9.6-.4 2.2-.7 3.6-.7 1.8 0 2.4-.5 2.2-1.8-.2-.9.3-1.7.9-1.7.7 0 1-.3.6-.6-1.2-1.3 2-3.2 4.5-2.7 1.4.3 2.9 0 3.2-.6.4-.6 1.6-1.1 2.6-1.1 1.3 0 1.7-.5 1.4-1.5-.4-1 0-1.5 1.2-1.5 1.3-.1.9-.5-1.2-1.4-1.7-.8-3.4-2.1-3.7-3-.4-1.1-1.6-1.5-3.5-1.3-4.6.5-5.4 1.5-4.7 5.6.5 3.3.3 4-1.9 5.4-3.6 2.4-4.3 2.1-3.8-1.3.3-2.3 0-3-1.2-3-.9 0-1.6-.6-1.6-1.4 0-1.7 2.4-3.8 3.3-2.9 1.1 1.1.7-1.1-.7-3.6-1.3-2.3-1.3-2.2-4.4 3.3zM127.8 332.2c-3.6 1.3-3.5 2.3.2 2.4 2.3.1 3-.3 3-1.7 0-1.1-.1-1.9-.2-1.8-.2 0-1.5.5-3 1.1zM409 335c0 .5.5 1 1.1 1 .5 0 .7-.5.4-1-.3-.6-.8-1-1.1-1-.2 0-.4.4-.4 1zM124 339.5c0 1.5 1.8 4 2.4 3.4.3-.3-.1-1.4-.9-2.5-.8-1-1.4-1.5-1.5-.9zM158 340c0 .5.5 1 1 1 .6 0 1-.5 1-1 0-.6-.4-1-1-1-.5 0-1 .4-1 1zM394.5 342c.3.5 1.1 1 1.6 1 .6 0 .7-.5.4-1-.3-.6-1.1-1-1.6-1-.6 0-.7.4-.4 1zM129.5 347c-1.6 1.8-1.7 2.3-.5 3 1.1.7 1.7.3 2.3-1.2 1.2-3.3.3-4.2-1.8-1.8zM162 348.5c-1.4 1.6-1 1.8 1.4.9.9-.3 1.6-1 1.6-1.5 0-1.4-1.6-1.1-3 .6zM159.1 351.6c0 1.1.3 1.4.6.6.3-.7.2-1.6-.1-1.9-.3-.4-.6.2-.5 1.3zM133.8 352.7c.7.3 1.6.2 1.9-.1.4-.3-.2-.6-1.3-.5-1.1 0-1.4.3-.6.6zM164.8 353.5c-1.1 1.1 1.4 5.6 2.8 5.1.8-.3 1.6-.1 1.9.4.4.6-.1 1-1 1s-1.3.5-1 1.1c.4.6 1.3.8 2.1.5.8-.3 1.4-.1 1.4.4 0 .6.4 1 .9 1s.5-1.4-.1-3.3c-.6-1.7-1.3-3.9-1.5-4.7-.4-1.3-.6-1.2-1.4.2-1.3 2.4-2.7 2.3-3.1-.3-.2-1.1-.6-1.8-1-1.4zM144.5 356c-.3.5.1 1 .9 1 .9 0 1.6-.5 1.6-1 0-.6-.4-1-.9-1-.6 0-1.3.4-1.6 1zM132.7 356.7c-.4.3-.7 1.1-.7 1.7 0 .6.5.5 1.2-.2.6-.6.9-1.4.7-1.7-.3-.3-.9-.2-1.2.2zM251.1 358.6c0 1.1.3 1.4.6.6.3-.7.2-1.6-.1-1.9-.3-.4-.6.2-.5 1.3zM254 359.4c0 .9.5 1.6 1 1.6.6 0 1-.4 1-.9 0-.6-.4-1.3-1-1.6-.5-.3-1 .1-1 .9zM359.7 358.7c-1 .9-.9 4.3.1 4.3 1.2 0 3.2-2.3 3.2-3.7 0-1.4-2.2-1.8-3.3-.6zM369.1 362c-1.3 1.1-1.9 2-1.3 2 1 0 4.2-2.7 4.2-3.6 0-.7-.4-.5-2.9 1.6zM157.5 362.1c-.4.6-.4 1.3-.1 1.6.8.8 3.6-.5 3.6-1.7 0-1.3-2.7-1.3-3.5.1zM189 366.6c0 1.1 2.9 3.4 3.4 2.6.2-.4-.4-1.3-1.5-2-1-.7-1.9-1-1.9-.6zM205 369.5c0 .8.4 1.5.9 1.5s1.4-.7 2.1-1.5c1-1.3.9-1.5-.9-1.5-1.2 0-2.1.6-2.1 1.5zM214 371.6c0 .8.5 1.2 1 .9.6-.4.8-1.1.5-1.6-.9-1.4-1.5-1.1-1.5.7zM152 373.6c0 1.1 6.5 6.4 7.8 6.4 1.2 0 1.2-.3.2-1.5-.7-.8-1.8-1.5-2.4-1.5-.6 0-1.7-.9-2.4-2-1.1-1.8-3.2-2.8-3.2-1.4zM207.5 374.4c-1.1.7-1.6 2-1.2 2.9.7 1.8-2.6 3-4.2 1.4-.8-.8-1.1-.8-1.1.1 0 .7.5 1.2 1 1.2.6 0 .8 1.1.4 2.7-.6 2.4-.5 2.6 1.7 2 1.3-.4 2.7-.7 3.2-.7.4 0 .7-1.4.7-3.2 0-1.7.7-3.9 1.6-4.9 1.9-2.1.3-3.3-2.1-1.5zM133 376.1c0 .8.9 2 2 2.7 1.2.7 1.8 1.7 1.5 2.2-.3.6-.1 1 .4 1 .6 0 1.1-1.2 1.1-2.7 0-1.4-.3-2.3-.7-2-.3.4-1.5 0-2.5-1-1.4-1.3-1.8-1.3-1.8-.2zM323.7 375.6c-.3.4-.3 2 0 3.7.4 2.1.3 2.8-.5 2.3-.7-.4-1.2-1.4-1.2-2.2 0-1.1-.8-1.4-2.7-1.2-2.2.2-2.8.8-2.8 2.8-.1 2.1-.5 2.5-2.8 2.2-2.2-.2-2.7.1-2.7 2 0 2-.1 2.1-1.6.6s-1.8-1.4-3.5.3c-1 1-1.9 2.7-1.9 3.6 0 2.6-1.6 4.8-2.4 3.4-1.4-2.3-2.8-1.1-2.2 1.9.5 2.9-.6 4.1-1.9 2-1.2-1.9-2.3-1-3.6 2.7-.9 2.5-1.4 3.2-1.7 2-.7-3.5-3.2-1-3.2 3.4 0 1.5-.5 1.8-2.4 1.3-2.8-.7-3.6 1.3-3.6 9.5 0 3.5-.6 6.1-1.5 7.1-1.3 1.4-1.4 2.2-.4 4.3.9 2.1.9 3-.1 4.2-1.8 2.2-3.3 1.8-2-.5.6-1.1.8-3.5.5-5.4-.5-2.5-.3-3.5.9-3.9 1.8-.7 2.2-8.1.7-10.6-1-1.5-1.3-.7-2.6 5.6-.7 3.6-3.5 4.6-3.5 1.3 0-1.1-.4-2-1-2-1.6 0-1.2 4.3.6 6.8 1.6 2.3 1.3 5.2-.6 5.2-.5 0-1-1.4-1-3 0-2.1-.5-3-1.6-3-1.3 0-1.5.7-.9 3.7.3 2.1 1.3 4.3 2.1 4.9 1.6 1.3 1.9 4.4.4 4.4-.5 0-1-.5-1-1 0-.6-.4-1-1-1-.5 0-1 .7-1 1.5 0 1.8-2.6 2-3.3.2-.4-.9-.6-.9-.6.1-.2 2.4 2 5.4 3.5 4.8 1-.4 1.4.2 1.4 1.9 0 2.9-.7 3.1-3.1.9-2.4-2.2-3.9-1-3.9 3.2 0 2.1.4 3.3 1 2.9.6-.3 1 .1 1 .9 0 .9-.7 1.6-1.5 1.6s-1.5.4-1.5 1c0 .5-.5 1-1.1 1-.7 0-.8-.7-.4-1.8 1-2.2 1.3-9.2.4-9.2-.4 0-.9.6-1.1 1.2-.3.8-.9.4-1.7-1-.6-1.2-1.8-2.2-2.6-2.2-1.9 0-1.9 1.4 0 3 1.7 1.5 2 6.6.4 7.6-1.1.7-2.9-1.3-2.8-3.1 0-.6.3-.4.6.2.7 1.9 2.3 1.6 2.3-.5 0-1.9-1.8-4.2-3.2-4.2-.4 0-.8.7-.8 1.5 0 1-.7 1.5-1.7 1.3-1.3-.2-1.7.3-1.6 1.9.2 1.3-.2 2.3-.7 2.3-.6 0-1 1.3-1 3 0 1.6-.3 3-.6 3-1 0-3.3-2.7-2.8-3.3.3-.3-.4-.8-1.5-1.2-1.2-.3-2.1-1.1-2.1-1.6s-.7-.9-1.5-.9c-1 0-1.5.9-1.4 2.7 0 2.4.2 2.5.8.9.5-1.4 1-1.6 1.5-.8 1.1 1.8-.4 3.4-2.6 2.8-2.9-.7-5.1 1.9-4.4 4.9.8 3.2-1.5 3.4-2.9.3-1.6-3.5-4.2-3.4-5 .1-.5 2.4-1.2 3.1-3 3.1-1.7 0-2.5.6-2.7 2.2-.4 2.9-2.4 3.4-3.1.8-.3-1.1-1-2-1.7-2-1.3 0-.3 4.3 1.1 4.8 1.2.5 1.1 4.2-.1 4.2-.5 0-1 .9-1 2 0 2.5 1.7 2.6 2.3.2.3-1.4.6-1.2 1.5.9 1 2.5 4.2 4.8 4.2 3 0-.5-.4-1.1-.8-1.3-1.2-.4-2.5-5.8-1.4-5.8s3 5.6 3.7 11c.5 3.9.4 4.2-.7 2.6-.7-1-2.1-2.8-3-4l-1.7-2.1v2.5c0 2.6 3 7 4.8 7 .6 0 1.1.7 1.1 1.6 0 1.4-.3 1.5-1.7.3-4.2-3.1-7.5-7.5-7.5-9.6 0-2.6-1.3-3.1-2.2-.7-1.1 2.7-.6 5.4.8 5.4.8 0 1.6 1 1.8 2.2.2 1.3.8 2.3 1.3 2.2.6-.1 1.8 1.2 2.8 2.8 1.3 2.2 2.1 2.7 3 1.9 1-.8 1.3.3 1.5 4.6.2 3.5.8 6 1.7 6.7.9.7 1.6 3 1.7 6.1.1 3.2.7 5.4 1.7 6.2 1.2.9 1.2 1.2.3 1.3-1 0-1.2 1.3-.6 5.7.6 5.3 1.6 7.2 3.7 7.3.4 0 .7-.8.7-1.7 0-1.3.3-1.4 1.2-.5.9.9.9 1.5 0 2.4-1.5 1.5-1.6 4.8-.2 4.8.6 0 1 1.1 1 2.5 0 1.8.5 2.5 2 2.5 2.5 0 2.6-2.6.3-5.2-1.5-1.7-1.5-1.8 0-1.8 1 0 1.7-.8 1.7-1.8 0-1.4.4-1.2 1.9.8 1.1 1.3 1.9 2.7 1.9 3-.2 2.5.4 4 1.7 4 .8 0 1.5.7 1.5 1.5 0 1.2-.4 1.3-1.9.5-2.8-1.4-3.8-1.3-6 1.2-1.8 1.8-2.2 1.9-3.7.7-1.7-1.3-1.7-1.2-.1 1.2 1 1.4 2.9 3.1 4.2 3.7 2.4 1.1 2.5 1 1.5-.7-.5-1.1-1-2.5-1-3.1 0-1.8 2 0 3 2.6.5 1.3 1.5 2.4 2.2 2.4.9 0 .9-.3 0-1.2-1.6-1.6-1.5-2.8.1-2.8 1.1.1 4.2 5.8 6.1 11.5.7 1.9.8 1.9 2-.4.8-1.4 1.6-1.9 2-1.3.3.6.2 1.3-.4 1.7-1.5.9-1.2 2.8.4 2.2.7-.3 1.9 0 2.5.6.7.7 1.7 1.2 2.4 1.2s1.1 1 .9 2.4c-.2 1.5 0 2.1.7 1.7.6-.4 1.1-.3 1.1.2s1.1 1.2 2.5 1.5c1.8.3 2.9-.1 3.6-1.5.5-1 1.4-1.6 1.9-1.3.4.3 1 0 1.2-.6.6-1.7 5.9.8 6.5 3.1.3 1.1 1 1.7 1.5 1.4.5-.3 1.5.2 2.3 1.2 1.3 1.8 1.4 1.8 3.5-.1l2.3-2-.7 2.2c-.8 2.6 1.1 3.3 2 .8.4-.8 1.5-1.5 2.5-1.5s1.9-.5 1.9-1c0-.6.7-1 1.5-1 1.9 0 1.9-.9-.2-3.2-1.5-1.7-1.5-1.8.2-1.8 1.3 0 1.6-.5 1.1-2.4-.4-1.6-.1-2.6.8-2.9 1.1-.4 1.3.3.9 3.4-.5 3.8.7 5.3 2.3 2.8.4-.8.9-.7 1.4.2.5.7 2.9 1.8 5.4 2.4 3.8 1 4.8.9 5.8-.2.9-1.1.7-1.5-1-2-2.9-.7-2.8-2.1.3-3.3 1.4-.5 2.5-1.6 2.5-2.5 0-.8.5-1.5 1-1.5.6 0 1 .4 1 1 0 .5.7.7 1.5.4.8-.4 1.5-.2 1.5.4 0 .5-.8 1.3-1.7 1.6-1.2.5-1.4.9-.5 1.8 1.4 1.4 1.6 5.2.3 4.4-.4-.3-1.6.3-2.5 1.3-1.7 1.8-1.6 2 .3 2.6 2.4.7 5.1-1.4 5.1-3.9 0-.9.5-1.6 1-1.6.6 0 1 1 1 2.2 0 2 .1 2 1.9.3 2-1.7 2-1.6.9 2.1-.6 2.2-1.6 4.7-2.4 5.8-1.1 1.6-1 2.1.1 3.2.7.8 2 1.4 2.8 1.4.9 0 1.7.5 1.9 1.2.6 1.6 11.7-5.2 11.8-7.2.1-.9.5-.6 1 .7.5 1.3 1.2 2.3 1.4 2.3 1.7 0 5.6-2.5 5.6-3.7 0-.7.9-1.3 2-1.3 2.2 0 2.6 2 .8 3.8-2 2 .2 1.3 2.4-.8 1.2-1.1 1.9-2.3 1.5-2.7-.4-.3.5-1.4 2.1-2.3 3.1-2 4.6-.7 2.9 2.3-.9 1.5-.9 2.1 0 2.4 1.6.6-.2 5.1-3 7.5-2.8 2.6-.2 3.3 6.8 1.8 5.6-1.2 5.7-1.2 5.1-4.1-.4-2.3-.2-3.1 1.2-3.5.9-.3 2.5-1 3.4-1.5 2.5-1.3 2.8-1.2 2.8 1.1 0 1.3.7 2 2 2 2.3 0 2.6-1.3.6-2.9-.8-.7-1.2-2.1-.9-3.1.7-2.5-1.2-2.6-2.6-.3-.9 1.6-1 1.6-1.1-.5 0-1.3.6-2.2 1.5-2.2.8 0 1.5-.6 1.5-1.4 0-2 2.2-2.5 3.9-.8 1.3 1.2 1.6 1.2 2.8-.4 1.2-1.6 1-2.1-1.4-4.2-2.5-2.1-2.8-2.2-4-.6-1.1 1.6-1.3 1.6-1.9.1-.7-2-3.5-2.2-5.2-.5-.7.7-1.2.8-1.2.2 0-1.8 4.8-3.7 7.8-3.1 2.6.5 3.1.3 3.6-1.8.7-2.9 1.5-3.1 4.2-1.1 1.8 1.4 1.8 1.5.2 2.1-2.6 1-2.2 2.5.7 2.5 1.4 0 2.5-.4 2.5-.9s1.4-1.2 3-1.6c4.1-.9 3.8-2.5-.5-2.5-2.7 0-3.3-.3-2.9-1.5.4-.9 1.4-1.3 2.3-1.1.9.3 2.2.2 3-.3 2-1.3-.5-2.4-3.6-1.6-2.3.5-2.5.4-1.4-.9.7-.8 1.1-2.2.9-3.2-.2-.9.3-1.9 1-2.1.6-.3 1.2 0 1.2.6s.9 1.1 1.9 1.1c1.1 0 2.1.6 2.4 1.2.3.9.9.7 2-.7 1.4-1.8 1.4-2-.3-2.3-1.8-.3-3.2-4.3-2.1-6 .3-.4 1.4-1.2 2.5-1.5 1.5-.6 1.7-.4 1.2 1.8-.6 2.3-.5 2.4 1.9 1.3 1.4-.6 2.5-1.5 2.5-2 0-.4.5-.8 1-.8.6 0 1 .6 1 1.4 0 .8.7 1.7 1.6 2 .9.4 1.4.9 1.1 1.3-.4.3-1.3.1-2-.6-2.5-2-4.4-.2-5.1 4.9-.4 2.7-1.1 5.2-1.6 5.5-1.8 1.1-1 2.6 1.3 2.3 1.9-.3 2.2-1 2.5-5.1.2-3.6.7-4.7 2-4.8.9 0 3.2-.1 5-.2 1.7-.1 3.2.1 3.2.5 0 1-4.2 2.2-6.4 1.9-1.1-.2-1.7.2-1.4 1 .2.7 2.6 1.3 5.7 1.5 2.9.1 5.5.5 5.8.8 1.1 1.1-1 2.6-3.8 2.6-1.6 0-2.9.4-2.9 1 0 .5.7.7 1.5.3.9-.3 2.4.2 3.4 1.1 1.5 1.4 2 1.4 3 .3.6-.8.9-2.1.6-2.9-.4-1 .1-1.7 1.4-2.1 2.7-.7 2.7-3.2-.1-5.1l-2.1-1.5 2.6-1c1.4-.6 3.1-2 3.7-3.2 1.1-2 1.1-2.1-1.6-1.5-1.6.4-3.6 1.3-4.4 2-2.2 2-7.3 3-6.8 1.4.3-.7 1.5-1.5 2.9-1.8 1.6-.4 2.3-1.2 2.1-2.4-.3-1.5.1-1.7 2.2-1.2 1.9.5 2.6.2 2.6-.8 0-2.5 2.8-4 5.3-2.8 2.1 1 2.1 1.1-.7 1.1-4.1.1-2.3 1.4 5.5 3.9 7 2.4 9.9 2.7 9.9 1.3 0-1.1-2.5-2.1-5.1-2.1-2.6 0-4.7-4.4-3-6.4 1-1.2.5-1.8-3-3.7-5.5-2.8-3.5-4.1 4.1-2.7 3 .5 6.3 1.1 7.3 1.2.9.1 2.3.8 2.9 1.4.7.7 1.7 1.2 2.3 1.2.6 0 2.8 1.6 4.9 3.5 2.5 2.2 3.3 3.5 2.3 3.5-.9 0-1.9-.5-2.2-1-.8-1.3-6.5-1.3-6.5 0 0 1.2 3.5 3.1 4.4 2.3.3-.3.6.1.6 1s.5 1.9 1 2.2c1.5.9 5-.4 5-2 0-2 1.9-2.8 3.5-1.5.8.6 1.6.7 1.9.2.7-1.2-.6-2.3-6.4-5-3.9-1.9-4.1-2.2-1.9-2.2 1.5 0 5.4 1.8 8.7 4 7.1 4.8 8.6 5.1 7 1.4-.8-1.7-1.8-2.4-3-2.1-1 .3-1.8 0-1.8-.7 0-2.3-3.7-4.8-6-4.1-1.9.6-2 .5-.9-1.3.7-1.2 1.7-1.8 2.3-1.5.5.4.7-.1.3-1-.3-1-.2-1.7.4-1.7.6 0 .8-.9.4-2.3-.6-1.8-.5-2 .6-1 .7.7 1.2 2.6 1.2 4.3 0 2.3.8 3.7 2.9 5.1 1.5 1.1 2.8 1.5 2.8.9 0-1.6-3.9-9-6.7-12.8-1.4-1.8-2.2-3.9-1.9-4.7.3-.8.1-1.7-.4-2-.6-.4-1 .8-1 2.7 0 2.5-.3 2.9-1 1.8-1.6-2.5-1.2-8 .5-8 1.3 0 1.2-.7-.6-4.3-1.9-3.7-2.3-4-3-2.2-.6 1.6-.8 1.7-.8.3-.2-3.1-2-2.9-3.7.3-1.4 2.8-1.8 3-2.6 1.6-1.1-2.1-2.8-2.2-2.8-.2 0 2.1-.9 1.9-3.1-.8-1.3-1.5-1.8-3.8-1.9-7.5 0-3.3-.4-5.1-1-4.7-1.6 1-1.2-4.3.6-7 .9-1.4 1.4-3.2 1-4-.6-1.7-3.6-2.1-3.6-.4 0 .5-.5.7-1 .4-.6-.4-.8-1.5-.5-2.6.8-2.4-1-2.5-5.4-.3-1.8.9-3.5 1.4-3.8 1.1-.3-.4.6-.9 2.1-1.3 2.1-.5 2.6-1.2 2.6-3.5 0-1.9-.5-2.9-1.5-2.9-.8 0-1.5-.7-1.5-1.5s-.7-1.5-1.5-1.5c-1 0-1.5 1-1.5 3.1 0 2.5-.3 2.9-1.3 2-.8-.6-1.7-.8-2-.4-.4.3-.7.1-.7-.5 0-.5.5-1.2 1.2-1.4.7-.3 1.3-1.5 1.4-2.9.1-1.3.7-3.7 1.3-5.3 1.3-3.3 1-4-1.7-3.2-1.2.4-1.8 1.4-1.7 2.9.1 1.2 0 1.5-.2.6-.2-1-2.1-2-4.5-2.5-2.3-.5-4.3-1.5-4.6-2.3-.3-.9.2-1.1 1.7-.6 2.3.7 5.5-1.1 4.5-2.6-.3-.5-2.5-.9-5-.9-4.2 0-4.4.1-4.4 2.9 0 3.1 3 6.1 6.1 6.1 1.9 0 5.2 3.4 4.2 4.3-1 1-2.5.8-1.9-.2 1.2-1.9-2.4-3.4-7-2.8-4.4.5-6.7 2.1-6.1 4.1.5 1.6 2.7 1.9 2.7.4 0-1 1-1.3 3.3-1 3.1.3 3.3.6 2.9 3.4-.4 2.9-.4 2.9 3.2 2.3l3.6-.7-1.7 3.1c-1 1.7-2.1 3.1-2.5 3.1-.9 0-4.8-6.9-4.8-8.6 0-.9-.6-1.4-1.2-1.1-.8.2-1.2 1.7-1 3.5.2 1.8-.3 4.1-1.1 5.2-1.4 2.1-1.4 2.1-2-.2-.4-1.3-.2-2.5.3-2.6.6-.2 1-1 1-1.9 0-1-.6-1.2-2-.8-1.6.5-1.9.3-1.3-1.2.6-1.5.4-1.6-.9-.6-2.3 1.9-2.8.5-2.2-5.2.6-4.8.5-5.3-1.6-5.8-1.6-.4-2-1.1-1.6-2.5.5-1.5.1-2.1-1.6-2.6l-2.3-.7 2.3-.9c2.8-1.2 2.8-1.9-.2-4.8-2.3-2.1-2.5-2.2-3.5-.5-1 1.7-1 1.6-1.1-.3 0-2.7 1.7-4 5.4-4.2 3.6-.2 4.3-.9 2.8-2.4-.9-.9-1.7-1-3-.1-1.5.9-2.1.7-3-.7-.6-1-.8-2.7-.5-3.8.4-1.7 0-2.1-2.3-2.4-1.5-.2-3-1-3.2-1.8-.5-1.3-.3-1.3 1.2 0 1.6 1.2 2 1.1 3.7-1 2.2-3 1.9-4.6-.9-4.3-1.5.2-1.9-.2-1.5-1.6.6-2.4-1.5-3.8-2.3-1.6-.9 2.3-2.6-.3-1.8-2.8.3-1-.1-1.9-1-2.3-.9-.3-1.6-1.4-1.6-2.4 0-2.2-1.6-3.5-2.5-2-1.1 1.8-2 1.1-2.1-1.8-.1-2.5.2-2.8 2.3-2.4 1.8.3 2.3 0 2.3-1.5 0-2.8-.7-3.2-3.8-2.4-2.2.6-3.5.1-6.9-2.7-4.3-3.5-5.3-5.6-3-6.5.7-.3.2-.9-1.3-1.5-1.4-.6-2.1-1.1-1.5-1.1.5-.1-1.4-2.4-4.4-5.2-3.5-3.3-6-4.9-7.2-4.6-1 .3-2-.1-2.3-.9-.3-.8-1.2-1.4-2.1-1.4-.8 0-1.5-.5-1.5-1 0-1.4-2.8-1.2-3.3.2-.3 1-.7 1-1.9 0-.8-.6-3.4-1.3-5.6-1.5-2.3-.1-4.4-.6-4.8-1-1.1-1.1-4.4-.8-4.4.3 0 .5-.7 1-1.5 1s-1.5-.5-1.5-1c0-1.1-1.3-1.3-2.3-.4zm-28 32.9c-.4.8-1.1 1.5-1.7 1.5-.7 0-.7-.6 0-2.1 1.3-2.3 2.6-1.9 1.7.6zM243 455.2c0 .7.3 2.4.6 3.8l.5 2.5-1.5-2.5c-1.8-2.9-2-5-.6-5 .6 0 1 .6 1 1.2zm-14 8.9c0 1.7-2 2.9-2 1.1 0-.4-.3-1.8-.7-3.2-.6-2.2-.5-2.4 1-1.1.9.7 1.7 2.2 1.7 3.2zm-4 6.9c1.1.6 1.7 1.7 1.4 2.5-.9 2.2-4.4-2.6-4.3-5.7l.2-2.3.4 2.3c.2 1.2 1.3 2.7 2.3 3.2zm33-4c0 .5-.4 1-1 1-.5 0-1-.5-1-1 0-.6.5-1 1-1 .6 0 1 .4 1 1zm-2.8 8.5c0 .5-.5 1.1-1 1.3-.5.1-.9-.4-.9-1.3s.4-1.4.9-1.3c.5.2 1 .8 1 1.3zm34.3 1c0 1-.6 2-1.2 2.2-.8.3-1.3-.5-1.3-2.2 0-1.7.5-2.5 1.3-2.3.6.3 1.2 1.3 1.2 2.3zm122.8 1.2c-.6 1.9-3.2 4.3-4.5 4.3-.4 0-.8-.9-.8-2 0-1.3.5-1.8 1.5-1.4.9.4 1.5 0 1.5-1 0-.9.7-1.6 1.5-1.6.9 0 1.2.6.8 1.7zm-112.9.9c.9 2.4-.4 3.2-1.6 1.1-.9-1.8-1-1.8-2.4 0-1.1 1.3-1.4 1.4-1.2.3.6-3.1 4.2-4 5.2-1.4zm6.6 0c0 .8-.5 1.2-1 .9-.6-.4-.8-1.1-.5-1.6.9-1.4 1.5-1.1 1.5.7zm-53 2.5c0 1.8-.4 2.8-1 2.4-.6-.4-.8-1.1-.5-1.6.4-.5 0-.9-.9-.9-.8 0-1.6.6-1.9 1.2-.2.7-.8 1-1.2.6-.8-.7 3.2-4.7 4.8-4.8.4 0 .7 1.4.7 3.1zm3.5-.1c.3.5.1 1-.4 1-.6 0-1.1-.5-1.1-1 0-.6.2-1 .4-1 .3 0 .8.4 1.1 1zm19.5 5c0 .5-.5 1-1.1 1-.5 0-.7-.5-.4-1 .3-.6.8-1 1.1-1 .2 0 .4.4.4 1zm-30.3 4.6c-.3.3-1.2.4-1.9.1-.8-.3-.5-.6.6-.6 1.1-.1 1.7.2 1.3.5zm50.6 4.9c2.9.5 3.7 1 3.5 2.3-.2.9-1.3 1.8-2.5 2-1.2.2-2.6.9-3.2 1.6-1.1 1.3-6.1 1-6.1-.4 0-.4 1.2-.5 2.6-.2 2 .4 2.5.1 2.2-.9-.3-.8-1.4-1.3-2.4-1.2-1.4.1-1.9-.5-2-2.2-.2-2 .2-2.4 2-2 1.1.2 3.8.7 5.9 1zm-51.6.1c-.3.3-1.2.4-1.9.1-.8-.3-.5-.6.6-.6 1.1-.1 1.7.2 1.3.5zm5.3 1.4c0 .5-.7 1-1.6 1-.8 0-1.2-.5-.9-1 .3-.6 1-1 1.6-1 .5 0 .9.4.9 1zm33.5 1c.3.5.1 1-.4 1-.6 0-1.1-.5-1.1-1 0-.6.2-1 .4-1 .3 0 .8.4 1.1 1zm147.5 0c0 .5-.2 1-.4 1-.3 0-.8-.5-1.1-1-.3-.6-.1-1 .4-1 .6 0 1.1.4 1.1 1zm3.5 0c.3.5.1 1-.4 1-.6 0-1.1-.5-1.1-1 0-.6.2-1 .4-1 .3 0 .8.4 1.1 1zm-159 1c-.3.5-1.8 1-3.3.9l-2.7-.1 2.5-.8c3.5-1.1 4.2-1.1 3.5 0zm10.5 2c0 .5-.7 1-1.6 1-.8 0-1.2-.5-.9-1 .3-.6 1-1 1.6-1 .5 0 .9.4.9 1zm-26 1c0 .5-.5 1-1.1 1-.5 0-.7-.5-.4-1 .3-.6.8-1 1.1-1 .2 0 .4.4.4 1zm46 2.6c0 .2-.9.4-2 .4s-2-.4-2-.9.9-.7 2-.4c1.1.3 2 .7 2 .9zm7 1.5c1.1 1.9 1 2-1 .9-1.1-.6-1.8-1.5-1.5-2.1.9-1.3 1.3-1.1 2.5 1.2zm-19.5.5c-.9.9-1.8 1.4-2.1 1.1-.9-.9.6-2.7 2.2-2.7 1.3 0 1.3.2-.1 1.6zm15.1 6.4c0 1.1-.1 2-.2 2s-1-.3-1.8-.6c-1.3-.5-1.4-.9-.5-2 1.6-2 2.5-1.7 2.5.6zm-8.6.4c0 .3-.4.8-1 1.1-.5.3-1 .1-1-.4 0-.6.5-1.1 1-1.1.6 0 1 .2 1 .4zm19 3.8c0 .6-.7.5-1.5-.2s-1.5-1.7-1.5-2.2c0-.6.7-.5 1.5.2s1.5 1.7 1.5 2.2zm-6-1.2c0 .5-.2 1-.4 1-.3 0-.8-.5-1.1-1-.3-.6-.1-1 .4-1 .6 0 1.1.4 1.1 1zm-7 1c1.1.7.3 1-2.8 1-5 0-4.8 1.6.3 2.6 1.9.3 3.5.9 3.5 1.3 0 1.7-1.4 1.9-3.4.6-1.1-.8-3.7-1.5-5.7-1.5-3.2 0-3.6-.3-3.2-1.9.7-2.6 8.4-4 11.3-2.1zm9.4 2.6c.9.3 1.6 1 1.6 1.4 0 1-3.8.1-4.6-1.1-.6-1 .7-1.2 3-.3zm-32.5 1.3c2.3 1.5-.3 2-2.9.5-2.2-1.2-2.3-1.3-.5-1.3 1.1-.1 2.6.3 3.4.8zm-48.5 2.3c-.1 1.3-.3 3.2-.4 4.3l-.1 2-.9-2c-1.3-3.1-1.1-6.5.3-6.5.8 0 1.3.9 1.1 2.2zm219.1 1.8c.3.5.2 1-.4 1-.5 0-1.3-.5-1.6-1-.3-.6-.2-1 .4-1 .5 0 1.3.4 1.6 1zm-204.1 6.7c-.1 4.2-1.8 6.3-3.6 4.4-1.1-1-1-1.4.5-2.2 2.1-1.2 2.3-3.3.1-2.5-2 .8-3.5-.1-2.8-1.7.2-.7 1.7-1.2 3.2-1.3 2.4-.1 2.7.2 2.6 3.3zm142.7 2.6c1-.3 1.9 0 1.9.6 0 1.2-1.4 1.4-4.7.5-2.6-.7-2.9-2.3-1-4.3 1-1 1.3-.7 1.5 1.2.2 1.9.8 2.4 2.3 2zm-8.1-1.4c0 .6-.4 1.3-1 1.6-.5.3-1-.1-1-.9 0-.9.5-1.6 1-1.6.6 0 1 .4 1 .9zm-11.2 5.9c.2.7-.3 1.2-1.2 1.2-.9 0-1.6-.7-1.6-1.6 0-1.7 2.2-1.4 2.8.4zm37.9-.2c-.3.3-1.2.4-1.9.1-.8-.3-.5-.6.6-.6 1.1-.1 1.7.2 1.3.5zm-45.7 3.9c-.7.8-1.7 1.5-2.3 1.5-.5 0-.2-.9.8-2 2.1-2.3 3.5-1.9 1.5.5zm11 1.5c0 .5-.5 1-1.1 1-.5 0-.7-.5-.4-1 .3-.6.8-1 1.1-1 .2 0 .4.4.4 1zm-23.5 4c.9 0 1.2.6.9 1.5-.4.8-.1 1.5.5 1.5s1.1.7 1.1 1.5c0 2.6-2.7 1.6-4-1.5-.7-1.7-1.6-3-2.1-3s-.9-.7-.9-1.6c0-1.4.1-1.4 1.6 0 .8.9 2.2 1.6 2.9 1.6zm-85.1-.8c-.5.8-.2.9.9.5.9-.3 1.9-.2 2.2.3.4.6.2 1-.4 1-.5 0-1.6.3-2.5.6-1.2.4-1.6 0-1.6-1.5 0-1.2.5-2.1 1.1-2.1.5 0 .7.5.3 1.2zm93.6-.8c0 .3-.4.8-1 1.1-.5.3-1 .1-1-.4 0-.6.5-1.1 1-1.1.6 0 1 .2 1 .4zm7.7 4.8c-.3.8-.6.5-.6-.6-.1-1.1.2-1.7.5-1.3.3.3.4 1.2.1 1.9zm6.7-1.4c.6 1-2.2 4.7-3 4-.3-.4-.3-1.6.1-2.7.6-2.1 2-2.7 2.9-1.3zm5.1 4.9c-1.1.7-2.2 1.3-2.7 1.3-1.4 0-.8-1.9.9-2.9 2.5-1.3 4-.1 1.8 1.6zm-68.1 1.5c-.6 3.1-2.8 5.7-4.8 5.8-.5 0-.2-.8.6-1.8.8-.9 1.8-2.9 2.2-4.5.3-1.5 1.1-2.7 1.7-2.7.7 0 .8 1.2.3 3.2zm-11.4-1.3c0 .5 1 .7 2.3.4 1.7-.5 1.9-.3 1.1.7-.7.6-2 1-3 .8-1.9-.3-3.2-2.8-1.5-2.8.6 0 1.1.4 1.1.9zm42 2.1c0 .5-.4 1-1 1-.5 0-1-.5-1-1 0-.6.5-1 1-1 .6 0 1 .4 1 1zm-53 1c0 .5-.4 1-1 1-.5 0-1-.5-1-1 0-.6.5-1 1-1 .6 0 1 .4 1 1zm34.2 1.2c-.7.7-1.2.8-1.2.2 0-1.4 1.2-2.6 1.9-1.9.2.3-.1 1.1-.7 1.7zm41.8.4c0 .8-.5 1.2-1 .9-.6-.4-.8-1.1-.5-1.6.9-1.4 1.5-1.1 1.5.7zm-11 4.6c0 1-.4 1.8-1 1.8-.5 0-1-.9-1-2s-.7-2-1.6-2c-.8 0-1.2-.4-.9-1 .9-1.4 4.5 1.1 4.5 3.2zm-8.7-2.1c-.8.8-1.6.8-3 0-1.6-.9-1.4-1 1.2-1.1 2.1 0 2.6.3 1.8 1.1zm14.7-.1c0 .5-.7 1-1.5 1s-1.5-.5-1.5-1c0-.6.7-1 1.5-1s1.5.4 1.5 1zm5.3 2.5c-1.2.9-1.9 1-2.2.3-.4-1.2 2-2.9 3.2-2.1.4.3 0 1.1-1 1.8zm9.7 1.5c0 .5-1.4 1-3.1 1-1.7 0-2.8-.4-2.4-1 .3-.6 1.7-1 3.1-1 1.3 0 2.4.4 2.4 1zm-31 2c0 1.1-.2 2-.4 2s-.6-.9-.9-2c-.3-1.1-.1-2 .4-2s.9.9.9 2zm13-.6c0 .3-.4.8-1 1.1-.5.3-1 .1-1-.4 0-.6.5-1.1 1-1.1.6 0 1 .2 1 .4zm-4.6 2.1c.4 1.1-.2 1.5-2.4 1.5-4.6 0-3.8-2 1.1-2.9.4 0 .9.6 1.3 1.4zm15.6.1c0 .8-.5 1.2-1 .9-.6-.4-.8-1.1-.5-1.6.9-1.4 1.5-1.1 1.5.7zm-36.6 5.6c-.4.6-.2.8.4.4.6-.3 1.3-.2 1.7.3.7 1.3-3.2 3.4-5.1 2.7-1.9-.7-1.8-3.6.1-3.6.8 0 1.5-.5 1.5-1.1 0-.5.5-.7 1-.4.6.4.7 1.1.4 1.7zM167.1 379.6c-1.6 1.9-1.5 1.9 3.3 3.3 5.1 1.3 5.7.7 2.3-2.4-3-2.9-3.7-3-5.6-.9zM213 379c0 .5.5 1 1.1 1 .5 0 .7-.5.4-1-.3-.6-.8-1-1.1-1-.2 0-.4.4-.4 1zM156 382c0 .5.5 1 1 1 .6 0 1-.5 1-1 0-.6-.4-1-1-1-.5 0-1 .4-1 1zM217 382.5c0 .8.7 1.5 1.6 1.5 1.4 0 1.4-.3.4-1.5-.7-.8-1.4-1.5-1.6-1.5-.2 0-.4.7-.4 1.5zM208.8 383.7c-.6 2.2.7 5.2 1.7 4.1.4-.4.3-1.9-.2-3.5-.9-2.5-1-2.6-1.5-.6zM165.2 384.2c.5 1.5 2.8 2.3 2.8 1 0-.5-.7-1.3-1.6-1.6-1-.4-1.4-.1-1.2.6zM157.5 388c-.3.5-.1 1 .4 1 .6 0 1.1-.5 1.1-1 0-.6-.2-1-.4-1-.3 0-.8.4-1.1 1zM235.5 390c-.3.5.1 1 1 1s1.3-.5 1-1c-.3-.6-.8-1-1-1-.2 0-.7.4-1 1zM263.7 390.7c-.4.3-.7 1.3-.7 2.2.1 1.3.3 1.3 1.1-.2 1.1-1.9.8-3.3-.4-2zM182.5 392c.3.5 1 1 1.6 1 .5 0 .9-.5.9-1 0-.6-.7-1-1.6-1-.8 0-1.2.4-.9 1zM231 396c0 .5.5 1 1 1 .6 0 1-.5 1-1 0-.6-.4-1-1-1-.5 0-1 .4-1 1z"/><path d="M406.5 396c-.3.5-.1 1 .4 1 .6 0 1.1-.5 1.1-1 0-.6-.2-1-.4-1-.3 0-.8.4-1.1 1zM221 399.1c0 .5.5.7 1 .4.6-.3 1-.8 1-1.1 0-.2-.4-.4-1-.4-.5 0-1 .5-1 1.1zM397 399.1c0 1.1 3 1.2 4.8 0 .9-.5.3-.8-1.7-.9-1.7 0-3.1.4-3.1.9zM236.5 401.9c-.3.5-.1 1.2.5 1.6.5.3 1-.1 1-.9 0-1.8-.6-2.1-1.5-.7zM394.3 401.8c-1.2.2-2.7 1-3.3 1.8-1.4 1.6 0 1.7 5.4.5 2.3-.5 2.6-.8 1.5-1.6-.8-.6-2.4-.9-3.6-.7zM404.4 403.3c-2.6 1.5-8.8 8.6-8.2 9.3.3.2 2.5.2 4.9-.2 3.2-.5 5.3-1.7 7.7-4.2l3.4-3.5-2.4-1.3c-2.8-1.6-2.8-1.6-5.4-.1zm2.6 4.6c0 .5-.7 1.4-1.5 2.1-1.6 1.4-1.8 1-.9-1.4.6-1.7 2.4-2.2 2.4-.7zM235.5 411c.3.5.8 1 1.1 1 .2 0 .4-.5.4-1 0-.6-.5-1-1.1-1-.5 0-.7.4-.4 1zM406.5 416c.3.5.8 1 1.1 1 .2 0 .4-.5.4-1 0-.6-.5-1-1.1-1-.5 0-.7.4-.4 1zM188.5 422c.3.5.8 1 1.1 1 .2 0 .4-.5.4-1 0-.6-.5-1-1.1-1-.5 0-.7.4-.4 1zM396.7 424.5c-.7 2.3-.3 6.1.6 5.7.4-.1 1.2-.2 1.8-.2.8 0 .8-.4.1-1.3-.5-.6-1.2-2.3-1.4-3.7-.3-2.3-.4-2.3-1.1-.5zM250 426.1c0 1.1.4 1.8 1 1.4.5-.3.7-1.2.3-2-.7-2.1-1.3-1.9-1.3.6zM261.5 427c-.3.5-.1 1 .4 1 .6 0 1.1-.5 1.1-1 0-.6-.2-1-.4-1-.3 0-.8.4-1.1 1zM169.6 427.9c-.4.7-.5 1.5-.2 1.8.9.9 1.9-.4 1.4-1.8-.4-1.1-.6-1.1-1.2 0zM267.2 427.8c-.7.5-1 1.6-.6 2.5.9 2.5 2.4 2 2.4-.8s0-2.8-1.8-1.7zM253 434c0 .5.5 1 1 1 .6 0 1-.5 1-1 0-.6-.4-1-1-1-.5 0-1 .4-1 1zM495 434c0 .5.5 1 1.1 1 .5 0 .7-.5.4-1-.3-.6-.8-1-1.1-1-.2 0-.4.4-.4 1zM142 436.5c0 .8.5 1.5 1 1.5.6 0 1-.7 1-1.5s-.4-1.5-1-1.5c-.5 0-1 .7-1 1.5zM256.5 436c-.3.5-.1 1 .4 1 .6 0 1.1-.5 1.1-1 0-.6-.2-1-.4-1-.3 0-.8.4-1.1 1zM424.6 438.5c-.3.8-.1 1.5.4 1.5.6 0 1-.7 1-1.5s-.2-1.5-.4-1.5-.6.7-1 1.5zM488.1 439.6c-1 2.3-.9 3 .4 4.3 1.4 1.4 1.7 1.4 2.5.1 1.3-1.9.9-6.2-.6-6.7-.6-.2-1.6.9-2.3 2.3zM401.6 439.5c-1 2.7-.7 3.5 1.5 3.5 1.5 0 2-.5 1.7-2.2-.4-2.7-2.3-3.5-3.2-1.3zM186.7 439.7c-.4.3-.7 1.1-.7 1.7 0 .6.5.5 1.2-.2.6-.6.9-1.4.7-1.7-.3-.3-.9-.2-1.2.2zM244 440c0 .5.5 1 1 1 .6 0 1-.5 1-1 0-.6-.4-1-1-1-.5 0-1 .4-1 1zM206 441.5c-.7.9-.8 1.5-.2 1.5.5 0 1.2-.7 1.6-1.5.3-.8.4-1.5.2-1.5s-.9.7-1.6 1.5zM249 443.1c0 .5.5.7 1 .4.6-.3 1-.8 1-1.1 0-.2-.4-.4-1-.4-.5 0-1 .5-1 1.1zM181.5 444c.4.6 1.1.8 1.6.5 1.4-.9 1.1-1.5-.7-1.5-.8 0-1.2.5-.9 1zM202 444.5c0 .5.5 1.7 1 2.5s1 1 1 .5c0-.6-.5-1.7-1-2.5s-1-1.1-1-.5zM237.5 446c-.3.5.1 1 .9 1 .9 0 1.6-.5 1.6-1 0-.6-.4-1-.9-1-.6 0-1.3.4-1.6 1zM408.5 447.1c-1 1.5.1 2.3 2 1.5.9-.3 1.3-1 1-1.6-.8-1.3-2.2-1.3-3 .1zM474 447.2c0 1.8 1.8 3.4 2.8 2.4.3-.4-.2-1.4-1.1-2.3-1.6-1.6-1.7-1.6-1.7-.1zM214.5 448c.3.5.8 1 1.1 1 .2 0 .4-.5.4-1 0-.6-.5-1-1.1-1-.5 0-.7.4-.4 1zM117.7 450.1c-.3 1.2 0 2.2.9 2.6.9.3 1.2 1.3.9 2.4-.4 1.1-.2 1.9.4 1.9 1.4 0 1.4-3.7.1-4.5-.7-.4-.7-1.3 0-2.6.8-1.5.7-1.9-.3-1.9-.8 0-1.7.9-2 2.1zM400.8 451.7c-2.4.6-2.3 2.3.2 2.3h2.8c1.1 0 .9-2.3-.3-2.5-.5-.2-1.8-.1-2.7.2zM129 453c0 .5.5 1 1 1 .6 0 1-.5 1-1 0-.6-.4-1-1-1-.5 0-1 .4-1 1zM233 453.1c0 .5.5.7 1 .4.6-.3 1-.8 1-1.1 0-.2-.4-.4-1-.4-.5 0-1 .5-1 1.1zM104.1 456.6c0 1.1.3 1.4.6.6.3-.7.2-1.6-.1-1.9-.3-.4-.6.2-.5 1.3zM403.6 458.5c.4.8 1.7 1.5 3 1.5 1.5 0 2.4-.6 2.4-1.5 0-1-1-1.5-3-1.5-2.2 0-2.8.4-2.4 1.5zM219.5 461c.3.5 1 1 1.6 1 .5 0 .9-.5.9-1 0-.6-.7-1-1.6-1-.8 0-1.2.4-.9 1zM426.5 461c-.3.5-.4 1.4 0 2 .8 1.3 3.5.1 3.5-1.6 0-1.6-2.6-1.9-3.5-.4zM402.5 462c.3.5.8 1 1.1 1 .2 0 .4-.5.4-1 0-.6-.5-1-1.1-1-.5 0-.7.4-.4 1zM113.7 466c.3 1.1.7 2 .9 2 .2 0 .4-.9.4-2s-.4-2-.9-2-.7.9-.4 2zM108.2 467.2c.6 1.8 2.8 2.1 2.8.4 0-.9-.7-1.6-1.6-1.6-.9 0-1.4.5-1.2 1.2zM212.7 470.3c-.3.7-.1 2 .3 2.8.7 1.1 1 1 1.6-.4.4-1 .2-2.3-.3-2.8-.7-.7-1.2-.6-1.6.4zM203.2 472.1c.2.7 1 1.5 1.7 1.7.8.3 1.2-.1.9-.9-.2-.7-1-1.5-1.7-1.7-.8-.3-1.2.1-.9.9zM477.5 472c.3.5 1 1 1.6 1 .5 0 .9-.5.9-1 0-.6-.7-1-1.6-1-.8 0-1.2.4-.9 1zM107.5 473.9c-.3.5-.1 1.2.5 1.6.5.3 1-.1 1-.9 0-1.8-.6-2.1-1.5-.7zM209 474.6c0 .8.5 1.2 1 .9.6-.4.8-1.1.5-1.6-.9-1.4-1.5-1.1-1.5.7zM200.8 475.7c.7.3 1.6.2 1.9-.1.4-.3-.2-.6-1.3-.5-1.1 0-1.4.3-.6.6zM104 478.1c.7 1.1 1.4 1.8 1.7 1.5.8-.8-.5-3.6-1.7-3.6-.7 0-.7.6 0 2.1zM205 478c0 .5.5 1 1 1 .6 0 1-.5 1-1 0-.6-.4-1-1-1-.5 0-1 .4-1 1zM209 479c0 .5.5 1 1 1 .6 0 1-.5 1-1 0-.6-.4-1-1-1-.5 0-1 .4-1 1zM95.5 482.6c.1 2.2-.2 4.2-.7 4.5-.7.4-.6 1.4.1 2.8.7 1.2 1.6 1.9 2 1.7 1-.7.2-10.8-.9-12-.5-.5-.7.9-.5 3zM202.7 480.7c-.3.5-.2 1.5.2 2.2.7 1 1 1 1.6.1.4-.6.3-1.6-.3-2.2-.5-.5-1.2-.6-1.5-.1zM209 484.4c0 1.9.5 3.8 1 4.1.6.3 1 1.5 1 2.6 0 1 .7 1.9 1.5 1.9s1.5.4 1.5 1c0 .5.5 1 1 1 1.6 0 1.2-1.4-1.5-5.4-1.4-2-2.5-4.8-2.5-6.1 0-1.4-.4-2.5-1-2.5-.5 0-1 1.5-1 3.4zM442 482.5c-1.1 1.3-1.1 2 0 3.9.9 1.8.9 2.8 0 4.6-.9 1.8-.9 2.5.6 4.1 1.1 1.2 1.3 1.9.5 1.9-.7 0-.9.4-.6 1 .3.5 1.5 1 2.7 1 1.6 0 1.9-.5 1.6-2.5-.3-1.4-.1-2.8.3-3.1.5-.3.9-2.3.9-4.5 0-3.6-.2-4-2-3.4-1.8.6-2 .3-1.4-1.9.7-2.9-.7-3.4-2.6-1.1zM205 485.5c0 .9.5 1.5 1.1 1.3.6-.2 1.1-.8 1.1-1.3s-.5-1.1-1.1-1.3c-.6-.2-1.1.4-1.1 1.3zM449 486.9c0 1.6.5 4.2 1.1 5.8l1.2 2.8.9-3.5c.7-2.4.6-3.6-.1-3.8-.6-.2-1.1-1.2-1.1-2.3 0-1-.4-1.9-1-1.9-.5 0-1 1.3-1 2.9zM202 486c0 .8.4 3.1 1 5 .6 2.1.6 3.8.1 4.3-.6.6-1.2-.5-1.6-2.7-.4-2.1-1.3-3.6-2.1-3.6s-1.4-.5-1.4-1.2c0-.6-.3-.9-.6-.6-1.1 1.2 2.3 10.3 3.9 10.2.8-.1 2 1 2.6 2.4 1.1 2.4 1.1 2.4-2 1.8-1.7-.3-4.2-1.7-5.5-3.1-2.5-2.7-6.4-3.4-6.4-1.1 0 .8.5 1.8 1 2.1.6.3 1 1.7 1 3.1 0 1.6.6 2.4 1.7 2.4 1.3 0 1.4-.3.5-1.2-1.9-1.9-1.4-3.3.6-1.5 2.1 1.9 4.2 2.2 4.2.7 0-2.2 6.8 5.9 7.5 8.9.4 1.7 1.3 3.1 2.1 3.1s2.8 1.5 4.4 3.2c4.4 4.9 4 .8-.5-4.5-1.9-2.2-3.5-4.7-3.5-5.4 0-.8-.7-2.5-1.6-3.8-2.1-3.3-.8-3.2 1.8 0 1.1 1.4 2.5 2.5 3.3 2.5.7 0 1.5.7 1.9 1.5.3.8 1 1.5 1.6 1.5.7 0 .8-.6 0-1.9-2.2-4.1-.8-4.4 3-.6 2.7 2.7 3.9 4.9 4 6.8 0 2.5-.2 2.7-2.1 1.7-1.6-.9-1.8-1.4-.9-2.5 1.2-1.5.6-3.5-1.2-3.5-.5 0-.8.7-.4 1.5.3.8.1 1.5-.4 1.5-1.9 0-1 4.2 1 4.7 1.3.3 2 1.4 2 2.9 0 1.3.5 2.4 1 2.4.6 0 1-1.4 1-3.1 0-2.2.5-3.2 2-3.6 2.2-.6 2.5-1.9 1-5.7-.6-1.7-1.4-2.4-2.4-2-1.1.4-2.1-.5-3.3-3-.9-2-2-3.6-2.4-3.6-.4 0-1.2-1.4-1.8-3-.5-1.7-1.7-3-2.6-3-1.3 0-1.5.7-.9 3.5.9 4.9-1.4 4.6-4.9-.7-2.4-3.7-2.5-4.3-1.2-5.8 2.1-2.3 2.1-4.7 0-3-1.2 1-1.5 1-1.5-.2 0-2-2.9-5.8-3-3.8zM192.5 488c.3.5 1.1 1 1.6 1 .6 0 .7-.5.4-1-.3-.6-1.1-1-1.6-1-.6 0-.7.4-.4 1zM486 488c0 .5.5 1 1 1 .6 0 1-.5 1-1 0-.6-.4-1-1-1-.5 0-1 .4-1 1zM99.1 489.6c0 1.1.3 1.4.6.6.3-.7.2-1.6-.1-1.9-.3-.4-.6.2-.5 1.3zM116.5 490c-.3.5-.1 1 .4 1 .6 0 1.1-.5 1.1-1 0-.6-.2-1-.4-1-.3 0-.8.4-1.1 1zM188 492.5c0 .8.5 1.5 1 1.5.6 0 1-.7 1-1.5s-.4-1.5-1-1.5c-.5 0-1 .7-1 1.5z"/><path d="M192.4 492.2c-.4.6.1 1.7 1.1 2.5 3.4 2.4 4.6 1.3 2.1-2-1.5-2-2.2-2.1-3.2-.5zM184 493c0 .5.5 1 1.1 1 .5 0 .7-.5.4-1-.3-.6-.8-1-1.1-1-.2 0-.4.4-.4 1zM105.5 495c.3.5.8 1 1.1 1 .2 0 .4-.5.4-1 0-.6-.5-1-1.1-1-.5 0-.7.4-.4 1zM217 496c0 1.1.7 2 1.5 2 1.7 0 1.8-.2.9-2.4-.9-2.3-2.4-2-2.4.4zM209 496.4c0 .9.5 1.6 1 1.6.6 0 1-.4 1-.9 0-.6-.4-1.3-1-1.6-.5-.3-1 .1-1 .9zM462 496.2c0 .9.5 2 1 2.3 1.3.8 1.3-.5 0-2.5-.8-1.3-1-1.3-1 .2zM479 497c0 .5.5 1 1 1 .6 0 1-.5 1-1 0-.6-.4-1-1-1-.5 0-1 .4-1 1zM103.1 500.6c0 1.1.3 1.4.6.6.3-.7.2-1.6-.1-1.9-.3-.4-.6.2-.5 1.3zM221 500.9c0 2.2 1.6 3.6 2.4 2.2.8-1.2-.3-4.1-1.5-4.1-.5 0-.9.9-.9 1.9zM460.4 502.3c.3 1 .6 2.3.6 2.8s.5.9 1 .9c1.4 0 1.2-1.3-.6-3.6-1.4-1.7-1.5-1.7-1-.1zM109.1 506.1c1.1 2.2 2.9 2.5 2.9.5 0-.7-.9-1.6-2-1.9-1.7-.4-1.8-.2-.9 1.4zM466.4 506.6c.3.9.6 1.8.6 2 0 .2.5.4 1 .4.6 0 1-.9 1-2 0-1.2-.7-2-1.6-2-1.1 0-1.4.5-1 1.6zM98.1 507.1c-.1.8.6 2.4 1.5 3.5 1.5 1.9 1.5 1.9.6-.1-.5-1.1-1.2-2.7-1.5-3.5-.5-1.3-.6-1.3-.6.1zM187.2 507.1c.2.7 1 1.5 1.7 1.7.8.3 1.2-.1.9-.9-.2-.7-1-1.5-1.7-1.7-.8-.3-1.2.1-.9.9zM201 507.9c0 1.2.5 2.1 1 2.1.6 0 1-.6 1-1.4 0-.8-.4-1.8-1-2.1-.5-.3-1 .3-1 1.4zM191 508.9c0 .6.5 1.3 1 1.6.6.3 1-.1 1-.9 0-.9-.4-1.6-1-1.6-.5 0-1 .4-1 .9zM464.5 509c.3.5.8 1 1.1 1 .2 0 .4-.5.4-1 0-.6-.5-1-1.1-1-.5 0-.7.4-.4 1zM197 511.4c0 1.6 2.6 4.6 4 4.6.5 0 .7-.8.3-1.8-1.4-3.8-4.3-5.7-4.3-2.8zM471.3 511.4c.4 1 .7 2.2.7 2.7s.4.9.9.9c1.2 0 .2-3.8-1.2-4.7-.7-.4-.8 0-.4 1.1zM203 513.4c0 .8.5 1.8 1 2.1.6.3 1-.3 1-1.4 0-1.2-.4-2.1-1-2.1-.5 0-1 .6-1 1.4zM462 512.9c0 .6.5 1.3 1 1.6.6.3 1-.1 1-.9 0-.9-.4-1.6-1-1.6-.5 0-1 .4-1 .9zM101 516.2c0 1.8.5 2.8 1.5 2.8 1.8 0 2 3.1.3 4.8-.9.9-.9 1.2 0 1.2.7 0 1.4-.6 1.6-1.3.2-.6.8-2.7 1.4-4.5 1-3 .9-3.2-.8-2.7-1.2.4-2.2-.1-2.9-1.2-.9-1.6-1-1.4-1.1.9zM195 516.9c0 .6.8 1.5 1.9 2 1 .6 2.2 2.2 2.5 3.6.4 1.4 1.3 2.5 2.1 2.5 1.8 0 1.9-1.2.3-2.8-.7-.7-1.3-2.2-1.3-3.5 0-1.7-.7-2.3-2.7-2.5-1.6-.2-2.8.1-2.8.7zM469 518.5c0 1.4.4 2.5.9 2.5.4 0 .6-1.1.3-2.5-.2-1.4-.6-2.5-.8-2.5-.2 0-.4 1.1-.4 2.5zM475 517c0 .5.5 1 1.1 1 .5 0 .7-.5.4-1-.3-.6-.8-1-1.1-1-.2 0-.4.4-.4 1zM203 518.1c0 1.7 2 4.9 3.1 4.9.5 0 .3-1.4-.6-3-1.6-3.1-2.5-3.8-2.5-1.9zM206 518.1c0 .6 1.4 2.4 3.1 4 1.8 1.6 2.8 3.3 2.4 3.7-.4.4-1 .1-1.2-.6-.3-.6-.9-1.2-1.4-1.2-.5 0-.2 1.1.7 2.5.9 1.4 2 2.5 2.5 2.5 1.8 0 .8-5.4-1.7-8.7-2.5-3.3-4.4-4.3-4.4-2.2zM225.7 517.7c-.4.3-.7 1.1-.7 1.7 0 .6.5.5 1.2-.2.6-.6.9-1.4.7-1.7-.3-.3-.9-.2-1.2.2zM479 520c0 .5.4 1 .9 1 .6 0 1.3-.5 1.6-1 .3-.6-.1-1-.9-1-.9 0-1.6.4-1.6 1zM217 521.5c0 .8.5 1.5 1 1.5.6 0 1-.7 1-1.5s-.4-1.5-1-1.5c-.5 0-1 .7-1 1.5zM486.1 521.6c0 1.1.3 1.4.6.6.3-.7.2-1.6-.1-1.9-.3-.4-.6.2-.5 1.3zM194.2 522.6c.1.9.9 1.9 1.6 2.2.9.3 1.3-.2 1-1.4-.1-.9-.9-1.9-1.6-2.2-.9-.3-1.3.2-1 1.4zM469.1 524.4c1 2.1 4.7 4.2 5.7 3.1.8-.7-1-4.5-1.9-4-.5.3-1.8.1-2.9-.5-1.8-1-1.9-.9-.9 1.4zM221 525.8c0 1.9 1.8 4.2 3.2 4.2 1.2 0 .9-3.5-.4-4.8-1.7-1.7-2.8-1.5-2.8.6zM478 525c-1.3.8-1.3 1.1.2 2.6 1.6 1.7 1.8 1.7 2.4 0 .9-2.3-.7-3.8-2.6-2.6zM204 526.9c0 2 2.7 4.8 3.7 3.7.9-.8-1.4-5.6-2.7-5.6-.5 0-1 .8-1 1.9zM216 526.9c0 1 .7 2.1 1.5 2.5 1.1.4 1.5-.1 1.5-1.9 0-1.6-.6-2.5-1.5-2.5-.8 0-1.5.9-1.5 1.9zM434 526.4c0 .5 9.8 6.6 10.6 6.6.3 0 .4-.7 0-1.5-.6-1.7.9-2.1 1.9-.5.3.5 1.4 1 2.3 1 1.3 0 1.2-.5-.8-2-1.7-1.4-3.4-1.8-5.3-1.4-1.9.4-2.9.1-3.3-1-.5-1.4-5.4-2.4-5.4-1.2zM470 529.9c0 1.2.5 2.1 1 2.1.6 0 1-.6 1-1.4 0-.8-.4-1.8-1-2.1-.5-.3-1 .3-1 1.4zM475 529.1c0 .5-.5.7-1.1.3-.8-.5-1 .1-.5 1.9.4 1.6.1 2.7-.7 3.1-.9.5-.9.7 0 1.2.7.3 1 1.1.7 1.9-.3.7 1 2.4 2.9 3.9 4.1 3.1 4.7 3.2 4 .5-.4-1.2-1.1-1.8-2-1.5-1.1.5-1.4-.4-1.3-4.2.3-7 .1-8.2-1-8.2-.5 0-1 .5-1 1.1zM214 531c0 .5.5 1 1 1 .6 0 1-.5 1-1 0-.6-.4-1-1-1-.5 0-1 .4-1 1zM209.6 532.6c-.3.9-.6 1.6-.6 1.7 0 .1 1.1.3 2.5.3 2.7.2 3.1-.6 1.3-2.4-1.6-1.6-2.5-1.5-3.2.4zM435.7 531.7c-1.3 1.2-.7 2.3 1.3 2.3 1.1 0 2-.7 2-1.5 0-1.5-2.1-2.1-3.3-.8zM217.6 532.9c-.3.5.1 1.1.9 1.5.8.3 1.5.1 1.5-.4 0-1.3-1.8-2.2-2.4-1.1z"/><path d="M478 534.7c0 1.3.5 2.3 1 2.3 1.3 0 1.3-1.1 0-3-.8-1.2-1-1.1-1 .7zM440.5 535c-.3.5.1 1 1 1 .8 0 1.8.6 2.1 1.4.3.8 1.4 1.4 2.5 1.3 2.4-.2 2.4-.5-.3-2.8-2.6-2.1-4.4-2.4-5.3-.9zM218 538c0 .8.5 2.2 1 3 .9 1.3 1 1.3 1 0 0-.8-.5-2.2-1-3-.9-1.3-1-1.3-1 0zM241.1 538.6c0 1.1.3 1.4.6.6.3-.7.2-1.6-.1-1.9-.3-.4-.6.2-.5 1.3zM465 538.8c0 2.9-1 3.2-4.3 1.5-2.2-1.1-3.2-1.2-3.5-.4-.2.6-1.1 1.1-1.9 1.1-1.3 0-1.3.3-.3 1.5.7.8 2 1.5 3 1.5s2.3.7 3 1.5c1.4 1.6 5.5 2.1 4.5.5-.3-.6.4-1 1.5-1 1.7 0 2-.4 1.5-1.8-.4-.9-1-2.7-1.2-4-.6-2.6-2.3-3-2.3-.4z"/><path d="M461.5 539c.3.5 1.1 1 1.6 1 .6 0 .7-.5.4-1-.3-.6-1.1-1-1.6-1-.6 0-.7.4-.4 1zM223 540.4c0 .9.5 1.6 1 1.6.6 0 1-.4 1-.9 0-.6-.4-1.3-1-1.6-.5-.3-1 .1-1 .9zM469 539.9c0 .5.7 1.4 1.5 2.1 1.9 1.6 1.9 3 .1 3-2.2 0-2.7 1.6-1.5 4.4 1.5 3.1 4.4 3.6 3.6.6-.3-1.1-.2-2 .3-2 1.3 0 .5-6.5-1-7.7-1.8-1.5-3-1.6-3-.4zM232 541.5c0 .8.5 1.5 1 1.5.6 0 1-.7 1-1.5s-.4-1.5-1-1.5c-.5 0-1 .7-1 1.5zM431 541c0 .5.9 1 2.1 1 1.1 0 1.7-.5 1.4-1-.3-.6-1.3-1-2.1-1s-1.4.4-1.4 1zM226.7 542.7c-1.4 1.3-.6 3.3 1.3 3.3 1.1 0 2-.4 2-.9 0-1.3-2.6-3.2-3.3-2.4z"/><path d="M423.6 543.5c-.6 1.6-.4 1.7 7.4 1.9 4.8.1 9.1-1.6 7.6-3.1-.4-.4-1.1-.2-1.5.6-.6 1-1.7 1-4.7.2-5.4-1.5-8.1-1.4-8.8.4zM443 543c0 .5.4 1 .9 1 .6 0 1.3-.5 1.6-1 .3-.6-.1-1-.9-1-.9 0-1.6.4-1.6 1zM450.5 545c2.2 1.1 4.7 2 5.6 2 .9 0 2.2.7 2.9 1.5 1 1.2 1 1.5-.3 1.5s-1.1.6.8 2.6c1.9 2 3.1 2.5 6.2 2.2l3.8-.3-3-1.7c-2.1-1.2-2.5-1.7-1.2-1.8 2.3 0 2.2-2-.2-2-1.1 0-4.1-1.1-6.8-2.5-2.6-1.4-6.4-2.7-8.3-3l-3.5-.5 4 2zM222 545c0 .5.5 1 1 1 .6 0 1-.5 1-1 0-.6-.4-1-1-1-.5 0-1 .4-1 1zM230.7 546.9c-.5 2.2.1 3.3 1.4 2.5 1.2-.7 1.2-4.4 0-4.4-.5 0-1.1.9-1.4 1.9zM429.8 546.8c-1 .2-1.8.8-1.8 1.3s-.7.9-1.5.9-1.5.4-1.5 1c0 1.6 2.6 1.2 5.1-.9 2.6-2.1 2.4-3-.3-2.3zM435.5 547c-1.8.7-1.8.9-.3 1.5 2.5 1 12.1.2 12.5-1.1.4-1.3-9.2-1.6-12.2-.4zM218 548c0 .5.5 1 1 1 .6 0 1-.5 1-1 0-.6-.4-1-1-1-.5 0-1 .4-1 1zM223 548.9c0 .6.5 1.3 1 1.6.6.3 1-.1 1-.9 0-.9-.4-1.6-1-1.6-.5 0-1 .4-1 .9zM227.1 549.6c0 1.1.3 1.4.6.6.3-.7.2-1.6-.1-1.9-.3-.4-.6.2-.5 1.3z"/><path d="M453.6 549.6c-.9 2.4-.7 2.8.9 1.4 1.7-1.4 2-3 .6-3-.5 0-1.2.7-1.5 1.6zM431.2 550.6c-1.4 1-.5 1.3 5.3 1.9 3.9.4 8.4 1.3 10.2 2.1 3.9 1.8 7.6 1.8 7.1.1-.9-2.7-19.8-6.2-22.6-4.1zM476 550.1c0 .5.5.7 1 .4.6-.3 1-.8 1-1.1 0-.2-.4-.4-1-.4-.5 0-1 .5-1 1.1zM233.5 551c-.3.6.1 1.3 1 1.6 1.9.8 3 0 2-1.5-.8-1.4-2.2-1.4-3-.1zM229 552c0 .5.5 1 1 1 .6 0 1-.5 1-1 0-.6-.4-1-1-1-.5 0-1 .4-1 1zM209 553c0 .5.5 1 1 1 .6 0 1-.5 1-1 0-.6-.4-1-1-1-.5 0-1 .4-1 1zM215.5 553c-.3.5-.1 1 .4 1 .6 0 1.1-.5 1.1-1 0-.6-.2-1-.4-1-.3 0-.8.4-1.1 1zM407 553c0 .5.7 1 1.6 1 .8 0 1.2-.5.9-1-.3-.6-1-1-1.6-1-.5 0-.9.4-.9 1zM222.5 554c.3.5 1.1 1 1.6 1 .6 0 .7-.5.4-1-.3-.6-1.1-1-1.6-1-.6 0-.7.4-.4 1zM427.5 554c.3.5.8 1 1.1 1 .2 0 .4-.5.4-1 0-.6-.5-1-1.1-1-.5 0-.7.4-.4 1zM227.1 555.6c0 1.1.3 1.4.6.6.3-.7.2-1.6-.1-1.9-.3-.4-.6.2-.5 1.3zM234 556.5c0 .8.7 1.5 1.5 1.5s1.5-.7 1.5-1.5-.7-1.5-1.5-1.5-1.5.7-1.5 1.5zM239 556.5c0 .8.5 1.5 1 1.5.6 0 1-.7 1-1.5s-.4-1.5-1-1.5c-.5 0-1 .7-1 1.5zM404 556.1c0 2.2 3.3 3.8 5.4 2.7 1.9-1 1.9-1.1.1-2.4-2.3-1.7-5.5-1.8-5.5-.3zM433.3 557.2c-3.2 1.9-4.3 3.8-2.3 3.8.6 0 1-.5 1-1 0-.6 1-1 2.3-1 1.2 0 2.8-.9 3.5-2 1.6-2.6-.1-2.6-4.5.2zM442 555.6c0 2.5 6.5 5.7 10.1 4.9 2.1-.5 3.6-.1 5.5 1.4 2.9 2.3 4.4 2.7 4.4 1.1 0-.5-1.2-1.3-2.6-1.6-1.6-.4-2.3-1.2-2-2 .4-1-.4-1.4-3-1.4-1.9 0-5.1-.7-7.1-1.5-3.8-1.6-5.3-1.9-5.3-.9zM459 556c0 .5.5 1 1.1 1 .5 0 .7-.5.4-1-.3-.6-.8-1-1.1-1-.2 0-.4.4-.4 1zM425.7 556.7c-1.3 1.3-.7 3.2.8 2.7.8-.4 1.5-1.2 1.5-2 0-1.5-1.2-1.9-2.3-.7zM468.5 559c.3.5.8 1 1.1 1 .2 0 .4-.5.4-1 0-.6-.5-1-1.1-1-.5 0-.7.4-.4 1zM244.5 560c.3.5.8 1 1.1 1 .2 0 .4-.5.4-1 0-.6-.5-1-1.1-1-.5 0-.7.4-.4 1zM460.8 559.7c.7.3 1.6.2 1.9-.1.4-.3-.2-.6-1.3-.5-1.1 0-1.4.3-.6.6zM471 560.1c0 .5.5.7 1 .4.6-.3 1-.8 1-1.1 0-.2-.4-.4-1-.4-.5 0-1 .5-1 1.1zM240 561c0 .5.5 1 1.1 1 .5 0 .7-.5.4-1-.3-.6-.8-1-1.1-1-.2 0-.4.4-.4 1zM402.4 561.1c-.3.6-1.7.8-3 .5-2.4-.6-3.5.9-1.1 1.7.9.3.9.7-.1 2-.8.9-1 2.2-.6 2.8.5.9 1.1.7 2-.6.7-.9 2.7-2 4.5-2.4 3.4-.7 5.3-3.1 2.5-3.1-.9 0-1.6-.5-1.6-1 0-1.3-1.7-1.3-2.6.1zM388.3 562.5c-.8 2.2-.1 2.6 3.5 1.9 1.8-.4 3.2-1.3 3.2-2 0-2-5.9-1.8-6.7.1zM424 563c0 .5.7 1 1.5 1s1.5-.5 1.5-1c0-.6-.7-1-1.5-1s-1.5.4-1.5 1zM451 562.8c0 .4.4 1.3.9 2 .9 1.5 4.2 1.3 4.1-.3 0-1.1-5-2.7-5-1.7zM464.9 563.7c.9 1.6 7.1 2.9 7.1 1.4 0-.8-5-3.1-6.7-3.1-1 0-1.1.5-.4 1.7zM234 565c0 .5.5 1 1 1 .6 0 1-.5 1-1 0-.6-.4-1-1-1-.5 0-1 .4-1 1zM246.8 566.5c-.3 1.4-.2 2.5.2 2.5 1.1 0 2-3.9 1-4.5-.4-.3-1 .6-1.2 2zM392.7 565.6c-.8.8.1 2.4 1.3 2.4.4 0 1-.7 1.4-1.5.5-1.5-1.4-2.1-2.7-.9zM459.2 565.7c-2.6.5-2 2.3.9 2.3 1 0 1.9-.7 1.9-1.5s-.1-1.4-.2-1.4c-.2.1-1.3.4-2.6.6zM406.4 567.1c-.3.6-.1 1.6.5 2.2.8.8 1.1.5 1.1-1.1 0-2.4-.5-2.8-1.6-1.1zM447.6 566.9c-.3.5.1 1.1.9 1.5.9.3 1.5 0 1.5-.9 0-1.6-1.6-2-2.4-.6zM429.6 568.6c-.5 1.4-.4 1.5.9.4 1.7-1.4 1.9-2 .6-2-.5 0-1.2.7-1.5 1.6zM443.5 568c-.3.5.1 1 .9 1 .9 0 1.6-.5 1.6-1 0-.6-.4-1-.9-1-.6 0-1.3.4-1.6 1zM240.4 569.6c.3.9.6 1.8.6 2 0 .3.5.2 1-.1 1.6-1 1.2-3.5-.6-3.5-1.1 0-1.4.5-1 1.6zM402.7 568.7c-.4.3-.7 1.1-.7 1.7 0 .6.5.5 1.2-.2.6-.6.9-1.4.7-1.7-.3-.3-.9-.2-1.2.2zM434 569c0 .5.7 1 1.5 1s1.5-.5 1.5-1c0-.6-.7-1-1.5-1s-1.5.4-1.5 1zM451.5 569c-.3.6.1 1.3 1 1.6 1.9.8 3 0 2-1.5-.8-1.4-2.2-1.4-3-.1zM467.3 568.7c-2 .7-1.5 2.3.7 2.3 1.1 0 2-.4 2-.9 0-1.3-1.2-1.9-2.7-1.4zM383 570.2c0 .7.4 1.9.9 2.7 1.1 1.7 2.5-.3 1.7-2.4-.7-1.8-2.6-2-2.6-.3zM207 570.9c0 .5.7 1.4 1.5 2.1 1.8 1.5 4.2-.1 3.1-1.9-.8-1.3-4.6-1.5-4.6-.2zM319.3 572.9c-2.5 2.1-2.9 3.6-1.3 4.6 1.5.9 6-2.5 6-4.6 0-2.4-1.9-2.4-4.7 0zM438.5 572c.3.5 1.5 1 2.5 1s2.2-.5 2.5-1c.4-.6-.7-1-2.5-1s-2.9.4-2.5 1zM448.8 573.2c.9.9 1.5.9 2.4 0 .9-.9.7-1.2-1.2-1.2s-2.1.3-1.2 1.2z"/><path d="M456.4 573.4c-.3.8-1.6 1.6-2.7 1.6-1.2 0-3.1.1-4.2.2-1.1 0-2.8-.3-3.8-.7-1.3-.6-1.6-.4-1.1.9.8 2.1-1.7 5-5.7 6.6-3.3 1.4-3.8 3-1 3 1.3 0 1.8.5 1.5 1.7-.3 1.1.3 2.3 1.4 3 1.6 1 2.7.8 5.8-.9 2.2-1.2 4.9-2.1 6.2-2 1.8.1 2.4-.5 2.9-2.8.3-1.7.9-3 1.4-3 .7 0 7.9-6.6 7.9-7.3 0-.2-.8-.3-1.7-.4-1-.1-2.8-.4-4-.8-1.6-.5-2.5-.3-2.9.9zM245.7 575.1c-1 3.5-.9 3.8 1.3 3.2 2.4-.6 2.5-1.3.7-3.8-1.3-1.7-1.4-1.7-2 .6zM268 574.5c0 .8.6 1.5 1.4 1.5.8 0 1.6-.7 2-1.5.4-1-.1-1.5-1.4-1.5-1.1 0-2 .7-2 1.5zM300.5 574c-.3.5-1.5 1-2.6 1s-1.7.4-1.4 1c.3.5 1 1 1.4 1 1.4 0 5.7-3.9 4.4-4-.6 0-1.5.4-1.8 1zM431 574c0 .5.5 1 1 1 .6 0 1-.5 1-1 0-.6-.4-1-1-1-.5 0-1 .4-1 1zM435 574.5c-.9 1.1-1 1.9-.3 2.6.7.7 1.4.5 2.3-.6.9-1.1 1-1.9.3-2.6-.7-.7-1.4-.5-2.3.6zM347.6 578.2c-.4 1-1.6 2-2.7 2.3-2.6.9-4.4 4.2-2.2 4.2s6.5-4.6 6-6.5c-.4-1.6-.5-1.6-1.1 0zM467 578.5c0 .8.5 1.5 1 1.5.6 0 1-.7 1-1.5s-.4-1.5-1-1.5c-.5 0-1 .7-1 1.5zM194 578.9c0 .6.5 1.3 1 1.6.6.3 1-.1 1-.9 0-.9-.4-1.6-1-1.6-.5 0-1 .4-1 .9zM182 580.5c0 .8.5 1.5 1 1.5.6 0 1-.7 1-1.5s-.4-1.5-1-1.5c-.5 0-1 .7-1 1.5zM199.6 580.8c-.8 1.3.5 5.3 1.5 4.6 1.2-.7 1.2-4.1 0-4.9-.5-.3-1.2-.2-1.5.3zM205.6 583.6c-1.8 2.3-2.6 4.3-2.3 5.6.6 2.2-1.3 5.9-4.7 9.3-1.9 1.9-1.9 1.9 1.2 3.2 4.2 1.7 4.1 3.5-.1 3.2-2.4-.2-4.3.4-6.6 2.2-3 2.4-3.1 2.6-1.4 4.1 1.5 1.4 2.5 1.5 6.1.5 4.1-1.1 5.7-2.7 2.7-2.7-.8 0-1.5-.4-1.5-.9s.7-1.1 1.5-1.5c.9-.3 1.5 0 1.5.8 0 1.9 3.3 4.6 5.8 4.6 1.2 0 2.3-.8 2.7-2 .3-1.1 1.3-2 2.1-2s1.7-1.3 2-2.9c.6-2.9.7-3 3-1.4 1.8 1.1 2.3 2.1 1.9 3.7-.5 1.7-.4 1.8.4.6.7-1 1.1-1.1 1.1-.3 0 .7.8 1.3 1.8 1.3 2.9 0 1.6-5.5-1.9-8.4-1.6-1.4-2.9-3-2.9-3.7 0-1 .3-1 1.2-.1 1.8 1.8 3.8 1.4 3.8-.7 0-1.9-6.2-8.1-8-8.1-.6 0-1-.7-1-1.6 0-1.4.2-1.4 1.6-.3 1.4 1.2 1.6 1.1 1.2-.6-.4-2-1.9-2.3-5-1-1.4.5-1.8.2-1.8-1.3 0-3.4-1.4-3.3-4.4.4zM349.7 580.7c-1.4 1.3-.6 2.3 1.7 2.3 1.3 0 2.9-.7 3.6-1.5 1.1-1.3.8-1.5-1.7-1.5-1.6 0-3.3.3-3.6.7zM373.5 581c-.3.5-.1 1 .4 1 .6 0 1.1-.5 1.1-1 0-.6-.2-1-.4-1-.3 0-.8.4-1.1 1z"/><path d="M191 583.8c0 .4.5 1.3 1.1 1.9 1.5 1.5.5 2.9-3.5 4.8-2.5 1.2-3.3 2.1-2.9 3.6.4 1.3 0 1.9-1 1.9-2.2 0-3.2 2-1.6 3.1.8.5 2.4.9 3.5.9 1.2 0 2.4.7 2.8 1.5.7 2 5.6 2 5.6-.1 0-2.8-2-5.4-4.2-5.4-1.7 0-1.8-.3-.9-1.4 1.1-1.3 1.7-1.2 4.4.4 3 1.8 3.3 1.8 3.4.2.1-.9.4-2.8.5-4.2.2-1.9-.1-2.5-1.5-2.3-1.3.1-1.7-.4-1.3-1.4.4-.9.1-2.2-.5-2.9-1.2-1.5-3.9-1.9-3.9-.6zM464.7 583.6c-.9 1-.9 4.4.1 4.4.4 0 1.4-.5 2.2-1 1.3-.8 1.3-1.1-.1-2.5-.8-.8-1.8-1.2-2.2-.9zM457 586.5c0 .8.7 1.5 1.5 1.5.9 0 1.2-.6.9-1.5-.4-.8-1-1.5-1.5-1.5s-.9.7-.9 1.5zM178.3 589.1c-.9.9-.6 1.7 1.2 3 2.9 2.4 4.5 2.4 4.5.1 0-3.5-3.5-5.3-5.7-3.1zM451 590c.8.5 1.1 1 .6 1-.5 0-.1.9.9 2 2.1 2.3 4.5 2.6 4.5.6 0-2.2-2.8-4.6-5.3-4.6-1.8 0-1.9.2-.7 1zM458.5 592c-.3.5.1 1 .9 1s1.8-.5 2.1-1c.3-.6-.1-1-.9-1s-1.8.4-2.1 1zM224 595.8c0 1.2 1.9 2.6 2.6 1.9.2-.2-.2-1-1.1-1.7-.9-.8-1.5-.8-1.5-.2zM230.5 598c-.7 1.2.2 3 1.6 3 .5 0 .9-.9.9-2 0-2.1-1.5-2.7-2.5-1zM236.2 600.6c.2 1.1 1.1 2 2.2 2.2 1.3.3 1.7-.1 1.4-1.4-.2-1.1-1.1-2-2.2-2.2-1.3-.3-1.7.1-1.4 1.4zM453 600c0 .5.5 1 1 1 .6 0 1-.5 1-1 0-.6-.4-1-1-1-.5 0-1 .4-1 1zM186 607c0 .5.5 1 1.1 1 .5 0 .7-.5.4-1-.3-.6-.8-1-1.1-1-.2 0-.4.4-.4 1zM233 609c0 .5.5 1 1 1 .6 0 1-.5 1-1 0-.6-.4-1-1-1-.5 0-1 .4-1 1zM211 616.5c0 .9.6 1.2 1.5.9.8-.4 1.2-1 .9-1.5-.8-1.4-2.4-1-2.4.6zM218.5 616c.4.6 1.1.8 1.6.5 1.4-.9 1.1-1.5-.7-1.5-.8 0-1.2.5-.9 1zM344.7 1277.6c-.8.8.1 2.4 1.3 2.4.4 0 1-.7 1.4-1.5.5-1.5-1.4-2.1-2.7-.9z"/></svg>