<?xml version="1.0" encoding="UTF-8" standalone="no"?>
<!-- Created with Inkscape (http://www.inkscape.org/) -->

<svg
   xmlns:dc="http://purl.org/dc/elements/1.1/"
   xmlns:cc="http://creativecommons.org/ns#"
   xmlns:rdf="http://www.w3.org/1999/02/22-rdf-syntax-ns#"
   xmlns:svg="http://www.w3.org/2000/svg"
   xmlns="http://www.w3.org/2000/svg"
   xmlns:sodipodi="http://sodipodi.sourceforge.net/DTD/sodipodi-0.dtd"
   xmlns:inkscape="http://www.inkscape.org/namespaces/inkscape"
   width="380.02182"
   height="111.58366"
   viewBox="0 0 100.54744 29.523181"
   version="1.1"
   id="svg8"
   inkscape:version="0.92.2 5c3e80d, 2017-08-06"
   sodipodi:docname="name.svg">
  <defs
     id="defs2" />
  <sodipodi:namedview
     id="base"
     pagecolor="#ffffff"
     bordercolor="#666666"
     borderopacity="1.0"
     inkscape:pageopacity="0.0"
     inkscape:pageshadow="2"
     inkscape:zoom="1"
     inkscape:cx="208.90289"
     inkscape:cy="20.986731"
     inkscape:document-units="mm"
     inkscape:current-layer="layer1"
     showgrid="false"
     units="px"
     fit-margin-top="5"
     fit-margin-left="5"
     fit-margin-right="5"
     fit-margin-bottom="5"
     inkscape:window-width="1920"
     inkscape:window-height="1155"
     inkscape:window-x="0"
     inkscape:window-y="1"
     inkscape:window-maximized="1" />
  <metadata
     id="metadata5">
    <rdf:RDF>
      <cc:Work
         rdf:about="">
        <dc:format>image/svg+xml</dc:format>
        <dc:type
           rdf:resource="http://purl.org/dc/dcmitype/StillImage" />
        <dc:title></dc:title>
      </cc:Work>
    </rdf:RDF>
  </metadata>
  <g
     inkscape:label="Layer 1"
     inkscape:groupmode="layer"
     id="layer1"
     transform="translate(-63.404664,-71.301526)">
    <path
       style="fill:#ffffff;stroke:none;stroke-width:0.11506517;fill-opacity:1"
       d="m 102.46714,76.7394 c -0.73551,0.0025 -2.45383,1.359832 -4.662163,3.68276 -4.466906,4.698704 -5.950354,7.557867 -4.984434,9.606144 0.492834,1.045076 1.216877,1.438314 2.648522,1.438314 1.457063,0 3.112246,-0.609044 4.918365,-1.810029 0.4357,-0.28972 0.81844,-0.500533 0.85063,-0.468351 0.0322,0.03219 -0.14968,0.414826 -0.40408,0.850179 -0.80384,1.375572 -0.869579,1.961748 -0.25598,2.279054 0.4495,0.232446 0.67231,0.06798 1.052,-0.775791 0.1752,-0.389359 0.76642,-1.369093 1.31358,-2.177248 0.54716,-0.808156 0.99469,-1.496136 0.99469,-1.528884 0,-0.123374 1.55698,-2.696743 1.63181,-2.697064 0.043,-1.88e-4 0.0354,0.141944 -0.0169,0.315979 -0.54655,1.821027 -0.70585,2.471748 -0.76725,3.13238 -0.081,0.871393 0.0837,1.550147 0.41981,1.730022 0.36541,0.195563 1.06559,0.123916 1.70688,-0.174619 0.75039,-0.349332 1.05289,-0.367729 1.05289,-0.06383 0,0.122544 -0.12931,0.756837 -0.28744,1.409549 -0.35462,1.463677 -0.35482,1.532972 -0.005,1.882394 0.60056,0.600569 0.84588,0.265426 1.38213,-1.888237 0.52961,-2.127005 0.64338,-2.304574 1.4282,-2.229164 0.76582,0.07359 1.59266,-0.140602 2.38513,-0.617801 0.36022,-0.216915 0.67081,-0.378525 0.69016,-0.359128 0.0194,0.01937 -0.0402,0.254634 -0.13259,0.522736 -0.21659,0.628646 -0.38308,2.493704 -0.26856,3.009899 0.15743,0.709696 0.86599,0.954854 1.12391,0.388794 0.0764,-0.167673 0.21039,-0.905529 0.29777,-1.639679 0.0874,-0.734154 0.27147,-1.697389 0.40902,-2.140392 0.83218,-2.680096 2.83509,-4.989822 3.93267,-4.535186 0.93653,0.38792 0.76005,1.775546 -0.35373,2.781791 -0.62576,0.565329 -1.00453,0.74446 -1.86959,0.883665 -0.77575,0.124835 -1.02233,0.312024 -1.02233,0.77669 0,0.146119 0.11011,0.375743 0.24474,0.510376 0.56369,0.563681 2.26019,0.0081 3.58747,-1.174923 l 0.63511,-0.565887 0.0773,0.457564 c 0.0425,0.251759 0.19126,0.627295 0.33036,0.834447 0.46369,0.690552 1.18153,0.52393 2.89034,-0.670614 0.44495,-0.311043 0.80896,-0.49271 0.86816,-0.433517 0.0561,0.05606 0.11703,0.588879 0.13551,1.184138 l 0.0335,1.082332 -0.92052,0.153494 c -3.07324,0.512456 -5.34398,1.789736 -5.92024,3.329923 -0.4222,1.128433 -0.25737,2.67879 0.40475,3.808613 0.64389,1.098711 1.80756,2.091091 2.92652,2.495702 0.74517,0.269441 2.42431,0.198973 3.04923,-0.128101 1.42578,-0.746227 1.96643,-2.321188 2.0941,-6.101601 l 0.0708,-2.099939 h 0.31261 c 0.17196,0 0.53492,0.07832 0.80658,0.17417 0.27165,0.09584 0.5846,0.145711 0.69533,0.110571 0.26569,-0.08433 0.44545,-0.617244 0.32138,-0.952659 -0.12381,-0.33468 -0.89768,-0.682908 -1.73767,-0.781634 l -0.64072,-0.07529 -0.13777,-0.877148 c -0.24627,-1.569795 -0.28041,-3.98244 -0.0721,-5.08624 0.3146,-1.66728 0.23376,-2.177249 -0.34452,-2.177249 -0.59704,0 -1.04861,1.075252 -1.2565,2.991694 -0.12725,1.173091 -0.55266,1.783602 -1.63114,2.341308 -0.85628,0.442798 -0.99177,0.148949 -0.50229,-1.089749 0.26721,-0.676196 0.35621,-1.069147 0.33082,-1.462137 -0.0314,-0.486618 -0.0617,-0.537345 -0.32115,-0.537345 -0.22261,0 -0.36621,0.133146 -0.6432,0.596676 l -0.35643,0.596451 -0.1935,-0.596451 c -0.4844,-1.493742 -1.45164,-2.239547 -2.59818,-2.003079 -0.42546,0.08775 -0.66622,0.26187 -1.44191,1.043453 -0.51214,0.516021 -1.1258,1.164945 -1.3637,1.44191 -0.23791,0.276962 -0.46763,0.468626 -0.51038,0.425877 -0.0427,-0.04275 -0.1116,-0.447475 -0.15305,-0.899396 -0.0641,-0.69892 -0.12146,-0.861419 -0.3843,-1.087501 -0.41072,-0.353294 -0.81115,-0.335252 -1.62979,0.07394 -0.93803,0.468869 -1.86099,1.325845 -2.95596,2.744259 -1.12206,1.453505 -2.02724,2.35729 -2.67526,2.670995 -1.01516,0.491428 -1.18812,-0.02554 -0.58499,-1.747552 0.50926,-1.454031 0.53978,-2.198171 0.0928,-2.261525 -0.14605,-0.0207 -0.38622,0.04125 -0.53352,0.137764 -0.33305,0.21822 -0.40925,0.146589 -0.40925,-0.384975 0,-1.005 -0.46149,-1.031134 -2.39322,-0.134617 -1.47589,0.684955 -2.38498,0.99983 -3.747032,1.297405 -1.017304,0.222256 -1.666014,0.477917 -1.82621,0.720056 -0.226514,0.342369 0.04825,1.116234 0.451271,1.270887 0.142371,0.05463 3.599591,-0.799735 4.256961,-1.051993 0.0834,-0.03201 0.15147,0.01624 0.15147,0.107199 0,0.198655 -2.46504,1.813042 -3.679385,2.409626 -3.313041,1.627641 -5.758817,0.932384 -4.845098,-1.377411 0.518567,-1.310885 2.244717,-3.527584 4.65969,-5.984063 1.717253,-1.74677 2.126083,-2.054246 2.479523,-1.865089 0.29761,0.159274 0.54242,0.03385 1.0394,-0.532177 0.94079,-1.071496 1.08515,-2.458793 0.25553,-2.455922 z m 10.70601,7.704647 c 0.14758,-0.0043 0.24466,0.104481 0.32362,0.312159 0.23266,0.611937 -0.2013,1.807045 -0.86074,2.370748 -0.76734,0.655934 -2.02972,0.993158 -2.18669,0.58409 -0.13128,-0.34209 0.40598,-1.192059 1.41359,-2.236129 0.67767,-0.702191 1.06424,-1.02365 1.31022,-1.030868 z m 11.47527,6.59692 c 0.0305,0.0014 0.0532,0.0047 0.0672,0.01011 0.17065,0.06549 0.18448,0.325288 0.13574,2.574359 -0.041,1.891603 -0.1007,2.64658 -0.24474,3.096871 -0.21641,0.676579 -0.66225,1.11756 -1.31223,1.298079 -1.13047,0.313958 -2.54981,-0.120276 -3.43825,-1.051767 -0.66726,-0.699589 -1.18514,-2.026246 -1.18818,-3.043384 -10e-4,-0.404767 0.0633,-0.534034 0.43194,-0.867035 0.52656,-0.47571 1.64501,-1.16478 2.27074,-1.398761 0.62008,-0.231869 2.82019,-0.639424 3.27778,-0.618475 z"
       id="path872"
       inkscape:connector-curvature="0" />
    <path
       style="fill:#ffffff;stroke:none;stroke-width:0.11506517;fill-opacity:1"
       d="m 148.00014,83.55409 c -1.09638,0.03181 -2.61078,0.986707 -3.2252,2.175001 -0.34875,0.674457 -0.36442,1.57349 -0.0353,2.017911 0.42557,0.574635 1.13478,1.022497 2.24377,1.41674 2.2337,0.794074 3.14385,1.389384 3.62388,2.370522 0.27969,0.571639 0.30381,0.720608 0.24833,1.530008 -0.11082,1.616859 -0.93204,2.803254 -2.20152,3.180248 -1.13594,0.337337 -2.148,0.106917 -3.03529,-0.69084 -0.77082,-0.693031 -1.07678,-1.423835 -1.16661,-2.78741 -0.0825,-1.252794 -0.22326,-1.488335 -0.5578,-0.934004 -0.94882,1.572226 -0.54845,3.750558 0.91715,4.990052 0.49479,0.418458 1.45662,0.854848 2.1359,0.969289 0.86659,0.145999 0.99865,0.134573 1.96959,-0.172147 1.16775,-0.368889 1.97351,-1.06235 2.58358,-2.223321 0.59802,-1.138046 0.79635,-2.020605 0.74792,-3.330821 l -0.0404,-1.089524 0.55532,-0.163384 c 0.63643,-0.187221 1.93544,-1.331108 1.73699,-1.529557 -0.0734,-0.07335 -0.57217,-0.05481 -1.43247,0.05304 -1.29697,0.162589 -1.32913,0.160841 -1.8379,-0.089 -0.28478,-0.139853 -0.51779,-0.314969 -0.51779,-0.389245 0,-0.07427 0.33656,-0.391047 0.74792,-0.7041 2.60317,-1.981059 3.64662,-4.396298 1.89925,-4.396298 -0.76618,0 -1.79865,0.589798 -2.81977,1.610912 -0.89759,0.897596 -1.61091,2.052186 -1.61091,2.607395 0,0.148107 -0.0173,0.269234 -0.0384,0.269234 -0.16515,0 -2.34638,-0.960468 -2.50289,-1.102108 -0.30715,-0.277969 -0.36399,-0.701244 -0.15372,-1.14436 0.23254,-0.49004 0.7612,-0.828495 1.43472,-0.918723 1.16527,-0.156104 1.26583,-0.188038 1.44213,-0.457114 0.22763,-0.347413 0.0777,-0.669614 -0.43441,-0.934455 -0.1923,-0.09944 -0.423,-0.141285 -0.67601,-0.133943 z m 4.42304,1.943972 c 0.23669,0.0083 0.0258,0.42623 -0.62589,1.046374 -0.72598,0.690822 -1.0275,0.820935 -1.0275,0.443405 0,-0.292413 0.50627,-0.88281 1.05267,-1.227736 0.29314,-0.185049 0.49313,-0.265813 0.60072,-0.262043 z"
       id="path858"
       inkscape:connector-curvature="0" />
    <path
       style="fill:#ffffff;stroke:none;stroke-width:0.11506517;fill-opacity:1"
       d="m 70.33805,93.163835 c -0.547008,-0.897156 -0.148089,-1.877868 2.819959,-6.932675 2.035233,-3.466154 2.930971,-5.047278 2.885271,-5.092981 -0.01781,-0.01783 -1.114317,0.199446 -2.436682,0.482795 -4.347541,0.931561 -6.515397,1.211975 -7.704479,0.996586 -1.144064,-0.207239 -1.491602,-0.902245 -0.868555,-1.736933 0.248121,-0.332401 0.523539,-0.34483 1.278465,-0.05769 0.42891,0.163137 0.735064,0.183725 1.783511,0.119948 2.662904,-0.161993 6.554924,-1.007258 8.51574,-1.849448 0.51099,-0.219473 1.041624,-0.399043 1.179187,-0.399043 0.505294,0 0.632995,0.763356 0.263762,1.57667 -0.263573,0.580572 -3.307162,5.855434 -4.751391,8.234663 -1.133973,1.868113 -1.629322,2.947837 -1.753604,3.822375 -0.115137,0.810186 -0.345254,1.2097 -0.696776,1.2097 -0.199636,0 -0.355474,-0.11329 -0.514408,-0.373964 z"
       id="path850"
       inkscape:connector-curvature="0" />
    <path
       style="fill:#ffffff;stroke:none;stroke-width:0.11506517;fill-opacity:1"
       d="m 134.48019,91.9181 c -0.18699,-0.206626 -0.21401,-0.413987 -0.19995,-1.534139 0.034,-2.70845 0.43048,-5.597851 0.90278,-6.579129 0.25335,-0.526367 0.62934,-0.853032 0.98183,-0.853032 0.23683,0 0.32044,0.558302 0.20661,1.379687 -0.0632,0.456349 -0.0954,0.849305 -0.0715,0.873232 0.0239,0.02392 0.55808,-0.03327 1.18701,-0.127106 3.17126,-0.47314 4.72702,-1.565045 5.11918,-3.59289 0.7578,-3.918562 -5.00547,-8.027035 -9.99174,-7.122821 -2.3148,0.419767 -2.89632,1.396572 -3.11421,5.231066 -0.10156,1.787424 -0.20008,2.141117 -0.52194,1.873994 -0.54079,-0.448818 -0.85582,-3.38419 -0.49724,-4.633234 0.0968,-0.337281 0.23074,-0.820857 0.29758,-1.074612 0.25263,-0.959054 1.38264,-2.059782 2.72321,-2.652646 2.10046,-0.928924 5.53872,-0.48242 8.13692,1.056688 1.11989,0.663398 2.83138,2.314257 3.39433,3.27409 0.90923,1.550255 1.17259,3.237836 0.73177,4.689149 -0.32213,1.060536 -0.31401,1.32442 0.0467,1.517456 0.32938,0.176279 0.49027,0.634368 0.31847,0.906737 -0.0633,0.100307 -0.33361,0.219694 -0.60075,0.265301 -1.37535,0.234785 -3.38281,1.703924 -4.02942,2.948872 -0.3315,0.638265 0.25901,0.784389 1.22484,0.303094 0.34932,-0.17407 0.88652,-0.615559 1.33011,-1.093118 0.40927,-0.440611 0.82512,-0.801111 0.92411,-0.801111 0.22078,0 0.65694,0.533687 0.65694,0.803837 0,0.10861 -0.12945,0.440933 -0.28766,0.738495 -0.15822,0.297557 -0.28766,0.564168 -0.28766,0.592462 0,0.02831 0.17133,0.05144 0.38073,0.05144 0.20941,0 0.47837,0.07139 0.5977,0.158649 0.20882,0.15269 0.20931,0.170334 0.013,0.469901 -0.40184,0.613293 -1.70965,0.959028 -2.20641,0.583294 -0.31174,-0.235789 -0.50237,-0.218307 -1.25659,0.115247 -1.22351,0.541092 -2.05306,0.474976 -2.5268,-0.201386 -0.26899,-0.384027 -0.221,-1.299592 0.11028,-2.103759 0.15641,-0.379713 0.28463,-0.703334 0.28493,-0.719155 3.4e-4,-0.01583 -0.58885,-0.02875 -1.3092,-0.02875 h -1.30973 l -0.068,0.834223 c -0.0374,0.45882 -0.0982,1.455571 -0.13516,2.215001 -0.0839,1.724277 -0.13078,1.969021 -0.43114,2.248848 -0.30724,0.286229 -0.4549,0.283403 -0.72392,-0.01387 z"
       id="path846"
       inkscape:connector-curvature="0" />
    <path
       style="fill:#ffffff;stroke:none;stroke-width:0.11506517;fill-opacity:1"
       d="m 80.497472,91.788102 c -0.712373,-0.343935 -0.53669,-1.586843 0.498234,-3.52487 0.734211,-1.374902 0.746516,-1.681805 0.05079,-1.266627 -0.711974,0.424868 -2.335322,1.870401 -3.355884,2.988291 -0.758806,0.831174 -0.99405,1.021487 -1.262642,1.021487 -0.46126,0 -0.718826,-0.41503 -0.618927,-0.997307 0.244221,-1.423467 1.526649,-4.802043 2.918991,-7.690113 1.665446,-3.454565 2.504476,-4.431414 3.067783,-3.571699 0.272965,0.416596 0.137776,0.813701 -0.714153,2.097741 -0.411896,0.620817 -1.124452,1.883278 -1.583458,2.805471 -0.841715,1.691095 -1.772523,4.079566 -1.641069,4.21102 0.0391,0.0391 0.441506,-0.278344 0.894239,-0.705429 1.456038,-1.373554 3.12001,-2.299326 3.87379,-2.155234 0.374672,0.07163 0.636078,0.691244 0.533755,1.265171 -0.105205,0.590096 -1.066232,3.012562 -1.327074,3.345163 -0.159511,0.20339 -0.196809,0.382488 -0.145925,0.700698 0.07834,0.489923 -0.265935,1.296813 -0.638356,1.496124 -0.257047,0.13757 -0.221275,0.138861 -0.55009,-0.01987 z"
       id="path842"
       inkscape:connector-curvature="0" />
    <path
       style="fill:#ffffff;stroke:none;stroke-width:0.11506517;fill-opacity:1"
       d="m 83.487849,90.957367 c -0.200373,-0.168604 -0.553728,-0.564582 -0.785232,-0.879952 -0.580163,-0.790343 -0.50808,-1.147097 0.398145,-1.970483 0.369274,-0.335519 0.987885,-1.009415 1.374689,-1.497542 1.032458,-1.302906 2.311435,-2.236154 3.331756,-2.43112 0.305892,-0.05845 0.434174,-0.01931 0.652701,0.199233 0.323213,0.323216 0.276351,0.691695 -0.209433,1.646757 -0.508995,1.0007 -1.853077,2.553838 -2.217712,2.562658 -0.07041,0.0017 -0.329301,0.163085 -0.575326,0.358629 -0.246023,0.195545 -0.524553,0.398779 -0.618955,0.451631 -0.435484,0.243814 0.04104,0.183581 0.978947,-0.123744 0.567713,-0.186025 1.200832,-0.338224 1.406932,-0.338224 0.329843,0 0.374727,0.03701 0.374727,0.308817 0,0.453288 -0.923309,1.297374 -1.784167,1.631075 -0.379354,0.14705 -0.976164,0.294696 -1.326245,0.328092 -0.568491,0.05424 -0.675441,0.02796 -1.000827,-0.245827 z"
       id="path838"
       inkscape:connector-curvature="0" />
    <path
       style="fill:#ffffff;stroke:none;stroke-width:0.11506517;fill-opacity:1"
       d="m 157.61671,91.115071 c -0.84616,-0.131824 -1.86582,-0.630367 -2.18156,-1.066629 -0.32973,-0.455601 -0.31285,-1.374454 0.0316,-1.71888 l 0.24981,-0.249811 0.54713,0.537431 c 0.68399,0.671865 1.42427,1.003701 2.4266,1.08773 1.37024,0.114877 2.55054,-0.415261 2.55054,-1.145597 0,-0.335184 -0.69186,-0.933452 -1.39906,-1.209804 -0.33802,-0.132085 -1.21124,-0.401557 -1.94049,-0.59882 -2.59726,-0.702564 -3.17887,-1.422797 -2.05585,-2.545814 0.51025,-0.510259 2.63338,-1.589222 3.30424,-1.679206 0.54385,-0.07294 0.67226,0.07766 0.4741,0.55604 -0.14901,0.359752 -0.72866,0.84754 -1.66559,1.401623 -0.30846,0.182419 -0.5021,0.365692 -0.44432,0.420531 0.0563,0.05346 0.6461,0.26328 1.3106,0.466261 3.49616,1.067973 4.41614,2.174552 3.43695,4.134079 -0.38423,0.768916 -0.99626,1.273712 -1.82207,1.502818 -0.62341,0.172956 -2.05437,0.227731 -2.82261,0.108048 z"
       id="path834"
       inkscape:connector-curvature="0" />
    <path
       style="fill:#ffffff;stroke:none;stroke-width:0.11506517;fill-opacity:1"
       d="m 108.65602,80.765563 c -0.44816,-0.448156 -0.22272,-1.495741 0.35435,-1.646649 0.27268,-0.0713 0.7963,0.359982 0.7963,0.655874 0,0.30098 -0.20887,0.731876 -0.47491,0.979725 -0.32017,0.298284 -0.38741,0.299384 -0.67574,0.01105 z"
       id="path830"
       inkscape:connector-curvature="0" />
  </g>
</svg>
