<svg xmlns="http://www.w3.org/2000/svg" width="380.022" height="111.584" preserveAspectRatio="xMinYMin meet" viewBox="0 0 100.547 29.523"><path d="M102.467 76.74c-.735.002-2.454 1.36-4.662 3.682-4.467 4.699-5.95 7.558-4.984 9.606.492 1.045 1.216 1.439 2.648 1.439 1.457 0 3.112-.61 4.918-1.81.436-.29.819-.5.851-.469.032.032-.15.415-.404.85-.804 1.376-.87 1.962-.256 2.28.45.232.672.067 1.052-.776.175-.39.766-1.37 1.314-2.178.547-.808.994-1.496.994-1.528 0-.124 1.557-2.697 1.632-2.698.043 0 .035.142-.017.316-.546 1.821-.706 2.472-.767 3.133-.081.871.084 1.55.42 1.73.365.195 1.065.124 1.707-.175.75-.35 1.053-.367 1.053-.064 0 .123-.13.757-.288 1.41-.355 1.464-.355 1.533-.005 1.882.6.6.846.266 1.382-1.888.53-2.127.644-2.304 1.428-2.229.766.074 1.593-.14 2.386-.618.36-.217.67-.378.69-.359.02.02-.04.255-.133.523-.216.628-.383 2.493-.268 3.01.157.71.866.955 1.123.388.077-.167.21-.905.298-1.64.088-.733.272-1.697.41-2.14.831-2.68 2.834-4.99 3.932-4.535.936.388.76 1.776-.354 2.782-.626.565-1.004.744-1.87.884-.775.124-1.022.312-1.022.776 0 .146.11.376.245.51.564.564 2.26.009 3.587-1.174l.636-.566.077.457c.042.252.191.628.33.835.464.69 1.182.524 2.89-.67.446-.312.81-.493.869-.434.056.056.117.589.135 1.184l.034 1.082-.92.154c-3.074.512-5.345 1.79-5.921 3.33-.422 1.128-.257 2.678.405 3.808.644 1.099 1.807 2.091 2.926 2.496.745.27 2.425.199 3.05-.128 1.425-.746 1.966-2.321 2.094-6.102l.07-2.1h.313c.172 0 .535.079.807.175.271.095.584.145.695.11.266-.084.445-.617.321-.953-.124-.334-.897-.682-1.737-.781l-.641-.075-.138-.878c-.246-1.57-.28-3.982-.072-5.086.315-1.667.234-2.177-.344-2.177-.598 0-1.05 1.075-1.257 2.992-.127 1.173-.553 1.783-1.631 2.34-.856.444-.992.15-.502-1.089.267-.676.356-1.069.33-1.462-.031-.487-.061-.537-.32-.537-.223 0-.367.133-.644.596l-.356.597-.194-.597c-.484-1.493-1.452-2.24-2.598-2.003-.426.088-.666.262-1.442 1.044a36.834 36.834 0 0 0-1.364 1.442c-.238.277-.467.468-.51.425-.043-.042-.112-.447-.153-.899-.064-.699-.122-.861-.384-1.087-.411-.354-.812-.336-1.63.074-.938.468-1.861 1.325-2.956 2.744-1.122 1.453-2.027 2.357-2.675 2.67-1.016.492-1.189-.025-.585-1.747.509-1.454.54-2.198.092-2.261-.146-.021-.386.041-.533.137-.333.219-.41.147-.41-.385 0-1.005-.46-1.03-2.393-.134-1.475.685-2.385 1-3.747 1.297-1.017.223-1.666.478-1.826.72-.226.343.048 1.117.451 1.271.143.055 3.6-.8 4.257-1.052.084-.032.152.016.152.107 0 .2-2.465 1.813-3.68 2.41-3.313 1.628-5.758.932-4.845-1.377.519-1.311 2.245-3.528 4.66-5.984 1.717-1.747 2.126-2.055 2.48-1.866.297.16.542.034 1.039-.532.94-1.071 1.085-2.458.256-2.456zm10.706 7.704c.148-.004.245.105.324.312.232.612-.202 1.807-.861 2.371-.767.656-2.03.993-2.187.584-.13-.342.406-1.192 1.414-2.236.678-.702 1.064-1.024 1.31-1.031zm11.475 6.597c.03.001.054.005.068.01.17.066.184.325.135 2.574-.04 1.892-.1 2.647-.244 3.097-.217.677-.663 1.118-1.313 1.298-1.13.314-2.55-.12-3.438-1.051-.667-.7-1.185-2.027-1.188-3.044-.001-.405.063-.534.432-.867.526-.476 1.645-1.165 2.27-1.399.62-.231 2.82-.639 3.278-.618zM148 83.554c-1.096.032-2.61.987-3.225 2.175-.349.675-.364 1.574-.035 2.018.425.575 1.134 1.022 2.243 1.417 2.234.794 3.144 1.39 3.624 2.37.28.572.304.72.249 1.53-.111 1.617-.932 2.804-2.202 3.18-1.136.338-2.148.107-3.035-.69-.771-.693-1.077-1.424-1.167-2.788-.082-1.253-.223-1.488-.558-.934-.948 1.572-.548 3.75.918 4.99.494.419 1.456.855 2.135.97.867.146 1 .134 1.97-.173 1.168-.368 1.974-1.062 2.584-2.223.598-1.138.796-2.02.748-3.33l-.04-1.09.554-.164c.637-.187 1.936-1.33 1.737-1.53-.073-.072-.572-.054-1.432.054-1.297.162-1.33.16-1.838-.09-.285-.139-.518-.314-.518-.388 0-.075.337-.391.748-.704 2.603-1.982 3.647-4.397 1.9-4.397-.767 0-1.8.59-2.82 1.611-.898.898-1.611 2.052-1.611 2.608 0 .148-.018.269-.039.269-.165 0-2.346-.96-2.503-1.102-.307-.278-.363-.702-.153-1.145.232-.49.761-.828 1.434-.918 1.166-.157 1.266-.188 1.443-.458.227-.347.077-.67-.435-.934a1.378 1.378 0 0 0-.676-.134zm4.423 1.944c.237.008.026.426-.626 1.046-.726.691-1.027.821-1.027.444 0-.293.506-.883 1.052-1.228.294-.185.494-.266.601-.262zm-82.085 7.666c-.547-.897-.148-1.878 2.82-6.933 2.035-3.466 2.931-5.047 2.885-5.093-.018-.018-1.114.2-2.436.483-4.348.932-6.516 1.212-7.705.997-1.144-.208-1.491-.903-.868-1.737.248-.333.523-.345 1.278-.058.429.163.735.184 1.784.12 2.662-.162 6.554-1.007 8.515-1.85.511-.219 1.042-.399 1.18-.399.505 0 .632.764.263 1.577-.263.58-3.307 5.855-4.751 8.235-1.134 1.868-1.63 2.948-1.754 3.822-.115.81-.345 1.21-.697 1.21-.2 0-.355-.113-.514-.374z" style="fill:#fff;stroke:none;stroke-width:.11506517;fill-opacity:1" transform="translate(-63.405 -71.302)"/><path d="M134.48 91.918c-.187-.207-.214-.414-.2-1.534.034-2.708.43-5.598.903-6.58.253-.526.63-.852.982-.852.237 0 .32.558.206 1.38-.063.456-.095.849-.071.873.024.024.558-.034 1.187-.127 3.171-.474 4.727-1.565 5.12-3.593.757-3.919-5.006-8.027-9.993-7.123-2.314.42-2.896 1.396-3.114 5.231-.101 1.787-.2 2.141-.522 1.874-.54-.449-.856-3.384-.497-4.633.097-.338.23-.821.298-1.075.252-.959 1.382-2.06 2.723-2.653 2.1-.928 5.539-.482 8.137 1.057 1.12.664 2.831 2.314 3.394 3.274.91 1.55 1.173 3.238.732 4.69-.322 1.06-.314 1.324.047 1.517.329.176.49.634.318.907-.063.1-.334.22-.6.265-1.376.235-3.384 1.704-4.03 2.949-.332.638.259.784 1.225.303.349-.174.886-.616 1.33-1.093.409-.44.825-.801.924-.801.22 0 .657.533.657.803 0 .11-.13.441-.288.739-.158.298-.287.564-.287.592 0 .029.17.052.38.052s.479.071.598.159c.209.152.21.17.013.47-.402.613-1.71.958-2.206.583-.312-.236-.503-.219-1.257.115-1.224.541-2.053.475-2.527-.201-.269-.384-.22-1.3.11-2.104.157-.38.285-.704.285-.72 0-.015-.588-.028-1.309-.028h-1.31l-.068.834a86.657 86.657 0 0 0-.135 2.215c-.084 1.724-.13 1.97-.43 2.249-.308.286-.456.283-.725-.014zm-53.983-.13c-.712-.344-.536-1.587.499-3.525.734-1.375.746-1.682.05-1.266-.711.424-2.335 1.87-3.355 2.988-.76.831-.994 1.021-1.263 1.021-.461 0-.719-.415-.619-.997.244-1.423 1.527-4.802 2.919-7.69 1.665-3.455 2.505-4.431 3.068-3.572.273.417.138.814-.714 2.098-.412.62-1.125 1.883-1.584 2.805-.842 1.692-1.772 4.08-1.64 4.211.038.04.44-.278.893-.705 1.456-1.373 3.12-2.3 3.874-2.155.375.071.636.691.534 1.265-.105.59-1.066 3.013-1.327 3.345-.16.204-.197.383-.146.7.078.49-.266 1.298-.638 1.497-.257.138-.222.139-.55-.02z" style="fill:#fff;stroke:none;stroke-width:.11506517;fill-opacity:1" transform="translate(-63.405 -71.302)"/><path d="M83.488 90.957c-.2-.168-.554-.564-.785-.88-.58-.79-.508-1.147.398-1.97.369-.336.988-1.01 1.374-1.498 1.033-1.303 2.312-2.236 3.332-2.43.306-.06.434-.02.653.199.323.323.276.691-.21 1.646-.509 1.001-1.853 2.554-2.217 2.563-.07.002-.33.163-.576.359a7.252 7.252 0 0 1-.619.451c-.435.244.042.184.98-.124.567-.186 1.2-.338 1.406-.338.33 0 .375.037.375.309 0 .453-.923 1.297-1.784 1.631-.38.147-.976.295-1.326.328-.569.054-.676.028-1.001-.246zm74.129.158c-.846-.132-1.866-.63-2.182-1.067-.33-.455-.313-1.374.032-1.718l.25-.25.547.537c.684.672 1.424 1.004 2.426 1.088 1.37.115 2.55-.415 2.55-1.146 0-.335-.691-.933-1.398-1.21-.338-.132-1.211-.401-1.94-.598-2.598-.703-3.18-1.423-2.057-2.546.51-.51 2.634-1.59 3.305-1.68.544-.072.672.078.474.557-.15.36-.729.847-1.666 1.401-.308.183-.502.366-.444.42.056.054.646.264 1.31.467 3.497 1.068 4.417 2.175 3.437 4.134a2.797 2.797 0 0 1-1.822 1.503c-.623.173-2.054.228-2.822.108zm-48.961-10.349c-.448-.449-.223-1.496.354-1.647.273-.071.797.36.797.656 0 .3-.21.732-.475.98-.32.298-.388.299-.676.01z" style="fill:#fff;stroke:none;stroke-width:.11506517;fill-opacity:1" transform="translate(-63.405 -71.302)"/></svg>