<svg xmlns="http://www.w3.org/2000/svg" width="380.022" height="111.584" viewBox="0 0 100.547 29.523" preserveAspectRatio="xMinYMin meet"><g fill="#fff"><path d="M39.062 5.438c-.735.002-2.453 1.36-4.662 3.683-4.467 4.698-5.95 7.558-4.984 9.606.493 1.045 1.217 1.438 2.648 1.438 1.457 0 3.113-.609 4.919-1.81.435-.29.818-.5.85-.468.033.032-.15.415-.404.85-.804 1.375-.87 1.962-.256 2.279.45.232.673.068 1.052-.776.176-.39.767-1.369 1.314-2.177s.995-1.496.995-1.529c0-.123 1.557-2.697 1.631-2.697.043 0 .036.142-.016.316-.547 1.821-.706 2.472-.768 3.132-.08.872.084 1.55.42 1.73.365.196 1.066.124 1.707-.174.75-.35 1.053-.368 1.053-.064 0 .122-.13.757-.288 1.41-.354 1.463-.354 1.532-.005 1.882.601.6.846.265 1.383-1.888.53-2.127.643-2.305 1.428-2.23.766.074 1.592-.14 2.385-.617.36-.217.67-.379.69-.36.02.02-.04.255-.133.523-.216.629-.383 2.494-.268 3.01.157.71.866.955 1.124.389.076-.168.21-.906.298-1.64.087-.734.271-1.697.409-2.14.832-2.68 2.835-4.99 3.932-4.535.937.388.76 1.775-.353 2.781-.626.566-1.005.745-1.87.884-.776.125-1.022.312-1.022.777 0 .146.11.376.244.51.564.564 2.26.008 3.588-1.175l.635-.566.077.458c.043.252.191.627.33.834.464.691 1.182.524 2.89-.67.446-.311.81-.493.87-.434.055.056.116.59.135 1.184l.033 1.083-.92.153c-3.074.513-5.344 1.79-5.92 3.33-.423 1.129-.258 2.679.404 3.809.644 1.098 1.808 2.09 2.927 2.495.745.27 2.424.2 3.049-.128 1.426-.746 1.966-2.32 2.094-6.101l.07-2.1h.313c.172 0 .535.078.807.174.272.096.585.146.695.11.266-.084.446-.617.322-.952-.124-.335-.898-.683-1.738-.782l-.64-.075-.139-.877c-.246-1.57-.28-3.983-.072-5.086.315-1.668.234-2.178-.344-2.178-.597 0-1.049 1.076-1.257 2.992-.127 1.173-.552 1.784-1.63 2.341-.857.443-.993.15-.503-1.09.267-.676.356-1.069.33-1.462-.03-.486-.061-.537-.32-.537-.223 0-.367.133-.644.597l-.356.596-.194-.596c-.484-1.494-1.451-2.24-2.598-2.003-.425.087-.666.262-1.442 1.043a36.834 36.834 0 00-1.363 1.442c-.238.277-.468.469-.51.426-.043-.043-.112-.448-.154-.9-.064-.698-.121-.86-.384-1.087-.41-.353-.811-.335-1.63.074-.938.469-1.86 1.326-2.956 2.744-1.122 1.454-2.027 2.358-2.675 2.671-1.015.492-1.188-.025-.585-1.747.51-1.454.54-2.198.093-2.262-.146-.02-.386.041-.534.138-.333.218-.409.147-.409-.385 0-1.005-.462-1.031-2.393-.135-1.476.685-2.385 1-3.747 1.298-1.018.222-1.666.478-1.826.72-.227.342.048 1.116.45 1.27.143.055 3.6-.799 4.258-1.051.083-.032.151.016.151.107 0 .199-2.465 1.813-3.68 2.41-3.312 1.627-5.758.932-4.844-1.378.518-1.31 2.244-3.527 4.66-5.984 1.717-1.747 2.125-2.054 2.479-1.865.298.16.542.034 1.04-.532.94-1.072 1.084-2.459.255-2.456zm10.706 7.705c.148-.005.245.104.324.312.233.612-.201 1.807-.86 2.37-.768.656-2.03.994-2.187.585-.132-.343.406-1.193 1.413-2.237.678-.702 1.065-1.023 1.31-1.03zm11.476 6.596c.03.002.053.005.067.01.17.066.184.326.136 2.575-.041 1.892-.101 2.646-.245 3.097-.216.676-.662 1.117-1.312 1.298-1.13.314-2.55-.12-3.439-1.052-.667-.7-1.185-2.026-1.188-3.043 0-.405.064-.534.432-.867.527-.476 1.645-1.165 2.271-1.4.62-.231 2.82-.639 3.278-.618zM84.595 12.253c-1.096.031-2.61.986-3.225 2.175-.348.674-.364 1.573-.035 2.017.426.575 1.135 1.023 2.244 1.417 2.233.794 3.144 1.39 3.624 2.37.28.572.303.721.248 1.53-.11 1.618-.932 2.804-2.202 3.181-1.136.337-2.148.107-3.035-.69-.77-.694-1.077-1.425-1.166-2.788-.083-1.253-.224-1.489-.558-.934-.95 1.572-.549 3.75.917 4.99.495.418 1.457.855 2.136.97.866.145.998.134 1.97-.173 1.167-.369 1.973-1.062 2.583-2.223.598-1.138.796-2.021.748-3.331l-.04-1.09.555-.163c.636-.187 1.935-1.331 1.737-1.53-.074-.073-.572-.054-1.433.053-1.297.163-1.329.161-1.838-.089-.284-.14-.517-.315-.517-.389 0-.074.336-.39.748-.704 2.603-1.981 3.646-4.396 1.899-4.396-.766 0-1.799.59-2.82 1.61-.898.898-1.61 2.053-1.61 2.608 0 .148-.018.27-.04.27-.164 0-2.346-.961-2.502-1.103-.307-.278-.364-.701-.154-1.144.233-.49.761-.829 1.435-.919 1.165-.156 1.266-.188 1.442-.457.228-.347.078-.67-.434-.934a1.378 1.378 0 00-.676-.134zm4.424 1.944c.236.008.025.426-.626 1.046-.726.69-1.028.82-1.028.443 0-.292.506-.882 1.053-1.227.293-.185.493-.266.6-.262zM6.933 21.862c-.547-.897-.148-1.878 2.82-6.932 2.036-3.467 2.931-5.048 2.886-5.093-.018-.018-1.115.2-2.437.482-4.348.932-6.515 1.212-7.705.997-1.144-.207-1.491-.902-.868-1.737.248-.332.523-.345 1.278-.058.43.164.735.184 1.784.12 2.663-.162 6.555-1.007 8.516-1.85.51-.219 1.041-.398 1.179-.398.505 0 .633.763.264 1.577-.264.58-3.308 5.855-4.752 8.234-1.134 1.868-1.63 2.948-1.753 3.823-.116.81-.346 1.21-.697 1.21-.2 0-.356-.114-.515-.375z"/><path d="M71.076 20.617c-.187-.207-.214-.414-.2-1.535.034-2.708.43-5.597.902-6.579.254-.526.63-.853.982-.853.237 0 .32.559.207 1.38-.063.456-.096.85-.072.873.024.024.558-.033 1.187-.127 3.172-.473 4.727-1.565 5.12-3.593.757-3.918-5.006-8.027-9.992-7.123-2.315.42-2.897 1.397-3.114 5.231-.102 1.788-.2 2.142-.522 1.874-.541-.448-.856-3.384-.498-4.633.097-.337.231-.82.298-1.074.253-.96 1.383-2.06 2.723-2.653 2.1-.929 5.539-.482 8.137 1.057 1.12.663 2.831 2.314 3.394 3.274.91 1.55 1.173 3.238.732 4.689-.322 1.06-.314 1.324.047 1.517.33.177.49.635.318.907-.063.1-.333.22-.6.265-1.376.235-3.383 1.704-4.03 2.95-.331.638.26.784 1.225.302.35-.174.887-.615 1.33-1.093.41-.44.825-.8.924-.8.221 0 .657.533.657.803 0 .109-.13.44-.287.738-.159.298-.288.565-.288.593 0 .028.171.051.38.051.21 0 .479.072.598.159.21.153.21.17.013.47-.402.613-1.71.959-2.206.583-.312-.236-.503-.218-1.257.115-1.223.542-2.053.475-2.527-.201-.269-.384-.22-1.3.11-2.104.157-.38.285-.703.286-.719 0-.016-.59-.029-1.31-.029h-1.31l-.067.835a86.657 86.657 0 00-.135 2.215c-.084 1.724-.131 1.969-.432 2.248-.307.287-.454.284-.723-.013zM17.093 20.487c-.713-.344-.537-1.587.498-3.525.734-1.375.747-1.682.05-1.267-.711.425-2.334 1.87-3.355 2.988-.759.832-.994 1.022-1.263 1.022-.461 0-.719-.415-.619-.997.245-1.424 1.527-4.802 2.92-7.69 1.665-3.455 2.504-4.432 3.067-3.572.273.416.138.813-.714 2.097-.412.621-1.124 1.884-1.583 2.806-.842 1.691-1.773 4.08-1.642 4.211.04.04.442-.278.895-.705 1.456-1.374 3.12-2.3 3.874-2.156.374.072.636.692.533 1.265-.105.59-1.066 3.013-1.327 3.346-.16.203-.197.382-.146.7.079.49-.266 1.297-.638 1.496-.257.138-.221.14-.55-.02z"/><path d="M20.083 19.656c-.2-.169-.554-.565-.785-.88-.58-.79-.508-1.147.398-1.97.37-.336.988-1.01 1.375-1.498 1.032-1.303 2.311-2.236 3.332-2.431.305-.059.434-.02.652.199.323.323.277.692-.21 1.647-.508 1-1.852 2.554-2.217 2.562-.07.002-.33.163-.575.359a7.252 7.252 0 01-.62.452c-.435.243.042.183.98-.124.567-.186 1.2-.338 1.407-.338.33 0 .374.037.374.309 0 .453-.923 1.297-1.784 1.63-.38.148-.976.295-1.326.329-.568.054-.675.028-1-.246zM94.212 19.814c-.846-.132-1.866-.63-2.182-1.067-.33-.456-.312-1.375.032-1.719l.25-.25.547.538c.684.672 1.424 1.003 2.427 1.087 1.37.115 2.55-.415 2.55-1.145 0-.335-.692-.934-1.399-1.21-.338-.132-1.211-.402-1.94-.599-2.598-.702-3.18-1.423-2.056-2.546.51-.51 2.633-1.589 3.304-1.679.544-.073.672.078.474.556-.149.36-.729.848-1.665 1.402-.309.182-.503.366-.445.42.056.054.646.264 1.31.467 3.497 1.068 4.417 2.174 3.438 4.134a2.797 2.797 0 01-1.822 1.502c-.624.173-2.055.228-2.823.109zM45.251 9.464c-.448-.448-.222-1.496.355-1.647.272-.07.796.36.796.656 0 .301-.209.732-.475.98-.32.298-.387.3-.676.011z"/></g></svg>