<?xml version="1.0" encoding="UTF-8" standalone="no"?>
<!DOCTYPE svg PUBLIC "-//W3C//DTD SVG 1.1//EN" "http://www.w3.org/Graphics/SVG/1.1/DTD/svg11.dtd">
<svg width="100%" height="100%" viewBox="0 0 594 647" version="1.1" xmlns="http://www.w3.org/2000/svg" xmlns:xlink="http://www.w3.org/1999/xlink" xml:space="preserve" xmlns:serif="http://www.serif.com/" style="fill-rule:evenodd;clip-rule:evenodd;">
    <g transform="matrix(1,0,0,1,-124.712,-262.707)">
        <g transform="matrix(4.16667,0,0,4.16667,0,0)">
            <g transform="matrix(1,0,0,1,135.087,110.704)">
                <path d="M0,43.424C0.947,42.009 0.922,42.147 1.695,40.618C4.566,34.936 6.184,28.513 6.184,21.712C6.184,-1.47 -12.608,-20.262 -35.79,-20.262C-58.971,-20.262 -77.764,-1.47 -77.764,21.712C-77.764,44.893 -58.971,63.686 -35.79,63.686C-28.065,63.686 -20.828,61.599 -14.611,57.959C-13.311,57.197 -12.056,56.368 -10.85,55.476" style="fill:none;fill-rule:nonzero;stroke:rgb(0,25,75);stroke-width:4.71px;"/>
            </g>
        </g>
        <g transform="matrix(4.16667,0,0,4.16667,0,0)">
            <g transform="matrix(1,0,0,1,141.606,104.728)">
                <path d="M0,55.376C1.138,53.813 0.841,54.266 1.797,52.575C5.953,45.225 8.325,36.734 8.325,27.688C8.325,-0.277 -14.345,-22.947 -42.31,-22.947C-70.275,-22.947 -92.945,-0.277 -92.945,27.688C-92.945,55.653 -70.275,78.323 -42.31,78.323C-32.85,78.323 -23.997,75.729 -16.421,71.214C-14.832,70.266 -13.298,69.234 -11.827,68.123" style="fill:none;fill-rule:nonzero;stroke:rgb(0,25,75);stroke-width:4.71px;"/>
            </g>
        </g>
        <g transform="matrix(4.16667,0,0,4.16667,0,0)">
            <g transform="matrix(1,0,0,1,148.189,98.4974)">
                <path d="M0,67.836C0.95,66.586 0.488,67.449 1.339,66.124C7.308,56.834 10.77,45.781 10.77,33.918C10.77,0.968 -15.941,-25.744 -48.892,-25.744C-81.842,-25.744 -108.554,0.968 -108.554,33.918C-108.554,66.868 -81.842,93.58 -48.892,93.58C-35.366,93.58 -22.891,89.079 -12.884,81.493" style="fill:none;fill-rule:nonzero;stroke:rgb(0,25,75);stroke-width:4.71px;"/>
            </g>
        </g>
        <g transform="matrix(4.16667,0,0,4.16667,0,0)">
            <g transform="matrix(0.665579,0.746328,0.746328,-0.665579,132.749,149.904)">
                <path d="M-8.169,-18.231L40.686,-18.231" style="fill:none;fill-rule:nonzero;stroke:rgb(0,25,75);stroke-width:5.63px;stroke-linecap:round;"/>
            </g>
        </g>
        <g transform="matrix(4.16667,0,0,4.16667,0,0)">
            <g transform="matrix(0.66546,0.746434,0.746434,-0.66546,141.74,136.69)">
                <path d="M-10.87,-24.253L54.114,-24.253" style="fill:none;fill-rule:nonzero;stroke:rgb(0,137,207);stroke-width:5.64px;stroke-linecap:round;"/>
            </g>
        </g>
        <g transform="matrix(4.16667,0,0,4.16667,0,0)">
            <g transform="matrix(1,0,0,1,164.397,182.546)">
                <path d="M0,16.003L0.334,0L-15.936,14.506L0,16.003Z" style="fill:rgb(0,137,207);fill-rule:nonzero;"/>
            </g>
        </g>
        <g transform="matrix(4.16667,0,0,4.16667,0,0)">
            <g transform="matrix(0.666096,0.745866,0.745866,-0.666096,147.333,137.943)">
                <path d="M-8.116,-18.13L40.498,-18.13" style="fill:none;fill-rule:nonzero;stroke:rgb(0,25,75);stroke-width:5.64px;stroke-linecap:round;"/>
            </g>
        </g>
        <g transform="matrix(4.16667,0,0,4.16667,0,0)">
            <g transform="matrix(1,0,0,1,105.178,201.265)">
                <path d="M0,15.638C0.845,15.376 1.577,15.018 2.195,14.564C2.814,14.11 3.305,13.571 3.67,12.947C4.035,12.323 4.268,11.65 4.37,10.926C4.502,9.986 4.432,9.224 4.16,8.639C3.888,8.054 3.5,7.584 2.995,7.23C2.49,6.876 1.916,6.606 1.272,6.421C0.628,6.236 0.008,6.075 -0.588,5.936C-0.976,5.844 -1.333,5.755 -1.66,5.67C-1.987,5.586 -2.273,5.482 -2.517,5.359C-2.762,5.235 -2.945,5.089 -3.067,4.92C-3.19,4.75 -3.234,4.542 -3.199,4.296C-3.16,4.019 -2.999,3.776 -2.716,3.568C-2.432,3.36 -2.014,3.256 -1.459,3.256C-1.013,3.256 -0.663,3.314 -0.409,3.43C-0.156,3.545 0.031,3.692 0.153,3.869C0.274,4.046 0.346,4.242 0.37,4.458C0.394,4.673 0.399,4.881 0.386,5.081L4.822,5.081C4.936,3.387 4.508,2.052 3.537,1.073C2.565,0.096 1.094,-0.393 -0.877,-0.393C-1.801,-0.393 -2.661,-0.27 -3.458,-0.024C-4.255,0.223 -4.951,0.569 -5.545,1.016C-6.139,1.463 -6.627,2.001 -7.008,2.633C-7.389,3.264 -7.635,3.973 -7.746,4.758C-7.886,5.759 -7.8,6.568 -7.486,7.183C-7.172,7.8 -6.741,8.296 -6.194,8.673C-5.646,9.051 -5.032,9.34 -4.352,9.54C-3.672,9.74 -3.027,9.917 -2.417,10.071C-1.763,10.241 -1.23,10.417 -0.817,10.602C-0.404,10.787 -0.222,11.057 -0.272,11.411C-0.322,11.765 -0.525,12.031 -0.881,12.208C-1.237,12.385 -1.692,12.473 -2.246,12.473C-2.662,12.473 -3.006,12.423 -3.276,12.323C-3.547,12.223 -3.756,12.089 -3.901,11.919C-4.047,11.75 -4.147,11.561 -4.203,11.353C-4.258,11.145 -4.278,10.926 -4.26,10.695L-8.765,10.695C-8.884,12.42 -8.446,13.74 -7.45,14.656C-6.455,15.573 -4.926,16.031 -2.862,16.031C-1.799,16.031 -0.845,15.9 0,15.638M11.821,3.765L12.233,0.831L8.168,0.831L7.755,3.765L6.069,3.765L5.559,7.391L7.246,7.391L6.677,11.434C6.467,12.928 6.664,14.017 7.269,14.702C7.873,15.388 8.969,15.73 10.555,15.73L12.842,15.73L13.322,12.312L11.913,12.312C11.466,12.312 11.155,12.2 10.979,11.977C10.802,11.754 10.748,11.396 10.818,10.903L11.311,7.391L14.014,7.391L14.524,3.765L11.821,3.765ZM23.532,3.603C22.87,3.603 22.234,3.742 21.626,4.019C21.017,4.296 20.493,4.681 20.054,5.174L20.252,3.765L16.21,3.765L14.528,15.73L18.594,15.73L19.305,10.672C19.435,9.748 19.776,9.016 20.329,8.477C20.882,7.938 21.76,7.669 22.961,7.669L23.532,3.603ZM32.338,11.457C31.996,11.811 31.588,12.112 31.114,12.358C30.641,12.604 30.111,12.727 29.526,12.727C28.926,12.727 28.421,12.566 28.012,12.242C27.603,11.919 27.33,11.48 27.192,10.926L35.624,10.926C35.63,10.879 35.647,10.787 35.674,10.648C35.701,10.51 35.725,10.371 35.744,10.233C35.764,10.094 35.782,9.967 35.798,9.851C35.814,9.736 35.823,9.671 35.825,9.655C35.949,8.777 35.917,7.961 35.731,7.207C35.544,6.452 35.227,5.801 34.781,5.255C34.334,4.708 33.763,4.277 33.068,3.961C32.373,3.645 31.579,3.487 30.686,3.487C29.793,3.487 28.931,3.649 28.1,3.973C27.269,4.296 26.526,4.739 25.869,5.301C25.213,5.863 24.665,6.525 24.227,7.287C23.789,8.05 23.508,8.87 23.385,9.748C23.257,10.656 23.304,11.496 23.527,12.265C23.75,13.036 24.115,13.698 24.623,14.252C25.13,14.806 25.762,15.242 26.518,15.557C27.274,15.873 28.115,16.031 29.039,16.031C29.701,16.031 30.32,15.957 30.895,15.811C31.47,15.665 31.997,15.469 32.479,15.222C32.96,14.976 33.397,14.691 33.789,14.368C34.181,14.044 34.525,13.706 34.821,13.351L32.338,11.457ZM31.31,7.022C31.687,7.238 31.936,7.63 32.057,8.2L27.645,8.2C27.91,7.738 28.25,7.372 28.665,7.103C29.08,6.833 29.573,6.698 30.143,6.698C30.543,6.698 30.932,6.806 31.31,7.022M44.549,7.495C44.831,7.626 45.064,7.803 45.248,8.027C45.432,8.25 45.569,8.512 45.657,8.812C45.746,9.112 45.766,9.44 45.716,9.794C45.666,10.148 45.554,10.475 45.381,10.775C45.208,11.076 44.998,11.338 44.751,11.561C44.504,11.784 44.221,11.962 43.903,12.092C43.584,12.223 43.255,12.289 42.917,12.289C42.578,12.289 42.267,12.223 41.986,12.092C41.704,11.962 41.466,11.784 41.275,11.561C41.083,11.338 40.942,11.076 40.854,10.775C40.765,10.475 40.746,10.148 40.795,9.794C40.845,9.44 40.957,9.112 41.13,8.812C41.303,8.512 41.517,8.25 41.771,8.027C42.026,7.803 42.313,7.626 42.632,7.495C42.95,7.365 43.279,7.299 43.618,7.299C43.956,7.299 44.267,7.365 44.549,7.495M44.835,15.73L48.901,15.73L50.583,3.765L46.517,3.765L46.407,4.55C45.957,4.242 45.495,4.019 45.022,3.88C44.549,3.742 44.066,3.672 43.573,3.672C42.757,3.672 41.969,3.826 41.21,4.134C40.45,4.442 39.767,4.87 39.158,5.416C38.55,5.963 38.036,6.606 37.617,7.345C37.197,8.084 36.928,8.878 36.809,9.724C36.688,10.587 36.732,11.392 36.943,12.138C37.154,12.885 37.487,13.528 37.943,14.067C38.398,14.606 38.962,15.03 39.635,15.338C40.308,15.646 41.052,15.8 41.869,15.8C42.361,15.8 42.864,15.73 43.376,15.592C43.888,15.453 44.413,15.23 44.949,14.922L44.835,15.73ZM55.303,8.8L56.553,-0.093L52.464,-0.093L50.24,15.73L54.329,15.73L54.975,11.134L57.448,15.73L62.46,15.73L58.889,9.748L64.073,3.765L59.268,3.765L55.303,8.8Z" style="fill:rgb(0,137,207);fill-rule:nonzero;"/>
            </g>
        </g>
        <g transform="matrix(4.16667,0,0,4.16667,0,0)">
            <g transform="matrix(1,0,0,1,59.0236,200.826)">
                <path d="M0,17.348L3.719,15.985L1.732,13.721C2.379,12.998 2.884,12.174 3.246,11.25C3.607,10.326 3.788,9.325 3.788,8.247C3.788,7.076 3.565,5.987 3.118,4.978C2.672,3.969 2.067,3.095 1.305,2.356C0.543,1.617 -0.35,1.039 -1.374,0.624C-2.399,0.208 -3.496,0 -4.666,0C-5.821,0 -6.907,0.208 -7.923,0.624C-8.94,1.039 -9.833,1.617 -10.603,2.356C-11.373,3.095 -11.981,3.969 -12.428,4.978C-12.875,5.987 -13.098,7.076 -13.098,8.247C-13.098,9.433 -12.875,10.53 -12.428,11.538C-11.981,12.547 -11.373,13.417 -10.603,14.149C-9.833,14.88 -8.94,15.454 -7.923,15.87C-6.907,16.285 -5.821,16.493 -4.666,16.493C-3.481,16.493 -2.364,16.277 -1.317,15.847L0,17.348ZM-4.666,12.22C-5.19,12.22 -5.679,12.116 -6.133,11.908C-6.587,11.7 -6.988,11.415 -7.334,11.053C-7.681,10.692 -7.954,10.272 -8.154,9.794C-8.355,9.317 -8.455,8.801 -8.455,8.247C-8.455,7.708 -8.355,7.2 -8.154,6.722C-7.954,6.245 -7.681,5.825 -7.334,5.463C-6.988,5.101 -6.587,4.813 -6.133,4.597C-5.679,4.381 -5.19,4.273 -4.666,4.273C-4.143,4.273 -3.65,4.381 -3.188,4.597C-2.726,4.813 -2.322,5.101 -1.975,5.463C-1.629,5.825 -1.355,6.245 -1.155,6.722C-0.955,7.2 -0.855,7.708 -0.855,8.247C-0.855,8.601 -0.897,8.944 -0.982,9.275C-1.067,9.606 -1.186,9.918 -1.34,10.21L-2.379,9.032L-6.098,10.395L-4.505,12.22L-4.666,12.22ZM17.025,16.17L17.025,4.204L12.959,4.204L12.959,10.464C12.959,11.157 12.774,11.696 12.405,12.081C12.035,12.466 11.573,12.659 11.019,12.659C10.418,12.659 9.964,12.462 9.656,12.07C9.347,11.677 9.194,11.188 9.194,10.603L9.194,4.204L5.128,4.204L5.128,11.573C5.128,12.297 5.236,12.951 5.451,13.536C5.667,14.122 5.975,14.63 6.375,15.061C6.776,15.492 7.261,15.823 7.831,16.054C8.4,16.285 9.032,16.401 9.725,16.401C10.402,16.401 11.03,16.289 11.608,16.066C12.185,15.843 12.659,15.508 13.028,15.061L13.028,16.17L17.025,16.17ZM22.892,0.346L18.826,0.346L18.826,3.534L22.892,3.534L22.892,0.346ZM22.892,4.204L18.826,4.204L18.826,16.17L22.892,16.17L22.892,4.204ZM35.296,7.23L35.296,4.204L24.901,4.204L24.901,7.715L29.845,7.715L25.086,13.213L25.086,16.17L35.181,16.17L35.181,12.705L30.538,12.705L35.296,7.23Z" style="fill:rgb(0,25,75);fill-rule:nonzero;"/>
            </g>
        </g>
    </g>
</svg>
