<svg xmlns="http://www.w3.org/2000/svg" xml:space="preserve" style="fill-rule:evenodd;clip-rule:evenodd" viewBox="0 0 594 647"><path d="M0 43.424c.947-1.415.922-1.277 1.695-2.806a41.803 41.803 0 0 0 4.489-18.906c0-23.182-18.792-41.974-41.974-41.974-23.181 0-41.974 18.792-41.974 41.974 0 23.181 18.793 41.974 41.974 41.974a41.783 41.783 0 0 0 24.94-8.21" style="fill:none;fill-rule:nonzero;stroke:#00194b;stroke-width:4.71px" transform="translate(438.151 198.56) scale(4.16667)"/><path d="M0 55.376c1.138-1.563.841-1.11 1.797-2.801 4.156-7.35 6.528-15.841 6.528-24.887 0-27.965-22.67-50.635-50.635-50.635-27.965 0-50.635 22.67-50.635 50.635 0 27.965 22.67 50.635 50.635 50.635 9.46 0 18.313-2.594 25.889-7.109a50.854 50.854 0 0 0 4.594-3.091" style="fill:none;fill-rule:nonzero;stroke:#00194b;stroke-width:4.71px" transform="translate(465.313 173.66) scale(4.16667)"/><path d="M0 67.836c.95-1.25.488-.387 1.339-1.712 5.969-9.29 9.431-20.343 9.431-32.206 0-32.95-26.711-59.662-59.662-59.662-32.95 0-59.662 26.712-59.662 59.662S-81.842 93.58-48.892 93.58c13.526 0 26.001-4.501 36.008-12.087" style="fill:none;fill-rule:nonzero;stroke:#00194b;stroke-width:4.71px" transform="translate(492.743 147.7) scale(4.16667)"/><path d="M-8.169-18.231h48.855" style="fill:none;fill-rule:nonzero;stroke:#00194b;stroke-width:5.63px;stroke-linecap:round" transform="matrix(2.77325 3.1097 3.1097 -2.77325 428.41 361.893)"/><path d="M-10.87-24.253h64.984" style="fill:none;fill-rule:nonzero;stroke:#0089cf;stroke-width:5.64px;stroke-linecap:round" transform="scale(4.16667 -4.16667) rotate(-48.282 -26.25 -161.556)"/><path d="M0 16.003.334 0l-16.27 14.506L0 16.003Z" style="fill:#0089cf;fill-rule:nonzero" transform="translate(560.276 497.902) scale(4.16667)"/><path d="M-8.116-18.13h48.614" style="fill:none;fill-rule:nonzero;stroke:#00194b;stroke-width:5.64px;stroke-linecap:round" transform="matrix(2.7754 3.10778 3.10778 -2.7754 489.176 312.056)"/><path d="M0 15.638c.845-.262 1.577-.62 2.195-1.074a5.339 5.339 0 0 0 1.475-1.617 5.474 5.474 0 0 0 .7-2.021c.132-.94.062-1.702-.21-2.287A3.47 3.47 0 0 0 2.995 7.23a5.733 5.733 0 0 0-1.723-.809 37.999 37.999 0 0 0-1.86-.485A51.41 51.41 0 0 1-1.66 5.67a4.264 4.264 0 0 1-.857-.311 1.489 1.489 0 0 1-.55-.439c-.123-.17-.167-.378-.132-.624.039-.277.2-.52.483-.728.284-.208.702-.312 1.257-.312.446 0 .796.058 1.05.174.253.115.44.262.562.439.121.177.193.373.217.589.024.215.029.423.016.623h4.436c.114-1.694-.314-3.029-1.285-4.008C2.565.096 1.094-.393-.877-.393c-.924 0-1.784.123-2.581.369-.797.247-1.493.593-2.087 1.04a5.672 5.672 0 0 0-1.463 1.617 5.575 5.575 0 0 0-.738 2.125c-.14 1.001-.054 1.81.26 2.425a3.952 3.952 0 0 0 1.292 1.49 6.398 6.398 0 0 0 1.842.867c.68.2 1.325.377 1.935.531.654.17 1.187.346 1.6.531.413.185.595.455.545.809-.05.354-.253.62-.609.797-.356.177-.811.265-1.365.265-.416 0-.76-.05-1.03-.15-.271-.1-.48-.234-.625-.404a1.421 1.421 0 0 1-.302-.566 1.96 1.96 0 0 1-.057-.658h-4.505c-.119 1.725.319 3.045 1.315 3.961.995.917 2.524 1.375 4.588 1.375 1.063 0 2.017-.131 2.862-.393M11.821 3.765l.412-2.934H8.168l-.413 2.934H6.069l-.51 3.626h1.687l-.569 4.043c-.21 1.494-.013 2.583.592 3.268.604.686 1.7 1.028 3.286 1.028h2.287l.48-3.418h-1.409c-.447 0-.758-.112-.934-.335-.177-.223-.231-.581-.161-1.074l.493-3.512h2.703l.51-3.626h-2.703Zm11.711-.162a4.55 4.55 0 0 0-1.906.416 4.668 4.668 0 0 0-1.572 1.155l.198-1.409H16.21L14.528 15.73h4.066l.711-5.058c.13-.924.471-1.656 1.024-2.195.553-.539 1.431-.808 2.632-.808l.571-4.066Zm8.806 7.854a4.69 4.69 0 0 1-1.224.901 3.391 3.391 0 0 1-1.588.369c-.6 0-1.105-.161-1.514-.485-.409-.323-.682-.762-.82-1.316h8.432c.006-.047.023-.139.05-.278.027-.138.051-.277.07-.415a66.788 66.788 0 0 0 .081-.578c.124-.878.092-1.694-.094-2.448-.187-.755-.504-1.406-.95-1.952a4.663 4.663 0 0 0-1.713-1.294c-.695-.316-1.489-.474-2.382-.474s-1.755.162-2.586.486a7.688 7.688 0 0 0-2.231 1.328 7.547 7.547 0 0 0-1.642 1.986 6.79 6.79 0 0 0-.842 2.461c-.128.908-.081 1.748.142 2.517a4.909 4.909 0 0 0 1.096 1.987 5.28 5.28 0 0 0 1.895 1.305c.756.316 1.597.474 2.521.474a7.525 7.525 0 0 0 3.44-.809 7.226 7.226 0 0 0 1.31-.854 7.834 7.834 0 0 0 1.032-1.017l-2.483-1.894ZM31.31 7.022c.377.216.626.608.747 1.178h-4.412a3.144 3.144 0 0 1 1.02-1.097c.415-.27.908-.405 1.478-.405.4 0 .789.108 1.167.324m13.239.473c.282.131.515.308.699.532.184.223.321.485.409.785.089.3.109.628.059.982s-.162.681-.335.981a3.195 3.195 0 0 1-.63.786c-.247.223-.53.401-.848.531a2.574 2.574 0 0 1-.986.197c-.339 0-.65-.066-.931-.197a2.06 2.06 0 0 1-.711-.531 2.086 2.086 0 0 1-.421-.786 2.307 2.307 0 0 1-.059-.981c.05-.354.162-.682.335-.982a3.05 3.05 0 0 1 1.502-1.317c.318-.13.647-.196.986-.196a2.2 2.2 0 0 1 .931.196m.286 8.235h4.066l1.682-11.965h-4.066l-.11.785a4.893 4.893 0 0 0-1.385-.67 5.149 5.149 0 0 0-1.449-.208c-.816 0-1.604.154-2.363.462a6.976 6.976 0 0 0-2.052 1.282 7.645 7.645 0 0 0-1.541 1.929 6.647 6.647 0 0 0-.808 2.379c-.121.863-.077 1.668.134 2.414a5.08 5.08 0 0 0 1 1.929 4.788 4.788 0 0 0 1.692 1.271c.673.308 1.417.462 2.234.462.492 0 .995-.07 1.507-.208a6.688 6.688 0 0 0 1.573-.67l-.114.808ZM55.303 8.8l1.25-8.893h-4.089L50.24 15.73h4.089l.646-4.596 2.473 4.596h5.012l-3.571-5.982 5.184-5.983h-4.805L55.303 8.8Z" style="fill:#0089cf;fill-rule:nonzero" transform="translate(313.53 575.898) scale(4.16667)"/><path d="m0 17.348 3.719-1.363-1.987-2.264a8.109 8.109 0 0 0 1.514-2.471 8.18 8.18 0 0 0 .542-3.003c0-1.171-.223-2.26-.67-3.269a8.269 8.269 0 0 0-1.813-2.622A8.264 8.264 0 0 0-1.374.624 8.668 8.668 0 0 0-4.666 0a8.513 8.513 0 0 0-5.937 2.356 8.19 8.19 0 0 0-1.825 2.622 7.977 7.977 0 0 0-.67 3.269c0 1.186.223 2.283.67 3.291a8.067 8.067 0 0 0 1.825 2.611 8.559 8.559 0 0 0 5.937 2.344 8.732 8.732 0 0 0 3.349-.646L0 17.348Zm-4.666-5.128a3.48 3.48 0 0 1-1.467-.312 3.887 3.887 0 0 1-1.201-.855 4.058 4.058 0 0 1-.82-1.259 3.944 3.944 0 0 1-.301-1.547c0-.539.1-1.047.301-1.525a4.082 4.082 0 0 1 2.021-2.125 3.37 3.37 0 0 1 1.467-.324c.523 0 1.016.108 1.478.324a4.023 4.023 0 0 1 2.033 2.125c.2.478.3.986.3 1.525 0 .354-.042.697-.127 1.028a4.277 4.277 0 0 1-.358.935l-1.039-1.178-3.719 1.363 1.593 1.825h-.161Zm21.691 3.95V4.204h-4.066v6.26c0 .693-.185 1.232-.554 1.617-.37.385-.832.578-1.386.578-.601 0-1.055-.197-1.363-.589-.309-.393-.462-.882-.462-1.467V4.204H5.128v7.369c0 .724.108 1.378.323 1.963.216.586.524 1.094.924 1.525.401.431.886.762 1.456.993a4.994 4.994 0 0 0 1.894.347c.677 0 1.305-.112 1.883-.335a3.385 3.385 0 0 0 1.42-1.005v1.109h3.997ZM22.892.346h-4.066v3.188h4.066V.346Zm0 3.858h-4.066V16.17h4.066V4.204ZM35.296 7.23V4.204H24.901v3.511h4.944l-4.759 5.498v2.957h10.095v-3.465h-4.643l4.758-5.475Z" style="fill:#00194b;fill-rule:nonzero" transform="translate(121.22 574.069) scale(4.16667)"/></svg>