<svg xmlns="http://www.w3.org/2000/svg" width="256" height="256" viewBox="0 0 100 100"><rect width="100" height="100" rx="20" fill="#ced6c9"></rect><path fill="#4a4a4a" d="M-3.77 52.39L-3.77 52.39Q-3.77 47.84-2.72 43.67Q-1.67 39.50 0.26 35.88Q2.20 32.26 4.95 29.31Q7.70 26.37 11.10 24.25Q14.50 22.14 18.48 20.99Q22.45 19.84 26.84 19.84L26.84 19.84Q30.32 19.84 32.95 20.30Q35.58 20.75 37.54 21.44Q39.50 22.14 40.82 22.97Q42.15 23.80 43.02 24.55L43.02 24.55Q42.98 24.55 42.98 24.83L42.98 24.83Q42.98 25.42 43.08 27.00Q43.18 28.58 43.32 30.52Q43.45 32.46 43.55 34.46Q43.65 36.45 43.65 37.92L43.65 37.92Q43.65 38.15 43.49 38.45Q43.34 38.75 42.70 38.75L42.70 38.75Q42.35 38.75 41.83 38.63L41.83 38.63Q41.00 38.39 39.74 37.54Q38.47 36.69 36.79 35.76Q35.11 34.83 33.03 34.10Q30.96 33.37 28.50 33.37L28.50 33.37Q25.26 33.37 22.61 34.73Q19.96 36.10 18.10 38.53Q16.24 40.96 15.22 44.30Q14.19 47.65 14.19 51.56L14.19 51.56Q14.19 55.00 14.82 58.01Q15.45 61.01 16.74 63.21Q18.02 65.41 19.92 66.67Q21.82 67.94 24.39 67.94L24.39 67.94Q26.88 67.94 30.05 66.87L30.05 66.87L30.96 61.29L23.40 61.29Q24.27 56.51 24.91 53.78Q25.54 51.05 26.09 49.66Q26.65 48.28 27.24 47.92Q27.83 47.57 28.62 47.57L28.62 47.57L49.43 47.57Q50.34 47.57 50.75 47.69Q51.17 47.80 51.17 48.52L51.17 48.52Q51.17 48.87 51.09 49.37Q51.01 49.86 50.89 50.57L50.89 50.57L48.91 57.22Q48.56 58.48 48.32 59.18Q48.08 59.87 47.73 60.20Q47.37 60.54 46.76 60.60Q46.14 60.66 45.00 60.66L45.00 60.66Q44.36 60.66 44.25 61.17Q44.13 61.69 44.05 62.24L44.05 62.24Q43.81 63.98 43.57 65.70Q43.34 67.42 43.12 68.91Q42.90 70.39 42.66 71.52Q42.43 72.64 42.19 73.16L42.19 73.16Q39.50 74.86 37.30 76.14Q35.11 77.43 32.93 78.28Q30.76 79.13 28.35 79.56Q25.93 80.00 22.81 80.00L22.81 80.00Q17.23 80.00 12.37 77.98Q7.50 75.97 3.92 72.31Q0.34 68.65-1.71 63.59Q-3.77 58.52-3.77 52.39ZM103.77 36.85L103.77 36.85Q103.73 40.25 103.12 42.94Q102.50 45.63 101.38 47.79Q100.25 49.94 98.65 51.66Q97.05 53.38 94.99 54.88L94.99 54.88Q91.03 57.73 86.33 59.18Q81.62 60.62 76.87 60.62L76.87 60.62Q76.08 60.62 75.31 60.58Q74.54 60.54 73.75 60.46L73.75 60.46L72.45 74.90L71.77 76.12Q71.69 76.28 70.43 76.76Q69.16 77.23 67.26 77.86L67.26 77.86L64.77 78.69Q63.59 79.13 62.68 79.49Q61.77 79.84 60.98 80.12Q60.18 80.39 59.43 80.53Q58.68 80.67 57.85 80.67L57.85 80.67Q57.30 80.67 56.98 80.39Q56.66 80.12 56.66 79.33L56.66 79.33L57.10 72.56Q57.22 70.55 57.40 68.51Q57.57 66.47 57.73 63.86L57.73 63.86L58.48 54.41Q58.72 51.52 58.92 48.64Q59.12 45.75 59.31 43.14Q59.51 40.53 59.67 38.25Q59.83 35.98 59.95 34.28L59.95 34.28Q57.81 34.75 56.53 34.97Q55.24 35.19 54.57 35.19L54.57 35.19Q53.74 35.19 53.74 34.48L53.74 34.48Q54.29 32.54 54.77 30.68L54.77 30.68Q55.20 29.10 55.66 27.42Q56.11 25.74 56.43 24.59L56.43 24.59Q56.62 23.88 56.88 23.50Q57.14 23.13 57.55 22.91Q57.97 22.69 58.62 22.51Q59.27 22.33 60.22 22.02L60.22 22.02Q60.98 21.78 62.34 21.48Q63.70 21.19 65.46 20.89Q67.22 20.59 69.28 20.32Q71.34 20.04 73.45 19.82Q75.57 19.61 77.63 19.47Q79.68 19.33 81.50 19.33L81.50 19.33Q86.01 19.33 90.05 20.16Q94.08 20.99 97.12 22.99Q100.17 24.98 101.97 28.37Q103.77 31.75 103.77 36.85ZM74.86 48.71L74.86 48.71Q74.86 49.15 75.02 49.49Q75.17 49.82 75.89 49.82L75.89 49.82Q76.99 49.82 78.52 49.33Q80.04 48.83 81.56 47.84Q83.08 46.86 84.39 45.39Q85.69 43.93 86.37 41.95L86.37 41.95Q86.64 41.16 86.82 39.93Q87.00 38.71 87.00 37.05L87.00 37.05Q87.00 34.28 85.08 32.97Q83.16 31.67 80.08 31.67L80.08 31.67Q79.56 31.67 78.91 31.73Q78.26 31.79 77.69 31.95Q77.11 32.10 76.72 32.32Q76.32 32.54 76.28 32.89L76.28 32.89L76.20 33.76Q76.16 34.28 76.04 35.45Q75.93 36.61 75.79 38.11Q75.65 39.62 75.51 41.28Q75.37 42.94 75.23 44.44Q75.09 45.95 75.00 47.09Q74.90 48.24 74.86 48.71Z"></path></svg>