<svg><defs><symbol id="icon-flickr" viewBox="0 0 24 24"><title>Flickr Logo</title><path d="M0 12a5.565 5.565 0 0 0 5.565 5.564c3.075 0 5.569-2.49 5.569-5.564S8.641 6.436 5.565 6.436A5.566 5.566 0 0 0 0 12zm12.866 0a5.565 5.565 0 0 0 5.567 5.564C21.496 17.564 24 15.074 24 12s-2.492-5.564-5.564-5.564A5.567 5.567 0 0 0 12.866 12z"/></symbol><symbol id="icon-github" viewBox="0 0 24 24"><title>GitHub Logo</title><path d="M12 .297c-6.63 0-12 5.373-12 12 0 5.303 3.438 9.8 8.205 11.385.6.113.82-.258.82-.577 0-.285-.01-1.04-.015-2.04-3.338.724-4.042-1.61-4.042-1.61C4.422 18.07 3.633 17.7 3.633 17.7c-1.087-.744.084-.729.084-.729 1.205.084 1.838 1.236 1.838 1.236 1.07 1.835 2.809 1.305 3.495.998.108-.776.417-1.305.76-1.605-2.665-.3-5.466-1.332-5.466-5.93 0-1.31.465-2.38 1.235-3.22-.135-.303-.54-1.523.105-3.176 0 0 1.005-.322 3.3 1.23.96-.267 1.98-.399 3-.405 1.02.006 2.04.138 3 .405 2.28-1.552 3.285-1.23 3.285-1.23.645 1.653.24 2.873.12 3.176.765.84 1.23 1.91 1.23 3.22 0 4.61-2.805 5.625-5.475 5.92.42.36.81 1.096.81 2.22 0 1.606-.015 2.896-.015 3.286 0 .315.21.69.825.57C20.565 22.092 24 17.592 24 12.297c0-6.627-5.373-12-12-12"/></symbol><symbol id="icon-linkedin" viewBox="0 0 24 24"><title>LinkedIn Logo</title><path d="M20.447 20.452h-3.554v-5.569c0-1.328-.027-3.037-1.852-3.037-1.853 0-2.136 1.445-2.136 2.939v5.667H9.351V9h3.414v1.561h.046c.477-.9 1.637-1.85 3.37-1.85 3.601 0 4.267 2.37 4.267 5.455v6.286zM5.337 7.433a2.062 2.062 0 0 1-2.063-2.065 2.064 2.064 0 1 1 2.063 2.065zm1.782 13.019H3.555V9h3.564v11.452zM22.225 0H1.771C.792 0 0 .774 0 1.729v20.542C0 23.227.792 24 1.771 24h20.451C23.2 24 24 23.227 24 22.271V1.729C24 .774 23.2 0 22.222 0h.003z"/></symbol><symbol id="icon-twitter" viewBox="0 0 24 24"><title>Twitter Logo</title><path d="M23.954 4.569a10 10 0 0 1-2.825.775 4.958 4.958 0 0 0 2.163-2.723c-.951.555-2.005.959-3.127 1.184a4.92 4.92 0 0 0-8.384 4.482C7.691 8.094 4.066 6.13 1.64 3.161a4.822 4.822 0 0 0-.666 2.475c0 1.71.87 3.213 2.188 4.096a4.904 4.904 0 0 1-2.228-.616v.061a4.923 4.923 0 0 0 3.946 4.827 4.996 4.996 0 0 1-2.212.085 4.937 4.937 0 0 0 4.604 3.417 9.868 9.868 0 0 1-6.102 2.105c-.39 0-.779-.023-1.17-.067a13.995 13.995 0 0 0 7.557 2.209c9.054 0 13.999-7.496 13.999-13.986 0-.209 0-.42-.015-.63a9.936 9.936 0 0 0 2.46-2.548l-.047-.02z"/></symbol><symbol id="icon-new-win" viewBox="0 0 300 300"><title>New Window Link</title><g fill="none" fill-rule="evenodd"><path d="M0 0h24v24H0z"/><path d="M20.293 3H15.5a.5.5 0 1 1 0-1h6a.5.5 0 0 1 .5.5v6a.5.5 0 1 1-1 0V3.707l-9.646 9.647a.5.5 0 0 1-.708-.708L20.293 3zM19 11.628a.5.5 0 1 1 1 0v3.744c0 1.701-.153 2.494-.593 3.317a4.134 4.134 0 0 1-1.718 1.718c-.823.44-1.616.593-3.317.593H8.628c-1.701 0-2.494-.153-3.317-.593a4.134 4.134 0 0 1-1.718-1.718C3.153 17.866 3 17.073 3 15.372V9.628c0-1.701.153-2.494.593-3.317a4.134 4.134 0 0 1 1.718-1.718C6.134 4.153 6.927 4 8.628 4h3.744a.5.5 0 1 1 0 1H8.628c-1.55 0-2.187.123-2.846.475a3.135 3.135 0 0 0-1.307 1.307C4.123 7.441 4 8.078 4 9.628v5.744c0 1.55.123 2.187.475 2.846a3.135 3.135 0 0 0 1.307 1.307c.659.352 1.296.475 2.846.475h5.744c1.55 0 2.187-.123 2.846-.475a3.135 3.135 0 0 0 1.307-1.307c.352-.659.475-1.296.475-2.846v-3.744z" fill="#000" fill-rule="nonzero"/></g></symbol><symbol id="icon-about-me" viewBox="0 0 24 24"><title>About.me Logo</title><path d="M19.536 9.15c-1.373 0-2.133 1.014-2.294 2.116h4.608c-.125-1.05-.867-2.115-2.314-2.115m-2.26 3.617c.235 1.156 1.193 1.97 2.532 1.97.725 0 1.77-.27 2.384-.914l1.175 1.35c-1.064 1.11-2.653 1.426-3.74 1.426-2.64 0-4.697-1.906-4.697-4.606 0-2.535 1.894-4.62 4.57-4.62 2.585 0 4.5 1.98 4.5 4.604v.766h-6.723v.023zm-6.487 3.83v-5.69c0-.976-.435-1.536-1.338-1.536-.814 0-1.355.585-1.717 1.007v6.24h-2.35v-5.7c0-.976-.415-1.532-1.318-1.532-.813 0-1.375.586-1.717 1.006v6.24H0V7.508h2.35v1.15c.4-.464 1.302-1.26 2.71-1.26 1.247 0 2.096.525 2.477 1.59.524-.762 1.5-1.59 2.91-1.59 1.7 0 2.69 1.01 2.69 2.962v6.24h-2.353l.005-.006z"/></symbol><symbol id="icon-magnifier" viewBox="0 0 485.213 485.213"><title>Search</title><path d="M363.909 181.955C363.909 81.473 282.44 0 181.956 0 81.474 0 .001 81.473.001 181.955s81.473 181.951 181.955 181.951c100.484 0 181.953-81.469 181.953-181.951zM181.956 318.416c-75.252 0-136.465-61.208-136.465-136.46 0-75.252 61.213-136.465 136.465-136.465 75.25 0 136.468 61.213 136.468 136.465 0 75.252-61.218 136.46-136.468 136.46zm289.926 89.151L360.567 296.243a214.267 214.267 0 0 1-64.331 64.321L407.56 471.888c17.772 17.768 46.587 17.768 64.321 0 17.773-17.739 17.773-46.554.001-64.321z"/></symbol></defs></svg>