<svg id="social-icons" width="0" height="0"><defs><symbol id="icon-flickr" viewBox="0 0 24 24"><title>Flickr Logo</title><path d="M0 12a5.565 5.565 0 0 0 5.565 5.564c3.075 0 5.569-2.49 5.569-5.564S8.641 6.436 5.565 6.436A5.566 5.566 0 0 0 0 12zm12.866 0a5.565 5.565 0 0 0 5.567 5.564C21.496 17.564 24 15.074 24 12s-2.492-5.564-5.564-5.564A5.567 5.567 0 0 0 12.866 12z"/></symbol><symbol id="icon-github" viewBox="0 0 24 24"><title>GitHub Logo</title><path d="M12 .297c-6.63 0-12 5.373-12 12 0 5.303 3.438 9.8 8.205 11.385.6.113.82-.258.82-.577 0-.285-.01-1.04-.015-2.04-3.338.724-4.042-1.61-4.042-1.61C4.422 18.07 3.633 17.7 3.633 17.7c-1.087-.744.084-.729.084-.729 1.205.084 1.838 1.236 1.838 1.236 1.07 1.835 2.809 1.305 3.495.998.108-.776.417-1.305.76-1.605-2.665-.3-5.466-1.332-5.466-5.93 0-1.31.465-2.38 1.235-3.22-.135-.303-.54-1.523.105-3.176 0 0 1.005-.322 3.3 1.23.96-.267 1.98-.399 3-.405 1.02.006 2.04.138 3 .405 2.28-1.552 3.285-1.23 3.285-1.23.645 1.653.24 2.873.12 3.176.765.84 1.23 1.91 1.23 3.22 0 4.61-2.805 5.625-5.475 5.92.42.36.81 1.096.81 2.22 0 1.606-.015 2.896-.015 3.286 0 .315.21.69.825.57C20.565 22.092 24 17.592 24 12.297c0-6.627-5.373-12-12-12"/></symbol><symbol id="icon-linkedin" viewBox="0 0 24 24"><title>LinkedIn Logo</title><path d="M20.447 20.452h-3.554v-5.569c0-1.328-.027-3.037-1.852-3.037-1.853 0-2.136 1.445-2.136 2.939v5.667H9.351V9h3.414v1.561h.046c.477-.9 1.637-1.85 3.37-1.85 3.601 0 4.267 2.37 4.267 5.455v6.286zM5.337 7.433a2.062 2.062 0 0 1-2.063-2.065 2.064 2.064 0 1 1 2.063 2.065zm1.782 13.019H3.555V9h3.564v11.452zM22.225 0H1.771C.792 0 0 .774 0 1.729v20.542C0 23.227.792 24 1.771 24h20.451C23.2 24 24 23.227 24 22.271V1.729C24 .774 23.2 0 22.222 0h.003z"/></symbol><symbol id="icon-twitter" viewBox="0 0 24 24"><title>Twitter Logo</title><path d="M23.954 4.569a10 10 0 0 1-2.825.775 4.958 4.958 0 0 0 2.163-2.723c-.951.555-2.005.959-3.127 1.184a4.92 4.92 0 0 0-8.384 4.482C7.691 8.094 4.066 6.13 1.64 3.161a4.822 4.822 0 0 0-.666 2.475c0 1.71.87 3.213 2.188 4.096a4.904 4.904 0 0 1-2.228-.616v.061a4.923 4.923 0 0 0 3.946 4.827 4.996 4.996 0 0 1-2.212.085 4.937 4.937 0 0 0 4.604 3.417 9.868 9.868 0 0 1-6.102 2.105c-.39 0-.779-.023-1.17-.067a13.995 13.995 0 0 0 7.557 2.209c9.054 0 13.999-7.496 13.999-13.986 0-.209 0-.42-.015-.63a9.936 9.936 0 0 0 2.46-2.548l-.047-.02z"/></symbol><symbol id="icon-new-win" viewBox="0 0 300 300"><title>New Window Link</title><g fill="none" fill-rule="evenodd"><path d="M0 0h24v24H0z"/><path fill="#000" fill-rule="nonzero" d="M20.293 3H15.5a.5.5 0 1 1 0-1h6a.5.5 0 0 1 .5.5v6a.5.5 0 1 1-1 0V3.707l-9.646 9.647a.5.5 0 0 1-.708-.708L20.293 3zM19 11.628a.5.5 0 1 1 1 0v3.744c0 1.701-.153 2.494-.593 3.317a4.134 4.134 0 0 1-1.718 1.718c-.823.44-1.616.593-3.317.593H8.628c-1.701 0-2.494-.153-3.317-.593a4.134 4.134 0 0 1-1.718-1.718C3.153 17.866 3 17.073 3 15.372V9.628c0-1.701.153-2.494.593-3.317a4.134 4.134 0 0 1 1.718-1.718C6.134 4.153 6.927 4 8.628 4h3.744a.5.5 0 1 1 0 1H8.628c-1.55 0-2.187.123-2.846.475a3.135 3.135 0 0 0-1.307 1.307C4.123 7.441 4 8.078 4 9.628v5.744c0 1.55.123 2.187.475 2.846a3.135 3.135 0 0 0 1.307 1.307c.659.352 1.296.475 2.846.475h5.744c1.55 0 2.187-.123 2.846-.475a3.135 3.135 0 0 0 1.307-1.307c.352-.659.475-1.296.475-2.846v-3.744z"/></g></symbol><symbol id="icon-about-me" viewBox="0 0 24 24"><title>About.me Logo</title><path d="M19.536 9.15c-1.373 0-2.133 1.014-2.294 2.116h4.608c-.125-1.05-.867-2.115-2.314-2.115m-2.26 3.617c.235 1.156 1.193 1.97 2.532 1.97.725 0 1.77-.27 2.384-.914l1.175 1.35c-1.064 1.11-2.653 1.426-3.74 1.426-2.64 0-4.697-1.906-4.697-4.606 0-2.535 1.894-4.62 4.57-4.62 2.585 0 4.5 1.98 4.5 4.604v.766h-6.723v.023zm-6.487 3.83v-5.69c0-.976-.435-1.536-1.338-1.536-.814 0-1.355.585-1.717 1.007v6.24h-2.35v-5.7c0-.976-.415-1.532-1.318-1.532-.813 0-1.375.586-1.717 1.006v6.24H0V7.508h2.35v1.15c.4-.464 1.302-1.26 2.71-1.26 1.247 0 2.096.525 2.477 1.59.524-.762 1.5-1.59 2.91-1.59 1.7 0 2.69 1.01 2.69 2.962v6.24h-2.353l.005-.006z"/></symbol><symbol id="icon-magnifier" viewBox="0 0 485.213 485.213"><title>Search</title><path d="M363.909 181.955C363.909 81.473 282.44 0 181.956 0 81.474 0 .001 81.473.001 181.955s81.473 181.951 181.955 181.951c100.484 0 181.953-81.469 181.953-181.951zM181.956 318.416c-75.252 0-136.465-61.208-136.465-136.46 0-75.252 61.213-136.465 136.465-136.465 75.25 0 136.468 61.213 136.468 136.465 0 75.252-61.218 136.46-136.468 136.46zm289.926 89.151L360.567 296.243a214.267 214.267 0 0 1-64.331 64.321L407.56 471.888c17.772 17.768 46.587 17.768 64.321 0 17.773-17.739 17.773-46.554.001-64.321z"/></symbol><symbol id="menu-hamburger" viewBox="0 0 32 32"><title>Menu Expander Icon</title><path d="M4 10h24a2 2 0 0 0 0-4H4a2 2 0 0 0 0 4zm24 4H4a2 2 0 0 0 0 4h24a2 2 0 0 0 0-4zm0 8H4a2 2 0 0 0 0 4h24a2 2 0 0 0 0-4z"/></symbol><symbol id="icon-poocherino" viewBox="0 0 751 683"><title>Poocherino Logo</title><path fill="#2c2c2b" fill-rule="evenodd" d="M169.397 249.108c30.316 67.253 21.056 137-20.68 155.827C106.98 423.76 48.57 384.52 18.257 317.28-12.06 250.041-2.8 180.288 38.937 161.464c41.737-18.819 100.144 20.423 130.46 87.644zm412.563 0c-30.318 67.253-21.058 137 20.682 155.827 41.738 18.826 100.142-20.414 130.462-87.654 30.312-67.24 21.052-136.993-20.684-155.817-41.735-18.819-100.144 20.423-130.46 87.644zM346.8 114.317c15.54 72.092-8.147 138.351-52.905 148.004-44.753 9.64-93.633-40.986-109.17-113.072-15.537-72.09 8.15-138.352 52.905-147.996 44.756-9.648 93.633 40.972 109.17 113.064zm56.643.062c-15.526 72.09 8.145 138.356 52.898 147.996 44.757 9.653 93.635-40.974 109.17-113.063 15.54-72.092-8.145-138.353-52.903-147.997-44.758-9.646-93.634 40.972-109.165 113.064zm-112.66 240.929c-10.923 18.867-61.542 81.32-96.553 102.627-35.008 21.306-78.39 52.506-71.11 124.146 7.277 71.654 80.768 102.32 129.147 99.6 48.382-2.706 139.6-11.613 204.724-2.586 65.122 9.026 147.315 2.186 166.563-66.414 19.248-68.6-23.8-112.306-57.392-137.106-33.59-24.787-89.686-98.934-106.969-132.974-17.28-34.026-105.236-96.346-168.41 12.707z"/></symbol><symbol id="icon-mastodon" viewBox="0 0 216.414 232.01"><path d="M211.807 139.088c-3.18 16.366-28.492 34.277-57.562 37.748-15.159 1.809-30.084 3.471-45.999 2.741-26.027-1.192-46.565-6.212-46.565-6.212 0 2.534.156 4.946.469 7.202 3.384 25.687 25.47 27.225 46.391 27.943 21.116.723 39.919-5.206 39.919-5.206l.867 19.09s-14.77 7.931-41.08 9.39c-14.51.797-32.525-.365-53.507-5.919C9.232 213.82 1.406 165.311.209 116.091c-.365-14.613-.14-28.393-.14-39.918 0-50.33 32.976-65.083 32.976-65.083C49.672 3.454 78.204.242 107.865 0h.729c29.66.242 58.21 3.454 74.837 11.09 0 0 32.975 14.752 32.975 65.082 0 0 .414 37.134-4.599 62.916" mask="url(#mastodon-m)"/><mask id="mastodon-m"><path fill="#fff" d="M0 0h216414v232.01H0z"/><path d="M177.51 80.077v60.941h-24.144v-59.15c0-12.469-5.246-18.797-15.74-18.797-11.602 0-17.417 7.507-17.417 22.352V117.8H96.207V85.423c0-14.845-5.816-22.352-17.418-22.352-10.494 0-15.74 6.328-15.74 18.797v59.15H38.905V80.077c0-12.455 3.171-22.352 9.541-29.675 6.569-7.322 15.171-11.076 25.85-11.076 12.355 0 21.711 4.748 27.898 14.247l6.013 10.082 6.015-10.082c6.185-9.498 15.542-14.247 27.898-14.247 10.677 0 19.28 3.753 25.85 11.076 6.369 7.322 9.54 17.22 9.54 29.675"/></mask></symbol><symbol id="icon-quizstreak" viewBox="0 0 555 555"><title>QuizStreak Logo</title><path fill="none" stroke="#000" stroke-width="20.262" d="M422.215 361.962c4.074-6.087 3.966-5.494 7.292-12.071 12.35-24.443 19.31-52.073 19.31-81.33 0-99.725-80.84-180.564-180.564-180.564-99.72 0-180.564 80.84-180.564 180.564 0 99.72 80.844 180.564 180.564 180.564 33.232 0 64.364-8.978 91.108-24.636a181.836 181.836 0 0 0 16.18-10.682"/><path fill="none" stroke="#000" stroke-width="20.262" d="M450.259 387.669c4.895-6.724 3.618-4.775 7.73-12.05 17.879-31.618 28.083-68.144 28.083-107.058 0-120.3-97.522-217.823-217.823-217.823-120.3 0-217.822 97.522-217.822 217.823 0 120.3 97.522 217.822 217.822 217.822 40.696 0 78.78-11.16 111.37-30.582a218.765 218.765 0 0 0 19.762-13.297"/><path fill="none" stroke="#000" stroke-width="20.262" d="M478.578 414.467c4.087-5.378 2.1-1.665 5.76-7.365 25.678-39.964 40.57-87.512 40.57-138.544 0-141.745-114.905-256.655-256.654-256.655-141.745 0-256.655 114.91-256.655 256.655 0 141.744 114.91 256.654 256.655 256.654 58.186 0 111.851-19.362 154.9-51.996"/><path fill="none" stroke="#000" stroke-linecap="round" stroke-width="20.262" d="m330.236 369.763 139.881 156.852"/><path fill="none" stroke="#7D7D7D" stroke-linecap="round" stroke-width="24.262" d="m341.841 321.47 186.028 208.665"/><path fill="#7D7D7D" d="m548.301 553.052 1.437-68.842-69.99 62.402 68.553 6.44Z"/><path fill="none" stroke="#000" stroke-linecap="round" stroke-width="24.262" d="m393.468 318.246 139.3 155.982"/><path fill="none" d="M0 0h555v554.998H0z"/></symbol></defs></svg>